<svg id="Grupo_125874" data-name="Grupo 125874" xmlns="http://www.w3.org/2000/svg" xmlns:xlink="http://www.w3.org/1999/xlink" width="114.636" height="114.636" viewBox="0 0 114.636 114.636">
  <defs>
    <radialGradient id="radial-gradient" cx="0.076" cy="0.019" r="1.465" gradientTransform="translate(0.001)" gradientUnits="objectBoundingBox">
      <stop offset="0" stop-color="#f6f6f7"/>
      <stop offset="0.477" stop-color="#f9f9fa"/>
      <stop offset="0.715" stop-color="#fff"/>
    </radialGradient>
  </defs>
  <g id="Grupo_18423" data-name="Grupo 18423" transform="translate(0 0)">
    <g id="Grupo_18421" data-name="Grupo 18421">
      <g id="Grupo_18420" data-name="Grupo 18420">
        <g id="Grupo_18419" data-name="Grupo 18419">
          <path id="Trazado_40936" data-name="Trazado 40936" d="M309.259,2203.037a57.318,57.318,0,1,1-57.317-57.316A57.317,57.317,0,0,1,309.259,2203.037Z" transform="translate(-194.623 -2145.721)" fill="#fff"/>
        </g>
      </g>
    </g>
    <path id="Trazado_40937" data-name="Trazado 40937" d="M308.648,2202.372a57.316,57.316,0,1,0-57.317,57.319A57.091,57.091,0,0,0,308.648,2202.372Z" transform="translate(-194.013 -2145.056)" fill="url(#radial-gradient)"/>
    <path id="Trazado_40938" data-name="Trazado 40938" d="M289.672,2196.986a43.75,43.75,0,1,0-43.75,43.75A43.587,43.587,0,0,0,289.672,2196.986Z" transform="translate(-188.43 -2139.479)" fill="none" stroke="#0f1027" stroke-miterlimit="10" stroke-width="4"/>
    <g id="Grupo_18422" data-name="Grupo 18422" transform="translate(10.154 32.18)">
      <path id="Trazado_40939" data-name="Trazado 40939" d="M299.231,2164.488a57.325,57.325,0,0,1-98.686,57.081,57.143,57.143,0,0,0,98.686-57.081Z" transform="translate(-200.545 -2164.488)" fill="#eceef0"/>
    </g>
  </g>
  <g id="FH4JCn" transform="translate(605.707 1350.265)">
    <g id="Grupo_124254" data-name="Grupo 124254" transform="translate(-569.784 -1314.692)">
      <path id="Trazado_174151" data-name="Trazado 174151" d="M-524.875-1292.346c0,6.281.015,12.561,0,18.841-.009,3.149-.651,3.813-3.763,3.818q-18.713.024-37.426,0c-2.993,0-3.694-.692-3.7-3.628q-.028-18.841-.009-37.682c0-2.99.7-3.676,3.644-3.68q18.837-.025,37.674-.007c2.812,0,3.552.7,3.568,3.5C-524.851-1304.907-524.876-1298.626-524.875-1292.346Zm-30.753-20.864c-3.785,0-7.393-.05-11,.053-.547.016-1.527.732-1.539,1.147-.117,3.986-.07,7.976-.07,11.908h9.548c-.51-2.707,1.267-3.163,3.058-3.4Zm29.244,13.165c0-3.991.05-7.846-.061-11.7a1.959,1.959,0,0,0-1.318-1.383c-3.683-.115-7.371-.064-11.133-.064v9.955c2.777-.533,3.055,1.359,3.238,3.19Zm-14.435-3.3v-9.708h-12.928v9.913c2.925-.769,2.908,1.456,3.308,3.033h6.59C-544.248-1302.6-543.017-1303.446-540.819-1303.344ZM-568.2-1285.21h9.437c-.308-2.463.871-3.465,3.157-3.3v-6.634c-2.444.237-3.323-1.1-3.291-3.1h-9.3Zm-.074,1.756c0,3.651-.065,7.176.067,10.694a2.143,2.143,0,0,0,1.443,1.51c3.674.132,7.355.07,11.107.07v-9.058l-.764.5-3.373-3.715Zm32.341-14.844c.347,1.99-.232,3.2-2.369,3.136-.24-.007-.7.674-.719,1.051-.075,1.862-.034,3.729-.034,5.74,2.76-.444,3.266,1.135,3.321,3.129h9.224V-1298.3Zm9.559,14.826H-535.8c.3,2.42-1.1,3.24-3.113,3.3v9c3.757,0,7.363.074,10.959-.079a2.335,2.335,0,0,0,1.511-1.689C-526.3-1276.371-526.374-1279.819-526.374-1283.471Zm-17.566.017h-6.717c.344,2.462-1.062,3.249-3.031,3.266v8.881h12.853v-9.056C-543.263-1280.065-544.08-1281.344-543.94-1283.454Zm3.167-11.73c-2.577.364-3.244-1.166-3.3-3.063h-6.644c.468,2.633-1.259,3.026-3.034,3.239v6.635c2.777-.586,3.034,1.357,3.291,3.1h6.626c-.418-2.521.961-3.257,3.065-3.247Zm3.191-1.655v-4.726h-4.573v4.726Zm-14.782,10.318c-4.777-1.061-5.407-.443-4.539,4.443h4.539Zm14.855,4.455v-4.634h-4.714v4.634Zm-14.883-14.817v-4.634h-4.65v4.634Z" transform="translate(569.784 1314.692)" fill="#0f1027"/>
    </g>
  </g>
</svg>
