<svg xmlns="http://www.w3.org/2000/svg" width="324.537" height="256.077" viewBox="0 0 324.537 256.077">
  <g id="Grupo_124901" data-name="Grupo 124901" transform="translate(-2881.605 472.077) rotate(-90)">
    <g id="Grupo_124206" data-name="Grupo 124206" transform="translate(222.798 3206.143) rotate(-90)">
      <g id="Grupo_124170" data-name="Grupo 124170" opacity="0.437">
        <g id="Grupo_118401" data-name="Grupo 118401">
          <ellipse id="Elipse_4970" data-name="Elipse 4970" cx="109.218" cy="111.345" rx="109.218" ry="111.345" transform="translate(98.893)" fill="#0f1027" opacity="0.691"/>
          <ellipse id="Elipse_4971" data-name="Elipse 4971" cx="99.431" cy="99.431" rx="99.431" ry="99.431" transform="translate(0 28.829)" fill="#0f1027" opacity="0.691"/>
        </g>
      </g>
      <g id="Grupo_124171" data-name="Grupo 124171" transform="translate(265.52 186.453)">
        <path id="Trazado_173897" data-name="Trazado 173897" d="M11.911,6.877,0,0V13.753Z" transform="translate(0 0)" fill="#fdfdfd"/>
        <path id="Trazado_173898" data-name="Trazado 173898" d="M11.911,6.877,0,0V13.753Z" transform="translate(19.949 0)" fill="#0f1027"/>
        <path id="Trazado_173899" data-name="Trazado 173899" d="M11.911,6.877,0,0V13.753Z" transform="translate(39.897 0)" fill="#21999a"/>
      </g>
      <g id="Grupo_124172" data-name="Grupo 124172" transform="translate(2.327 10.404)">
        <g id="Grupo_118497" data-name="Grupo 118497" transform="translate(246.748 79.601)">
          <g id="Grupo_118330" data-name="Grupo 118330">
            <g id="Grupo_118326" data-name="Grupo 118326">
              <line id="Línea_1572" data-name="Línea 1572" y2="6.981" transform="translate(3.49)" fill="none" stroke="#8f9294" stroke-miterlimit="10" stroke-width="0.388"/>
              <line id="Línea_1573" data-name="Línea 1573" x2="6.981" transform="translate(0 3.49)" fill="none" stroke="#8f9294" stroke-miterlimit="10" stroke-width="0.388"/>
            </g>
            <g id="Grupo_118327" data-name="Grupo 118327" transform="translate(19.022)">
              <line id="Línea_1574" data-name="Línea 1574" y2="6.981" transform="translate(3.49)" fill="none" stroke="#8f9294" stroke-miterlimit="10" stroke-width="0.388"/>
              <line id="Línea_1575" data-name="Línea 1575" x2="6.981" transform="translate(0 3.49)" fill="none" stroke="#8f9294" stroke-miterlimit="10" stroke-width="0.388"/>
            </g>
            <g id="Grupo_118328" data-name="Grupo 118328" transform="translate(38.045)">
              <line id="Línea_1576" data-name="Línea 1576" y2="6.981" transform="translate(3.49)" fill="none" stroke="#8f9294" stroke-miterlimit="10" stroke-width="0.388"/>
              <line id="Línea_1577" data-name="Línea 1577" x2="6.981" transform="translate(0 3.49)" fill="none" stroke="#8f9294" stroke-miterlimit="10" stroke-width="0.388"/>
            </g>
            <g id="Grupo_118329" data-name="Grupo 118329" transform="translate(57.067)">
              <line id="Línea_1578" data-name="Línea 1578" y2="6.981" transform="translate(3.49)" fill="none" stroke="#8f9294" stroke-miterlimit="10" stroke-width="0.388"/>
              <line id="Línea_1579" data-name="Línea 1579" x2="6.981" transform="translate(0 3.49)" fill="none" stroke="#8f9294" stroke-miterlimit="10" stroke-width="0.388"/>
            </g>
          </g>
          <g id="Grupo_118335" data-name="Grupo 118335" transform="translate(0 14.485)">
            <g id="Grupo_118331" data-name="Grupo 118331">
              <line id="Línea_1580" data-name="Línea 1580" y2="6.981" transform="translate(3.49)" fill="none" stroke="#8f9294" stroke-miterlimit="10" stroke-width="0.388"/>
              <line id="Línea_1581" data-name="Línea 1581" x2="6.981" transform="translate(0 3.49)" fill="none" stroke="#8f9294" stroke-miterlimit="10" stroke-width="0.388"/>
            </g>
            <g id="Grupo_118332" data-name="Grupo 118332" transform="translate(19.022)">
              <line id="Línea_1582" data-name="Línea 1582" y2="6.981" transform="translate(3.49)" fill="none" stroke="#8f9294" stroke-miterlimit="10" stroke-width="0.388"/>
              <line id="Línea_1583" data-name="Línea 1583" x2="6.981" transform="translate(0 3.49)" fill="none" stroke="#8f9294" stroke-miterlimit="10" stroke-width="0.388"/>
            </g>
            <g id="Grupo_118333" data-name="Grupo 118333" transform="translate(38.045)">
              <line id="Línea_1584" data-name="Línea 1584" y2="6.981" transform="translate(3.49)" fill="none" stroke="#8f9294" stroke-miterlimit="10" stroke-width="0.388"/>
              <line id="Línea_1585" data-name="Línea 1585" x2="6.981" transform="translate(0 3.49)" fill="none" stroke="#8f9294" stroke-miterlimit="10" stroke-width="0.388"/>
            </g>
            <g id="Grupo_118334" data-name="Grupo 118334" transform="translate(57.067)">
              <line id="Línea_1586" data-name="Línea 1586" y2="6.981" transform="translate(3.49)" fill="none" stroke="#8f9294" stroke-miterlimit="10" stroke-width="0.388"/>
              <line id="Línea_1587" data-name="Línea 1587" x2="6.981" transform="translate(0 3.49)" fill="none" stroke="#8f9294" stroke-miterlimit="10" stroke-width="0.388"/>
            </g>
          </g>
          <g id="Grupo_118340" data-name="Grupo 118340" transform="translate(0 28.97)">
            <g id="Grupo_118336" data-name="Grupo 118336">
              <line id="Línea_1588" data-name="Línea 1588" y2="6.981" transform="translate(3.49)" fill="none" stroke="#8f9294" stroke-miterlimit="10" stroke-width="0.388"/>
              <line id="Línea_1589" data-name="Línea 1589" x2="6.981" transform="translate(0 3.49)" fill="none" stroke="#8f9294" stroke-miterlimit="10" stroke-width="0.388"/>
            </g>
            <g id="Grupo_118337" data-name="Grupo 118337" transform="translate(19.022)">
              <line id="Línea_1590" data-name="Línea 1590" y2="6.981" transform="translate(3.49)" fill="none" stroke="#8f9294" stroke-miterlimit="10" stroke-width="0.388"/>
              <line id="Línea_1591" data-name="Línea 1591" x2="6.981" transform="translate(0 3.49)" fill="none" stroke="#8f9294" stroke-miterlimit="10" stroke-width="0.388"/>
            </g>
            <g id="Grupo_118338" data-name="Grupo 118338" transform="translate(38.045)">
              <line id="Línea_1592" data-name="Línea 1592" y2="6.981" transform="translate(3.49)" fill="none" stroke="#8f9294" stroke-miterlimit="10" stroke-width="0.388"/>
              <line id="Línea_1593" data-name="Línea 1593" x2="6.981" transform="translate(0 3.49)" fill="none" stroke="#8f9294" stroke-miterlimit="10" stroke-width="0.388"/>
            </g>
            <g id="Grupo_118339" data-name="Grupo 118339" transform="translate(57.067)">
              <line id="Línea_1594" data-name="Línea 1594" y2="6.981" transform="translate(3.49)" fill="none" stroke="#8f9294" stroke-miterlimit="10" stroke-width="0.388"/>
              <line id="Línea_1595" data-name="Línea 1595" x2="6.981" transform="translate(0 3.49)" fill="none" stroke="#8f9294" stroke-miterlimit="10" stroke-width="0.388"/>
            </g>
          </g>
          <g id="Grupo_118345" data-name="Grupo 118345" transform="translate(0 43.455)">
            <g id="Grupo_118341" data-name="Grupo 118341">
              <line id="Línea_1596" data-name="Línea 1596" y2="6.981" transform="translate(3.49)" fill="none" stroke="#8f9294" stroke-miterlimit="10" stroke-width="0.388"/>
              <line id="Línea_1597" data-name="Línea 1597" x2="6.981" transform="translate(0 3.49)" fill="none" stroke="#8f9294" stroke-miterlimit="10" stroke-width="0.388"/>
            </g>
            <g id="Grupo_118342" data-name="Grupo 118342" transform="translate(19.022)">
              <line id="Línea_1598" data-name="Línea 1598" y2="6.981" transform="translate(3.49)" fill="none" stroke="#8f9294" stroke-miterlimit="10" stroke-width="0.388"/>
              <line id="Línea_1599" data-name="Línea 1599" x2="6.981" transform="translate(0 3.49)" fill="none" stroke="#8f9294" stroke-miterlimit="10" stroke-width="0.388"/>
            </g>
            <g id="Grupo_118343" data-name="Grupo 118343" transform="translate(38.045)">
              <line id="Línea_1600" data-name="Línea 1600" y2="6.981" transform="translate(3.49)" fill="none" stroke="#8f9294" stroke-miterlimit="10" stroke-width="0.388"/>
              <line id="Línea_1601" data-name="Línea 1601" x2="6.981" transform="translate(0 3.49)" fill="none" stroke="#8f9294" stroke-miterlimit="10" stroke-width="0.388"/>
            </g>
            <g id="Grupo_118344" data-name="Grupo 118344" transform="translate(57.067)">
              <line id="Línea_1602" data-name="Línea 1602" y2="6.981" transform="translate(3.49)" fill="none" stroke="#8f9294" stroke-miterlimit="10" stroke-width="0.388"/>
              <line id="Línea_1603" data-name="Línea 1603" x2="6.981" transform="translate(0 3.49)" fill="none" stroke="#8f9294" stroke-miterlimit="10" stroke-width="0.388"/>
            </g>
          </g>
        </g>
        <g id="Grupo_124242" data-name="Grupo 124242" transform="translate(0 136.7)">
          <g id="Grupo_118330-2" data-name="Grupo 118330">
            <g id="Grupo_118326-2" data-name="Grupo 118326">
              <line id="Línea_1572-2" data-name="Línea 1572" y2="6.981" transform="translate(3.49)" fill="none" stroke="#8f9294" stroke-miterlimit="10" stroke-width="0.388"/>
              <line id="Línea_1573-2" data-name="Línea 1573" x2="6.981" transform="translate(0 3.49)" fill="none" stroke="#8f9294" stroke-miterlimit="10" stroke-width="0.388"/>
            </g>
            <g id="Grupo_118327-2" data-name="Grupo 118327" transform="translate(19.022)">
              <line id="Línea_1574-2" data-name="Línea 1574" y2="6.981" transform="translate(3.49)" fill="none" stroke="#8f9294" stroke-miterlimit="10" stroke-width="0.388"/>
              <line id="Línea_1575-2" data-name="Línea 1575" x2="6.981" transform="translate(0 3.49)" fill="none" stroke="#8f9294" stroke-miterlimit="10" stroke-width="0.388"/>
            </g>
            <g id="Grupo_118328-2" data-name="Grupo 118328" transform="translate(38.045)">
              <line id="Línea_1576-2" data-name="Línea 1576" y2="6.981" transform="translate(3.49)" fill="none" stroke="#8f9294" stroke-miterlimit="10" stroke-width="0.388"/>
              <line id="Línea_1577-2" data-name="Línea 1577" x2="6.981" transform="translate(0 3.49)" fill="none" stroke="#8f9294" stroke-miterlimit="10" stroke-width="0.388"/>
            </g>
            <g id="Grupo_118329-2" data-name="Grupo 118329" transform="translate(57.067)">
              <line id="Línea_1578-2" data-name="Línea 1578" y2="6.981" transform="translate(3.49)" fill="none" stroke="#8f9294" stroke-miterlimit="10" stroke-width="0.388"/>
              <line id="Línea_1579-2" data-name="Línea 1579" x2="6.981" transform="translate(0 3.49)" fill="none" stroke="#8f9294" stroke-miterlimit="10" stroke-width="0.388"/>
            </g>
          </g>
          <g id="Grupo_118335-2" data-name="Grupo 118335" transform="translate(0 14.485)">
            <g id="Grupo_118331-2" data-name="Grupo 118331">
              <line id="Línea_1580-2" data-name="Línea 1580" y2="6.981" transform="translate(3.49)" fill="none" stroke="#8f9294" stroke-miterlimit="10" stroke-width="0.388"/>
              <line id="Línea_1581-2" data-name="Línea 1581" x2="6.981" transform="translate(0 3.49)" fill="none" stroke="#8f9294" stroke-miterlimit="10" stroke-width="0.388"/>
            </g>
            <g id="Grupo_118332-2" data-name="Grupo 118332" transform="translate(19.022)">
              <line id="Línea_1582-2" data-name="Línea 1582" y2="6.981" transform="translate(3.49)" fill="none" stroke="#8f9294" stroke-miterlimit="10" stroke-width="0.388"/>
              <line id="Línea_1583-2" data-name="Línea 1583" x2="6.981" transform="translate(0 3.49)" fill="none" stroke="#8f9294" stroke-miterlimit="10" stroke-width="0.388"/>
            </g>
            <g id="Grupo_118333-2" data-name="Grupo 118333" transform="translate(38.045)">
              <line id="Línea_1584-2" data-name="Línea 1584" y2="6.981" transform="translate(3.49)" fill="none" stroke="#8f9294" stroke-miterlimit="10" stroke-width="0.388"/>
              <line id="Línea_1585-2" data-name="Línea 1585" x2="6.981" transform="translate(0 3.49)" fill="none" stroke="#8f9294" stroke-miterlimit="10" stroke-width="0.388"/>
            </g>
            <g id="Grupo_118334-2" data-name="Grupo 118334" transform="translate(57.067)">
              <line id="Línea_1586-2" data-name="Línea 1586" y2="6.981" transform="translate(3.49)" fill="none" stroke="#8f9294" stroke-miterlimit="10" stroke-width="0.388"/>
              <line id="Línea_1587-2" data-name="Línea 1587" x2="6.981" transform="translate(0 3.49)" fill="none" stroke="#8f9294" stroke-miterlimit="10" stroke-width="0.388"/>
            </g>
          </g>
          <g id="Grupo_118340-2" data-name="Grupo 118340" transform="translate(0 28.97)">
            <g id="Grupo_118336-2" data-name="Grupo 118336">
              <line id="Línea_1588-2" data-name="Línea 1588" y2="6.981" transform="translate(3.49)" fill="none" stroke="#8f9294" stroke-miterlimit="10" stroke-width="0.388"/>
              <line id="Línea_1589-2" data-name="Línea 1589" x2="6.981" transform="translate(0 3.49)" fill="none" stroke="#8f9294" stroke-miterlimit="10" stroke-width="0.388"/>
            </g>
            <g id="Grupo_118337-2" data-name="Grupo 118337" transform="translate(19.022)">
              <line id="Línea_1590-2" data-name="Línea 1590" y2="6.981" transform="translate(3.49)" fill="none" stroke="#8f9294" stroke-miterlimit="10" stroke-width="0.388"/>
              <line id="Línea_1591-2" data-name="Línea 1591" x2="6.981" transform="translate(0 3.49)" fill="none" stroke="#8f9294" stroke-miterlimit="10" stroke-width="0.388"/>
            </g>
            <g id="Grupo_118338-2" data-name="Grupo 118338" transform="translate(38.045)">
              <line id="Línea_1592-2" data-name="Línea 1592" y2="6.981" transform="translate(3.49)" fill="none" stroke="#8f9294" stroke-miterlimit="10" stroke-width="0.388"/>
              <line id="Línea_1593-2" data-name="Línea 1593" x2="6.981" transform="translate(0 3.49)" fill="none" stroke="#8f9294" stroke-miterlimit="10" stroke-width="0.388"/>
            </g>
            <g id="Grupo_118339-2" data-name="Grupo 118339" transform="translate(57.067)">
              <line id="Línea_1594-2" data-name="Línea 1594" y2="6.981" transform="translate(3.49)" fill="none" stroke="#8f9294" stroke-miterlimit="10" stroke-width="0.388"/>
              <line id="Línea_1595-2" data-name="Línea 1595" x2="6.981" transform="translate(0 3.49)" fill="none" stroke="#8f9294" stroke-miterlimit="10" stroke-width="0.388"/>
            </g>
          </g>
          <g id="Grupo_118345-2" data-name="Grupo 118345" transform="translate(0 43.455)">
            <g id="Grupo_118341-2" data-name="Grupo 118341">
              <line id="Línea_1596-2" data-name="Línea 1596" y2="6.981" transform="translate(3.49)" fill="none" stroke="#8f9294" stroke-miterlimit="10" stroke-width="0.388"/>
              <line id="Línea_1597-2" data-name="Línea 1597" x2="6.981" transform="translate(0 3.49)" fill="none" stroke="#8f9294" stroke-miterlimit="10" stroke-width="0.388"/>
            </g>
            <g id="Grupo_118342-2" data-name="Grupo 118342" transform="translate(19.022)">
              <line id="Línea_1598-2" data-name="Línea 1598" y2="6.981" transform="translate(3.49)" fill="none" stroke="#8f9294" stroke-miterlimit="10" stroke-width="0.388"/>
              <line id="Línea_1599-2" data-name="Línea 1599" x2="6.981" transform="translate(0 3.49)" fill="none" stroke="#8f9294" stroke-miterlimit="10" stroke-width="0.388"/>
            </g>
            <g id="Grupo_118343-2" data-name="Grupo 118343" transform="translate(38.045)">
              <line id="Línea_1600-2" data-name="Línea 1600" y2="6.981" transform="translate(3.49)" fill="none" stroke="#8f9294" stroke-miterlimit="10" stroke-width="0.388"/>
              <line id="Línea_1601-2" data-name="Línea 1601" x2="6.981" transform="translate(0 3.49)" fill="none" stroke="#8f9294" stroke-miterlimit="10" stroke-width="0.388"/>
            </g>
            <g id="Grupo_118344-2" data-name="Grupo 118344" transform="translate(57.067)">
              <line id="Línea_1602-2" data-name="Línea 1602" y2="6.981" transform="translate(3.49)" fill="none" stroke="#8f9294" stroke-miterlimit="10" stroke-width="0.388"/>
              <line id="Línea_1603-2" data-name="Línea 1603" x2="6.981" transform="translate(0 3.49)" fill="none" stroke="#8f9294" stroke-miterlimit="10" stroke-width="0.388"/>
            </g>
          </g>
        </g>
        <g id="Grupo_118498" data-name="Grupo 118498" transform="translate(109.261 0)">
          <path id="Trazado_173839" data-name="Trazado 173839" d="M66.346,73.614A107.132,107.132,0,0,1,0,0" transform="translate(1.997 133.528)" fill="none" stroke="#8f9294" stroke-linecap="round" stroke-linejoin="round" stroke-width="1"/>
          <path id="Trazado_173840" data-name="Trazado 173840" d="M59.985,0a106.559,106.559,0,0,1-41.8,8.481A107.6,107.6,0,0,1,0,6.94" transform="translate(87.365 205.315)" fill="none" stroke="#575758" stroke-linecap="round" stroke-linejoin="round" stroke-width="1"/>
          <path id="Trazado_173841" data-name="Trazado 173841" d="M0,89.88A106.908,106.908,0,1,1,147.35,205.315" fill="none" stroke="#575758" stroke-linecap="round" stroke-linejoin="round" stroke-width="1"/>
        </g>
        <path id="Trazado_173938" data-name="Trazado 173938" d="M5.636,2.818A2.818,2.818,0,1,1,2.818,0,2.818,2.818,0,0,1,5.636,2.818Z" transform="translate(190.991 208.359)" fill="none" stroke="#575758" stroke-linecap="round" stroke-linejoin="round" stroke-width="1"/>
      </g>
      <g id="Grupo_124173" data-name="Grupo 124173" transform="translate(222.069 10.404)">
        <g id="Grupo_118323" data-name="Grupo 118323" transform="translate(17.599)">
          <path id="Trazado_173833" data-name="Trazado 173833" d="M4.8,2.4A2.4,2.4,0,1,1,2.4,0,2.4,2.4,0,0,1,4.8,2.4Z" fill="none" stroke="#21999a" stroke-miterlimit="10" stroke-width="1"/>
          <path id="Trazado_173834" data-name="Trazado 173834" d="M4.8,2.4A2.4,2.4,0,1,1,2.4,0,2.4,2.4,0,0,1,4.8,2.4Z" transform="translate(17.598)" fill="none" stroke="#0f1027" stroke-miterlimit="10" stroke-width="0.78"/>
          <path id="Trazado_173835" data-name="Trazado 173835" d="M4.8,2.4A2.4,2.4,0,1,1,2.4,0,2.4,2.4,0,0,1,4.8,2.4Z" transform="translate(35.198)" fill="none" stroke="#0f1027" stroke-miterlimit="10" stroke-width="0.78"/>
        </g>
        <g id="Grupo_118324" data-name="Grupo 118324" transform="translate(0 15.199)">
          <ellipse id="Elipse_4967" data-name="Elipse 4967" cx="2.4" cy="2.4" rx="2.4" ry="2.4" fill="none" stroke="#0f1027" stroke-miterlimit="10" stroke-width="0.78"/>
          <path id="Trazado_173836" data-name="Trazado 173836" d="M4.8,2.4A2.4,2.4,0,1,1,2.4,0,2.4,2.4,0,0,1,4.8,2.4Z" transform="translate(17.599 0)" fill="none" stroke="#21999a" stroke-miterlimit="10" stroke-width="0.78"/>
          <path id="Trazado_173837" data-name="Trazado 173837" d="M4.8,2.4A2.4,2.4,0,1,1,2.4,0,2.4,2.4,0,0,1,4.8,2.4Z" transform="translate(35.197 0)" fill="none" stroke="#0f1027" stroke-miterlimit="10" stroke-width="0.78"/>
          <path id="Trazado_173838" data-name="Trazado 173838" d="M4.8,2.4A2.4,2.4,0,1,1,2.4,0,2.4,2.4,0,0,1,4.8,2.4Z" transform="translate(35.197 14.132)" fill="none" stroke="#af0f3f" stroke-miterlimit="10" stroke-width="1"/>
        </g>
      </g>
      <g id="Grupo_124241" data-name="Grupo 124241" transform="translate(1.327 117.444) rotate(-90)">
        <g id="Grupo_118323-2" data-name="Grupo 118323" transform="translate(17.599)">
          <path id="Trazado_173833-2" data-name="Trazado 173833" d="M4.8,2.4A2.4,2.4,0,1,1,2.4,0,2.4,2.4,0,0,1,4.8,2.4Z" fill="none" stroke="#21999a" stroke-miterlimit="10" stroke-width="1"/>
          <path id="Trazado_173834-2" data-name="Trazado 173834" d="M4.8,2.4A2.4,2.4,0,1,1,2.4,0,2.4,2.4,0,0,1,4.8,2.4Z" transform="translate(17.598)" fill="none" stroke="#0f1027" stroke-miterlimit="10" stroke-width="0.78"/>
          <path id="Trazado_173835-2" data-name="Trazado 173835" d="M4.8,2.4A2.4,2.4,0,1,1,2.4,0,2.4,2.4,0,0,1,4.8,2.4Z" transform="translate(35.198)" fill="none" stroke="#0f1027" stroke-miterlimit="10" stroke-width="0.78"/>
        </g>
        <g id="Grupo_118324-2" data-name="Grupo 118324" transform="translate(0 15.199)">
          <ellipse id="Elipse_4967-2" data-name="Elipse 4967" cx="2.4" cy="2.4" rx="2.4" ry="2.4" fill="none" stroke="#0f1027" stroke-miterlimit="10" stroke-width="0.78"/>
          <path id="Trazado_173836-2" data-name="Trazado 173836" d="M4.8,2.4A2.4,2.4,0,1,1,2.4,0,2.4,2.4,0,0,1,4.8,2.4Z" transform="translate(17.599 0)" fill="none" stroke="#21999a" stroke-miterlimit="10" stroke-width="0.78"/>
          <path id="Trazado_173837-2" data-name="Trazado 173837" d="M4.8,2.4A2.4,2.4,0,1,1,2.4,0,2.4,2.4,0,0,1,4.8,2.4Z" transform="translate(35.197 0)" fill="none" stroke="#0f1027" stroke-miterlimit="10" stroke-width="0.78"/>
          <path id="Trazado_173838-2" data-name="Trazado 173838" d="M4.8,2.4A2.4,2.4,0,1,1,2.4,0,2.4,2.4,0,0,1,4.8,2.4Z" transform="translate(35.197 14.132)" fill="none" stroke="#af0f3f" stroke-miterlimit="10" stroke-width="1"/>
        </g>
      </g>
    </g>
    <g id="Grupo_124240" data-name="Grupo 124240" transform="translate(216 2892.341)">
      <g id="Grupo_124208" data-name="Grupo 124208" transform="translate(64.163 1.722)">
        <path id="Trazado_174075" data-name="Trazado 174075" d="M186.784,117.62a.354.354,0,0,1-.349-.3l-9.961-62.5a.353.353,0,0,1,.472-.387l123.772,45.88a.353.353,0,0,1-.072.681L186.836,117.616A.342.342,0,0,1,186.784,117.62ZM177.267,55.3l9.811,61.564,112.1-16.375Z" transform="translate(-176.47 -54.408)" fill="#af0f3f"/>
      </g>
      <g id="Grupo_124209" data-name="Grupo 124209" transform="translate(8.775 125.016)">
        <path id="Trazado_174076" data-name="Trazado 174076" d="M137.616,267.617a.353.353,0,0,1-.259-.595l80.3-85.886a.35.35,0,0,1,.177-.1l164.575-39.342a.354.354,0,0,1,.355.569L310.615,229.6a.353.353,0,0,1-.2.12l-172.727,37.89A.35.35,0,0,1,137.616,267.617ZM218.1,181.7l-79.448,84.981,171.5-37.621,71.395-86.429Z" transform="translate(-137.262 -141.684)" fill="#af0f3f"/>
      </g>
      <g id="Grupo_124210" data-name="Grupo 124210" transform="translate(1.72 64.227)">
        <path id="Trazado_174077" data-name="Trazado 174077" d="M139.677,285.376a.388.388,0,0,1-.12-.02.358.358,0,0,1-.233-.312l-7.055-118.994a.35.35,0,0,1,.112-.28l72.406-67.022a.35.35,0,0,1,.356-.073.354.354,0,0,1,.233.281l14.946,100.129a.356.356,0,0,1-.09.294l-80.3,85.886A.348.348,0,0,1,139.677,285.376Zm-6.695-119.2,7,118.005L219.6,199.019l-14.823-99.3Z" transform="translate(-132.268 -98.654)" fill="#af0f3f"/>
      </g>
      <g id="Grupo_124211" data-name="Grupo 124211" transform="translate(8.775 164.354)">
        <path id="Trazado_174078" data-name="Trazado 174078" d="M309.267,289.363a.565.565,0,0,1-.068-.006L137.548,256.118a.348.348,0,0,1-.268-.237.354.354,0,0,1,.078-.35l80.3-85.886a.321.321,0,0,1,.275-.112.354.354,0,0,1,.263.137L309.547,288.8a.353.353,0,0,1-.28.568ZM138.31,255.547l170.11,32.938L217.885,170.431Z" transform="translate(-137.263 -169.53)" fill="#af0f3f"/>
      </g>
      <g id="Grupo_124219" data-name="Grupo 124219" transform="translate(29.566 40.689)">
        <g id="Grupo_124212" data-name="Grupo 124212" transform="translate(0 73.441)">
          <path id="Trazado_174079" data-name="Trazado 174079" d="M255.811,133.978l-103.832,32.26,17,90.839,129.174-45.939Z" transform="translate(-151.979 -133.978)" fill="#d1d1d1"/>
        </g>
        <g id="Grupo_124213" data-name="Grupo 124213">
          <path id="Trazado_174080" data-name="Trazado 174080" d="M187.415,81.992l-35.435,105.7,103.832-32.26Z" transform="translate(-151.979 -81.992)" fill="#e0e0e0"/>
        </g>
        <g id="Grupo_124216" data-name="Grupo 124216" transform="translate(35.435)">
          <g id="Grupo_124214" data-name="Grupo 124214" transform="translate(68.396 23.254)">
            <path id="Trazado_174081" data-name="Trazado 174081" d="M225.479,148.64l31.267-50.187,58.072,53.155-47,74.192Z" transform="translate(-225.479 -98.453)" fill="#e0e0e0"/>
          </g>
          <g id="Grupo_124215" data-name="Grupo 124215">
            <path id="Trazado_174082" data-name="Trazado 174082" d="M177.063,81.992l99.663,23.254-31.267,50.187Z" transform="translate(-177.063 -81.992)" fill="#fcfcfc"/>
          </g>
        </g>
        <g id="Grupo_124217" data-name="Grupo 124217" transform="translate(146.172 76.409)">
          <path id="Trazado_174083" data-name="Trazado 174083" d="M302.449,136.079,261.541,265.087l-6.091-54.816Z" transform="translate(-255.45 -136.079)" fill="#d1d1d1"/>
        </g>
        <g id="Grupo_124218" data-name="Grupo 124218" transform="translate(16.999 150.601)">
          <path id="Trazado_174084" data-name="Trazado 174084" d="M293.186,188.6,164.012,234.537l135.265,8.876Z" transform="translate(-164.012 -188.597)" fill="#afafaf"/>
        </g>
      </g>
      <g id="Grupo_124232" data-name="Grupo 124232" transform="translate(1.719 1.722)">
        <g id="Grupo_124221" data-name="Grupo 124221" transform="translate(0.001 105.045)">
          <g id="Grupo_124220" data-name="Grupo 124220">
            <path id="Trazado_174085" data-name="Trazado 174085" d="M139.677,272.948a.355.355,0,0,1-.353-.332l-7.055-118.994a.352.352,0,0,1,.291-.367l138.085-24.483a.356.356,0,0,1,.39.218l41.7,105.586a.354.354,0,0,1-.253.475L139.752,272.94A.34.34,0,0,1,139.677,272.948Zm-6.685-119.053,7.013,118.268,171.916-37.713L270.484,129.517Z" transform="translate(-132.269 -128.767)" fill="#af0f3f"/>
          </g>
        </g>
        <g id="Grupo_124223" data-name="Grupo 124223" transform="translate(0 0.001)">
          <g id="Grupo_124222" data-name="Grupo 124222">
            <path id="Trazado_174086" data-name="Trazado 174086" d="M132.621,184.643a.356.356,0,0,1-.281-.14.352.352,0,0,1-.037-.367L194.747,54.608a.351.351,0,0,1,.287-.2.365.365,0,0,1,.318.146L270.995,159.6a.355.355,0,0,1,.04.339.35.35,0,0,1-.264.215L132.682,184.637A.425.425,0,0,1,132.621,184.643Zm62.5-129.194L133.24,183.82l136.852-24.264Z" transform="translate(-132.268 -54.409)" fill="#af0f3f"/>
          </g>
        </g>
        <g id="Grupo_124225" data-name="Grupo 124225" transform="translate(138.086 45.881)">
          <g id="Grupo_124224" data-name="Grupo 124224">
            <path id="Trazado_174087" data-name="Trazado 174087" d="M272.064,252.342a.376.376,0,0,1-.055,0,.351.351,0,0,1-.273-.219l-41.7-105.586a.358.358,0,0,1,.054-.353l48.13-59.164a.448.448,0,0,1,.274-.13.351.351,0,0,1,.268.124l65.713,77.413a.354.354,0,0,1,0,.453l-72.145,87.337A.354.354,0,0,1,272.064,252.342ZM230.772,146.465l41.4,104.837,71.576-86.649L278.5,87.792Z" transform="translate(-230.015 -86.886)" fill="#af0f3f"/>
          </g>
        </g>
        <g id="Grupo_124227" data-name="Grupo 124227" transform="translate(62.444)">
          <g id="Grupo_124226" data-name="Grupo 124226">
            <path id="Trazado_174088" data-name="Trazado 174088" d="M252.466,160.159h-.011a.353.353,0,0,1-.277-.147L176.538,54.967a.352.352,0,0,1,.408-.537l123.772,45.88a.354.354,0,0,1,.218.239.347.347,0,0,1-.066.315L252.74,160.029A.356.356,0,0,1,252.466,160.159ZM177.786,55.5l74.695,103.73L300.01,100.8Z" transform="translate(-176.47 -54.408)" fill="#af0f3f"/>
          </g>
        </g>
        <g id="Grupo_124229" data-name="Grupo 124229" transform="translate(178.707 123.293)">
          <g id="Grupo_124228" data-name="Grupo 124228">
            <path id="Trazado_174089" data-name="Trazado 174089" d="M259.122,300.855a.483.483,0,0,1-.079-.007.354.354,0,0,1-.274-.35l1.075-71.129a.355.355,0,0,1,.082-.219l72.145-87.338a.353.353,0,0,1,.592.374L259.441,300.65A.351.351,0,0,1,259.122,300.855Zm1.427-71.352-1.05,69.339,71.378-154.478Z" transform="translate(-258.769 -141.684)" fill="#af0f3f"/>
          </g>
        </g>
        <g id="Grupo_124231" data-name="Grupo 124231" transform="translate(7.056 210.63)">
          <g id="Grupo_124230" data-name="Grupo 124230">
            <path id="Trazado_174090" data-name="Trazado 174090" d="M309.267,275.341a.554.554,0,0,1-.068-.006L137.548,242.1a.353.353,0,0,1-.008-.691l172.727-37.89a.341.341,0,0,1,.3.072.346.346,0,0,1,.13.278l-1.075,71.128a.352.352,0,0,1-.353.348Zm-169.9-33.612,169.557,32.834,1.062-70.262Z" transform="translate(-137.263 -203.506)" fill="#af0f3f"/>
          </g>
        </g>
      </g>
      <g id="Grupo_124233" data-name="Grupo 124233" transform="translate(62.44 0)">
        <path id="Trazado_174091" data-name="Trazado 174091" d="M179.388,55.524a2.077,2.077,0,1,1-1.8-2.318A2.079,2.079,0,0,1,179.388,55.524Z" transform="translate(-175.25 -53.189)" fill="#af0f3f"/>
      </g>
      <g id="Grupo_124234" data-name="Grupo 124234" transform="translate(186.239 45.654)">
        <path id="Trazado_174092" data-name="Trazado 174092" d="M267.021,87.842a2.077,2.077,0,1,1-1.8-2.32A2.077,2.077,0,0,1,267.021,87.842Z" transform="translate(-262.883 -85.506)" fill="#af0f3f"/>
      </g>
      <g id="Grupo_124235" data-name="Grupo 124235" transform="translate(251.923 123.293)">
        <path id="Trazado_174093" data-name="Trazado 174093" d="M313.517,142.8a2.077,2.077,0,1,1-1.8-2.321A2.079,2.079,0,0,1,313.517,142.8Z" transform="translate(-309.379 -140.464)" fill="#af0f3f"/>
      </g>
      <g id="Grupo_124236" data-name="Grupo 124236" transform="translate(178.702 281.758)">
        <path id="Trazado_174094" data-name="Trazado 174094" d="M261.686,254.971a2.077,2.077,0,1,1-1.8-2.318A2.074,2.074,0,0,1,261.686,254.971Z" transform="translate(-257.548 -252.636)" fill="#af0f3f"/>
      </g>
      <g id="Grupo_124237" data-name="Grupo 124237" transform="translate(7.051 248.521)">
        <path id="Trazado_174095" data-name="Trazado 174095" d="M140.18,231.446a2.077,2.077,0,1,1-1.8-2.32A2.077,2.077,0,0,1,140.18,231.446Z" transform="translate(-136.042 -229.109)" fill="#af0f3f"/>
      </g>
      <g id="Grupo_124238" data-name="Grupo 124238" transform="translate(179.779 210.629)">
        <path id="Trazado_174096" data-name="Trazado 174096" d="M262.446,204.624a2.076,2.076,0,1,1-1.8-2.321A2.07,2.07,0,0,1,262.446,204.624Z" transform="translate(-258.311 -202.286)" fill="#af0f3f"/>
      </g>
      <g id="Grupo_124239" data-name="Grupo 124239" transform="translate(0 129.489)">
        <path id="Trazado_174097" data-name="Trazado 174097" d="M135.187,147.186a2.076,2.076,0,1,1-1.8-2.32A2.078,2.078,0,0,1,135.187,147.186Z" transform="translate(-131.051 -144.85)" fill="#af0f3f"/>
      </g>
    </g>
  </g>
</svg>
