<svg xmlns="http://www.w3.org/2000/svg" xmlns:xlink="http://www.w3.org/1999/xlink" width="850.17" height="164" viewBox="0 0 850.17 164">
  <defs>
    <linearGradient id="linear-gradient" x1="0.5" x2="0.5" y2="1" gradientUnits="objectBoundingBox">
      <stop offset="0" stop-color="#636363"/>
      <stop offset="0.517" stop-color="#0f1027"/>
      <stop offset="1" stop-color="#0f1027"/>
    </linearGradient>
  </defs>
  <g id="Grupo_126978" data-name="Grupo 126978" transform="translate(-374.915 -738)">
    <rect id="Rectángulo_35976" data-name="Rectángulo 35976" width="196" height="73" rx="5" transform="translate(374.915 738)" fill="url(#linear-gradient)"/>
    <rect id="Rectángulo_36033" data-name="Rectángulo 36033" width="196" height="73" rx="5" transform="translate(374.915 829)" fill="url(#linear-gradient)"/>
    <rect id="Rectángulo_36026" data-name="Rectángulo 36026" width="196" height="73" rx="5" transform="translate(592.972 738)" fill="url(#linear-gradient)"/>
    <rect id="Rectángulo_36032" data-name="Rectángulo 36032" width="196" height="73" rx="5" transform="translate(592.972 829)" fill="url(#linear-gradient)"/>
    <rect id="Rectángulo_36029" data-name="Rectángulo 36029" width="196" height="73" rx="5" transform="translate(1029.085 738)" fill="url(#linear-gradient)"/>
    <rect id="Rectángulo_36030" data-name="Rectángulo 36030" width="196" height="73" rx="5" transform="translate(1029.085 829)" fill="url(#linear-gradient)"/>
    <rect id="Rectángulo_36027" data-name="Rectángulo 36027" width="196" height="73" rx="5" transform="translate(811.028 738)" fill="url(#linear-gradient)"/>
    <rect id="Rectángulo_36031" data-name="Rectángulo 36031" width="196" height="73" rx="5" transform="translate(811.028 829)" fill="url(#linear-gradient)"/>
    <path id="Trazado_175245" data-name="Trazado 175245" d="M-13.784-4.736a5.031,5.031,0,0,1-1.694,3.613A5.951,5.951,0,0,1-19.507.2a5.351,5.351,0,0,1-4.3-1.841A7.548,7.548,0,0,1-25.376-6.7v-.869a8.523,8.523,0,0,1,.723-3.613,5.416,5.416,0,0,1,2.065-2.4,5.786,5.786,0,0,1,3.12-.835A5.8,5.8,0,0,1-15.5-13.1a5.407,5.407,0,0,1,1.738,3.7h-2.93a2.97,2.97,0,0,0-.767-2,2.839,2.839,0,0,0-2.007-.62,2.489,2.489,0,0,0-2.192,1.05,5.883,5.883,0,0,0-.747,3.257v1.074a6.3,6.3,0,0,0,.7,3.369,2.443,2.443,0,0,0,2.2,1.064,2.892,2.892,0,0,0,2.026-.62,2.8,2.8,0,0,0,.767-1.919Zm8.066,3.662A3.539,3.539,0,0,1-8.608.2,3.338,3.338,0,0,1-11.2-.781a4.169,4.169,0,0,1-.913-2.861v-6.924h2.822v6.834q0,1.652,1.5,1.652a2.038,2.038,0,0,0,1.973-1v-7.489h2.832V0H-5.64ZM5.083-7.92A7.667,7.667,0,0,0,4.067-8a2.067,2.067,0,0,0-2.1,1.084V0H-.854V-10.566H1.812l.078,1.26a2.615,2.615,0,0,1,2.354-1.455,2.957,2.957,0,0,1,.879.127Zm5.488,4.473,1.963-7.119h2.949L11.919,0h-2.7L5.659-10.566H8.608ZM22.7,0a3.134,3.134,0,0,1-.283-.947A3.415,3.415,0,0,1,19.751.2a3.752,3.752,0,0,1-2.573-.9,2.89,2.89,0,0,1-1.021-2.266A2.986,2.986,0,0,1,17.4-5.547,6.144,6.144,0,0,1,21-6.455h1.3v-.605a1.741,1.741,0,0,0-.376-1.172,1.479,1.479,0,0,0-1.187-.439,1.682,1.682,0,0,0-1.118.342,1.161,1.161,0,0,0-.405.938H16.392a2.835,2.835,0,0,1,.566-1.7,3.744,3.744,0,0,1,1.6-1.226,5.837,5.837,0,0,1,2.324-.444,4.611,4.611,0,0,1,3.1.981,3.433,3.433,0,0,1,1.147,2.759v4.58a5.052,5.052,0,0,0,.42,2.275V0ZM20.366-1.963a2.431,2.431,0,0,0,1.152-.278,1.828,1.828,0,0,0,.781-.747V-4.8H21.245q-2.119,0-2.256,1.465l-.01.166a1.13,1.13,0,0,0,.371.869A1.441,1.441,0,0,0,20.366-1.963Zm-70.991,19.6A6.368,6.368,0,0,1-49.517,13.7a3.6,3.6,0,0,1,3.032-1.465,3.236,3.236,0,0,1,2.549,1.152V8H-41.1V23h-2.549l-.137-1.123A3.321,3.321,0,0,1-46.5,23.2a3.587,3.587,0,0,1-2.993-1.47A6.573,6.573,0,0,1-50.625,17.639Zm2.822.2a4.194,4.194,0,0,0,.518,2.286,1.685,1.685,0,0,0,1.5.795,1.888,1.888,0,0,0,1.846-1.109V15.622a1.861,1.861,0,0,0-1.826-1.109Q-47.8,14.514-47.8,17.839Zm13.75,5.356a5.187,5.187,0,0,1-3.784-1.426,5.068,5.068,0,0,1-1.46-3.8V17.7a6.383,6.383,0,0,1,.615-2.847,4.515,4.515,0,0,1,1.743-1.934,4.893,4.893,0,0,1,2.573-.679,4.385,4.385,0,0,1,3.413,1.367,5.555,5.555,0,0,1,1.245,3.877v1.152h-6.729a2.622,2.622,0,0,0,.825,1.66,2.5,2.5,0,0,0,1.743.625,3.046,3.046,0,0,0,2.549-1.182l1.387,1.553a4.237,4.237,0,0,1-1.719,1.4A5.639,5.639,0,0,1-34.053,23.2Zm-.322-8.682a1.764,1.764,0,0,0-1.362.569,2.946,2.946,0,0,0-.669,1.628h3.926v-.226a2.1,2.1,0,0,0-.508-1.457A1.819,1.819,0,0,0-34.375,14.514Zm11.992,5.566a.909.909,0,0,0-.513-.815,5.824,5.824,0,0,0-1.646-.532q-3.77-.791-3.77-3.2a2.9,2.9,0,0,1,1.167-2.349,4.708,4.708,0,0,1,3.052-.942,5.067,5.067,0,0,1,3.218.947,2.985,2.985,0,0,1,1.206,2.461H-22.49a1.366,1.366,0,0,0-.391-1,1.653,1.653,0,0,0-1.221-.4,1.689,1.689,0,0,0-1.1.322,1.017,1.017,0,0,0-.391.82.87.87,0,0,0,.444.757,4.571,4.571,0,0,0,1.5.5,12.244,12.244,0,0,1,1.777.474,2.92,2.92,0,0,1,2.236,2.842,2.756,2.756,0,0,1-1.24,2.339,5.35,5.35,0,0,1-3.2.894,5.588,5.588,0,0,1-2.358-.474,3.957,3.957,0,0,1-1.616-1.3,3.018,3.018,0,0,1-.586-1.782h2.676a1.473,1.473,0,0,0,.557,1.152,2.208,2.208,0,0,0,1.387.4,2.044,2.044,0,0,0,1.226-.308A.957.957,0,0,0-22.383,20.08Zm14.072-2.266a6.337,6.337,0,0,1-1.108,3.911,3.554,3.554,0,0,1-2.993,1.47A3.292,3.292,0,0,1-15,22.082v4.98h-2.822V12.434h2.617l.1,1.035a3.317,3.317,0,0,1,2.676-1.23,3.578,3.578,0,0,1,3.037,1.445,6.509,6.509,0,0,1,1.084,3.984Zm-2.822-.215a4.182,4.182,0,0,0-.522-2.282,1.7,1.7,0,0,0-1.519-.8A1.847,1.847,0,0,0-15,15.532v4.339a1.879,1.879,0,0,0,1.846,1.048Q-11.133,20.92-11.133,17.6ZM-3.584,23H-6.416V8h2.832Zm8.447,0a3.134,3.134,0,0,1-.283-.947A3.415,3.415,0,0,1,1.914,23.2a3.752,3.752,0,0,1-2.573-.9A2.89,2.89,0,0,1-1.68,20.031,2.986,2.986,0,0,1-.435,17.453a6.144,6.144,0,0,1,3.6-.908h1.3v-.605a1.741,1.741,0,0,0-.376-1.172A1.479,1.479,0,0,0,2.9,14.328a1.682,1.682,0,0,0-1.118.342,1.161,1.161,0,0,0-.405.938H-1.445a2.835,2.835,0,0,1,.566-1.7,3.744,3.744,0,0,1,1.6-1.226,5.837,5.837,0,0,1,2.324-.444,4.611,4.611,0,0,1,3.1.981,3.433,3.433,0,0,1,1.147,2.759v4.58a5.052,5.052,0,0,0,.42,2.275V23ZM2.529,21.037a2.431,2.431,0,0,0,1.152-.278,1.828,1.828,0,0,0,.781-.747V18.2H3.408q-2.119,0-2.256,1.465l-.01.166a1.13,1.13,0,0,0,.371.869A1.441,1.441,0,0,0,2.529,21.037Zm10.176-.312h5.166V23H9.1V21.281l4.971-6.572H9.248V12.434h8.467V14.1ZM25.762,23a3.134,3.134,0,0,1-.283-.947A3.415,3.415,0,0,1,22.813,23.2a3.752,3.752,0,0,1-2.573-.9,2.89,2.89,0,0,1-1.021-2.266,2.986,2.986,0,0,1,1.245-2.578,6.144,6.144,0,0,1,3.6-.908h1.3v-.605a1.741,1.741,0,0,0-.376-1.172,1.479,1.479,0,0,0-1.187-.439,1.682,1.682,0,0,0-1.118.342,1.161,1.161,0,0,0-.405.938H19.453a2.835,2.835,0,0,1,.566-1.7,3.744,3.744,0,0,1,1.6-1.226,5.837,5.837,0,0,1,2.324-.444,4.611,4.611,0,0,1,3.1.981,3.433,3.433,0,0,1,1.147,2.759v4.58a5.052,5.052,0,0,0,.42,2.275V23Zm-2.334-1.963a2.431,2.431,0,0,0,1.152-.278,1.828,1.828,0,0,0,.781-.747V18.2H24.307q-2.119,0-2.256,1.465l-.01.166a1.13,1.13,0,0,0,.371.869A1.441,1.441,0,0,0,23.428,21.037Zm6.494-3.4A6.368,6.368,0,0,1,31.03,13.7a3.6,3.6,0,0,1,3.032-1.465,3.236,3.236,0,0,1,2.549,1.152V8h2.832V23H36.895l-.137-1.123A3.321,3.321,0,0,1,34.043,23.2a3.587,3.587,0,0,1-2.993-1.47A6.573,6.573,0,0,1,29.922,17.639Zm2.822.2a4.194,4.194,0,0,0,.518,2.286,1.685,1.685,0,0,0,1.5.795,1.888,1.888,0,0,0,1.846-1.109V15.622a1.861,1.861,0,0,0-1.826-1.109Q32.744,14.514,32.744,17.839ZM47.754,23a3.134,3.134,0,0,1-.283-.947A3.415,3.415,0,0,1,44.8,23.2a3.752,3.752,0,0,1-2.573-.9,2.89,2.89,0,0,1-1.021-2.266,2.986,2.986,0,0,1,1.245-2.578,6.144,6.144,0,0,1,3.6-.908h1.3v-.605a1.741,1.741,0,0,0-.376-1.172,1.479,1.479,0,0,0-1.187-.439,1.682,1.682,0,0,0-1.118.342,1.161,1.161,0,0,0-.405.938H41.445a2.835,2.835,0,0,1,.566-1.7,3.744,3.744,0,0,1,1.6-1.226,5.837,5.837,0,0,1,2.324-.444,4.611,4.611,0,0,1,3.1.981,3.433,3.433,0,0,1,1.147,2.759v4.58a5.052,5.052,0,0,0,.42,2.275V23ZM45.42,21.037a2.431,2.431,0,0,0,1.152-.278,1.828,1.828,0,0,0,.781-.747V18.2H46.3q-2.119,0-2.256,1.465l-.01.166a1.13,1.13,0,0,0,.371.869A1.441,1.441,0,0,0,45.42,21.037Z" transform="translate(474.415 771)" fill="#fff"/>
    <path id="Trazado_175249" data-name="Trazado 175249" d="M-27.314-4.736a5.031,5.031,0,0,1-1.694,3.613A5.951,5.951,0,0,1-33.037.2a5.351,5.351,0,0,1-4.3-1.841A7.548,7.548,0,0,1-38.906-6.7v-.869a8.523,8.523,0,0,1,.723-3.613,5.415,5.415,0,0,1,2.065-2.4A5.786,5.786,0,0,1-33-14.414,5.8,5.8,0,0,1-29.033-13.1a5.407,5.407,0,0,1,1.738,3.7h-2.93a2.97,2.97,0,0,0-.767-2A2.839,2.839,0,0,0-33-12.012a2.489,2.489,0,0,0-2.192,1.05,5.883,5.883,0,0,0-.747,3.257v1.074a6.3,6.3,0,0,0,.7,3.369,2.443,2.443,0,0,0,2.2,1.064,2.892,2.892,0,0,0,2.026-.62,2.8,2.8,0,0,0,.767-1.919Zm8.066,3.662A3.539,3.539,0,0,1-22.139.2a3.338,3.338,0,0,1-2.593-.977,4.169,4.169,0,0,1-.913-2.861v-6.924h2.822v6.834q0,1.652,1.5,1.652a2.038,2.038,0,0,0,1.973-1v-7.489h2.832V0H-19.17Zm10.8-6.846A7.667,7.667,0,0,0-9.463-8a2.067,2.067,0,0,0-2.1,1.084V0h-2.822V-10.566h2.666l.078,1.26a2.615,2.615,0,0,1,2.354-1.455,2.957,2.957,0,0,1,.879.127Zm5.488,4.473L-1-10.566H1.953L-1.611,0h-2.7L-7.871-10.566h2.949ZM9.17,0a3.134,3.134,0,0,1-.283-.947A3.415,3.415,0,0,1,6.221.2,3.752,3.752,0,0,1,3.647-.7,2.89,2.89,0,0,1,2.627-2.969,2.986,2.986,0,0,1,3.872-5.547a6.144,6.144,0,0,1,3.6-.908h1.3v-.605a1.741,1.741,0,0,0-.376-1.172,1.479,1.479,0,0,0-1.187-.439,1.682,1.682,0,0,0-1.118.342,1.161,1.161,0,0,0-.405.938H2.861a2.835,2.835,0,0,1,.566-1.7,3.744,3.744,0,0,1,1.6-1.226,5.837,5.837,0,0,1,2.324-.444,4.611,4.611,0,0,1,3.1.981A3.433,3.433,0,0,1,11.6-7.021v4.58a5.052,5.052,0,0,0,.42,2.275V0ZM6.836-1.963a2.431,2.431,0,0,0,1.152-.278,1.828,1.828,0,0,0,.781-.747V-4.8H7.715Q5.6-4.8,5.459-3.34l-.01.166A1.13,1.13,0,0,0,5.82-2.3,1.441,1.441,0,0,0,6.836-1.963Zm11.475-3.4A6.368,6.368,0,0,1,19.419-9.3a3.6,3.6,0,0,1,3.032-1.465A3.236,3.236,0,0,1,25-9.609V-15h2.832V0H25.283l-.137-1.123A3.321,3.321,0,0,1,22.432.2a3.587,3.587,0,0,1-2.993-1.47A6.573,6.573,0,0,1,18.311-5.361Zm2.822.2a4.194,4.194,0,0,0,.518,2.286,1.685,1.685,0,0,0,1.5.795A1.888,1.888,0,0,0,25-3.189V-7.378a1.861,1.861,0,0,0-1.826-1.109Q21.133-8.486,21.133-5.161ZM34.883.2A5.187,5.187,0,0,1,31.1-1.23a5.068,5.068,0,0,1-1.46-3.8V-5.3a6.383,6.383,0,0,1,.615-2.847A4.515,4.515,0,0,1,32-10.083a4.893,4.893,0,0,1,2.573-.679,4.385,4.385,0,0,1,3.413,1.367,5.555,5.555,0,0,1,1.245,3.877v1.152H32.5a2.622,2.622,0,0,0,.825,1.66,2.5,2.5,0,0,0,1.743.625,3.046,3.046,0,0,0,2.549-1.182L39-1.709a4.237,4.237,0,0,1-1.719,1.4A5.639,5.639,0,0,1,34.883.2Zm-.322-8.682a1.764,1.764,0,0,0-1.362.569,2.946,2.946,0,0,0-.669,1.628h3.926v-.226a2.1,2.1,0,0,0-.508-1.457A1.819,1.819,0,0,0,34.561-8.486Zm-54.98,26.3a6.337,6.337,0,0,1-1.108,3.911,3.554,3.554,0,0,1-2.993,1.47,3.292,3.292,0,0,1-2.588-1.113v4.98h-2.822V12.434h2.617l.1,1.035a3.317,3.317,0,0,1,2.676-1.23A3.578,3.578,0,0,1-21.5,13.684a6.509,6.509,0,0,1,1.084,3.984Zm-2.822-.215a4.182,4.182,0,0,0-.522-2.282,1.7,1.7,0,0,0-1.519-.8,1.847,1.847,0,0,0-1.826,1.019v4.339a1.879,1.879,0,0,0,1.846,1.048Q-23.242,20.92-23.242,17.6Zm10.9,4.326a3.539,3.539,0,0,1-2.891,1.27,3.338,3.338,0,0,1-2.593-.977,4.169,4.169,0,0,1-.913-2.861V12.434h2.822v6.834q0,1.652,1.5,1.652a2.038,2.038,0,0,0,1.973-1V12.434h2.832V23h-2.656Zm9.727,1.27A5.187,5.187,0,0,1-6.4,21.77a5.068,5.068,0,0,1-1.46-3.8V17.7a6.383,6.383,0,0,1,.615-2.847A4.515,4.515,0,0,1-5.5,12.917a4.893,4.893,0,0,1,2.573-.679A4.385,4.385,0,0,1,.483,13.605a5.555,5.555,0,0,1,1.245,3.877v1.152H-5a2.622,2.622,0,0,0,.825,1.66,2.5,2.5,0,0,0,1.743.625A3.046,3.046,0,0,0,.117,19.738L1.5,21.291a4.237,4.237,0,0,1-1.719,1.4A5.639,5.639,0,0,1-2.617,23.2Zm-.322-8.682a1.764,1.764,0,0,0-1.362.569,2.946,2.946,0,0,0-.669,1.628h3.926v-.226a2.1,2.1,0,0,0-.508-1.457A1.819,1.819,0,0,0-2.939,14.514Zm8.867-2.08.088,1.221a3.689,3.689,0,0,1,3.037-1.416,3.066,3.066,0,0,1,2.5.986,4.6,4.6,0,0,1,.84,2.949V23H9.57V16.227A1.838,1.838,0,0,0,9.18,14.92a1.746,1.746,0,0,0-1.3-.406,1.941,1.941,0,0,0-1.787,1.018V23H3.271V12.434Zm11.982-2.6v2.6h1.807V14.5H17.91v5.273a1.259,1.259,0,0,0,.225.84,1.128,1.128,0,0,0,.859.254,4.5,4.5,0,0,0,.83-.068v2.139a5.81,5.81,0,0,1-1.709.254q-2.969,0-3.027-3V14.5H13.545v-2.07h1.543v-2.6ZM26.152,23.2a5.187,5.187,0,0,1-3.784-1.426,5.068,5.068,0,0,1-1.46-3.8V17.7a6.383,6.383,0,0,1,.615-2.847,4.515,4.515,0,0,1,1.743-1.934,4.893,4.893,0,0,1,2.573-.679,4.385,4.385,0,0,1,3.413,1.367A5.555,5.555,0,0,1,30.5,17.482v1.152H23.77a2.622,2.622,0,0,0,.825,1.66,2.5,2.5,0,0,0,1.743.625,3.046,3.046,0,0,0,2.549-1.182l1.387,1.553a4.237,4.237,0,0,1-1.719,1.4A5.639,5.639,0,0,1,26.152,23.2Zm-.322-8.682a1.764,1.764,0,0,0-1.362.569,2.946,2.946,0,0,0-.669,1.628h3.926v-.226a2.1,2.1,0,0,0-.508-1.457A1.819,1.819,0,0,0,25.83,14.514Z" transform="translate(474.415 862)" fill="#fff"/>
    <path id="Trazado_175246" data-name="Trazado 175246" d="M-27.314-4.736a5.031,5.031,0,0,1-1.694,3.613A5.951,5.951,0,0,1-33.037.2a5.351,5.351,0,0,1-4.3-1.841A7.548,7.548,0,0,1-38.906-6.7v-.869a8.523,8.523,0,0,1,.723-3.613,5.415,5.415,0,0,1,2.065-2.4A5.786,5.786,0,0,1-33-14.414,5.8,5.8,0,0,1-29.033-13.1a5.407,5.407,0,0,1,1.738,3.7h-2.93a2.97,2.97,0,0,0-.767-2A2.839,2.839,0,0,0-33-12.012a2.489,2.489,0,0,0-2.192,1.05,5.883,5.883,0,0,0-.747,3.257v1.074a6.3,6.3,0,0,0,.7,3.369,2.443,2.443,0,0,0,2.2,1.064,2.892,2.892,0,0,0,2.026-.62,2.8,2.8,0,0,0,.767-1.919Zm8.066,3.662A3.539,3.539,0,0,1-22.139.2a3.338,3.338,0,0,1-2.593-.977,4.169,4.169,0,0,1-.913-2.861v-6.924h2.822v6.834q0,1.652,1.5,1.652a2.038,2.038,0,0,0,1.973-1v-7.489h2.832V0H-19.17Zm10.8-6.846A7.667,7.667,0,0,0-9.463-8a2.067,2.067,0,0,0-2.1,1.084V0h-2.822V-10.566h2.666l.078,1.26a2.615,2.615,0,0,1,2.354-1.455,2.957,2.957,0,0,1,.879.127Zm5.488,4.473L-1-10.566H1.953L-1.611,0h-2.7L-7.871-10.566h2.949ZM9.17,0a3.134,3.134,0,0,1-.283-.947A3.415,3.415,0,0,1,6.221.2,3.752,3.752,0,0,1,3.647-.7,2.89,2.89,0,0,1,2.627-2.969,2.986,2.986,0,0,1,3.872-5.547a6.144,6.144,0,0,1,3.6-.908h1.3v-.605a1.741,1.741,0,0,0-.376-1.172,1.479,1.479,0,0,0-1.187-.439,1.682,1.682,0,0,0-1.118.342,1.161,1.161,0,0,0-.405.938H2.861a2.835,2.835,0,0,1,.566-1.7,3.744,3.744,0,0,1,1.6-1.226,5.837,5.837,0,0,1,2.324-.444,4.611,4.611,0,0,1,3.1.981A3.433,3.433,0,0,1,11.6-7.021v4.58a5.052,5.052,0,0,0,.42,2.275V0ZM6.836-1.963a2.431,2.431,0,0,0,1.152-.278,1.828,1.828,0,0,0,.781-.747V-4.8H7.715Q5.6-4.8,5.459-3.34l-.01.166A1.13,1.13,0,0,0,5.82-2.3,1.441,1.441,0,0,0,6.836-1.963Zm11.475-3.4A6.368,6.368,0,0,1,19.419-9.3a3.6,3.6,0,0,1,3.032-1.465A3.236,3.236,0,0,1,25-9.609V-15h2.832V0H25.283l-.137-1.123A3.321,3.321,0,0,1,22.432.2a3.587,3.587,0,0,1-2.993-1.47A6.573,6.573,0,0,1,18.311-5.361Zm2.822.2a4.194,4.194,0,0,0,.518,2.286,1.685,1.685,0,0,0,1.5.795A1.888,1.888,0,0,0,25-3.189V-7.378a1.861,1.861,0,0,0-1.826-1.109Q21.133-8.486,21.133-5.161ZM34.883.2A5.187,5.187,0,0,1,31.1-1.23a5.068,5.068,0,0,1-1.46-3.8V-5.3a6.383,6.383,0,0,1,.615-2.847A4.515,4.515,0,0,1,32-10.083a4.893,4.893,0,0,1,2.573-.679,4.385,4.385,0,0,1,3.413,1.367,5.555,5.555,0,0,1,1.245,3.877v1.152H32.5a2.622,2.622,0,0,0,.825,1.66,2.5,2.5,0,0,0,1.743.625,3.046,3.046,0,0,0,2.549-1.182L39-1.709a4.237,4.237,0,0,1-1.719,1.4A5.639,5.639,0,0,1,34.883.2Zm-.322-8.682a1.764,1.764,0,0,0-1.362.569,2.946,2.946,0,0,0-.669,1.628h3.926v-.226a2.1,2.1,0,0,0-.508-1.457A1.819,1.819,0,0,0,34.561-8.486ZM-51.5,23h-2.832V12.434H-51.5Zm-3-13.3a1.39,1.39,0,0,1,.425-1.045,1.6,1.6,0,0,1,1.157-.41,1.6,1.6,0,0,1,1.152.41,1.382,1.382,0,0,1,.43,1.045,1.386,1.386,0,0,1-.435,1.055,1.6,1.6,0,0,1-1.147.41,1.6,1.6,0,0,1-1.147-.41A1.386,1.386,0,0,1-54.5,9.7Zm7.92,2.734.088,1.221a3.689,3.689,0,0,1,3.037-1.416,3.066,3.066,0,0,1,2.5.986,4.6,4.6,0,0,1,.84,2.949V23h-2.822V16.227a1.838,1.838,0,0,0-.391-1.307,1.746,1.746,0,0,0-1.3-.406,1.941,1.941,0,0,0-1.787,1.018V23h-2.822V12.434Zm11.982-2.6v2.6h1.807V14.5H-34.6v5.273a1.259,1.259,0,0,0,.225.84,1.128,1.128,0,0,0,.859.254,4.5,4.5,0,0,0,.83-.068v2.139a5.81,5.81,0,0,1-1.709.254q-2.969,0-3.027-3V14.5h-1.543v-2.07h1.543v-2.6ZM-26.357,23.2a5.187,5.187,0,0,1-3.784-1.426,5.068,5.068,0,0,1-1.46-3.8V17.7a6.383,6.383,0,0,1,.615-2.847,4.515,4.515,0,0,1,1.743-1.934,4.893,4.893,0,0,1,2.573-.679,4.385,4.385,0,0,1,3.413,1.367,5.555,5.555,0,0,1,1.245,3.877v1.152H-28.74a2.622,2.622,0,0,0,.825,1.66,2.5,2.5,0,0,0,1.743.625,3.046,3.046,0,0,0,2.549-1.182l1.387,1.553a4.237,4.237,0,0,1-1.719,1.4A5.639,5.639,0,0,1-26.357,23.2Zm-.322-8.682a1.764,1.764,0,0,0-1.362.569,2.946,2.946,0,0,0-.669,1.628h3.926v-.226a2.1,2.1,0,0,0-.508-1.457A1.819,1.819,0,0,0-26.68,14.514Zm12.207.566A7.667,7.667,0,0,0-15.488,15a2.067,2.067,0,0,0-2.1,1.084V23H-20.41V12.434h2.666l.078,1.26a2.615,2.615,0,0,1,2.354-1.455,2.957,2.957,0,0,1,.879.127Zm7.08,5a.909.909,0,0,0-.513-.815,5.824,5.824,0,0,0-1.646-.532q-3.77-.791-3.77-3.2a2.9,2.9,0,0,1,1.167-2.349A4.708,4.708,0,0,1-9.1,12.238a5.067,5.067,0,0,1,3.218.947,2.985,2.985,0,0,1,1.206,2.461H-7.5a1.366,1.366,0,0,0-.391-1,1.653,1.653,0,0,0-1.221-.4,1.689,1.689,0,0,0-1.1.322,1.017,1.017,0,0,0-.391.82.87.87,0,0,0,.444.757,4.571,4.571,0,0,0,1.5.5,12.244,12.244,0,0,1,1.777.474,2.92,2.92,0,0,1,2.236,2.842A2.756,2.756,0,0,1-5.889,22.3a5.35,5.35,0,0,1-3.2.894,5.588,5.588,0,0,1-2.358-.474,3.957,3.957,0,0,1-1.616-1.3,3.018,3.018,0,0,1-.586-1.782h2.676a1.473,1.473,0,0,0,.557,1.152,2.208,2.208,0,0,0,1.387.4,2.044,2.044,0,0,0,1.226-.308A.957.957,0,0,0-7.393,20.08ZM2.031,23.2A5.187,5.187,0,0,1-1.753,21.77a5.068,5.068,0,0,1-1.46-3.8V17.7A6.383,6.383,0,0,1-2.6,14.851,4.515,4.515,0,0,1-.854,12.917a4.893,4.893,0,0,1,2.573-.679,4.385,4.385,0,0,1,3.413,1.367,5.555,5.555,0,0,1,1.245,3.877v1.152H-.352a2.622,2.622,0,0,0,.825,1.66,2.5,2.5,0,0,0,1.743.625,3.046,3.046,0,0,0,2.549-1.182l1.387,1.553a4.237,4.237,0,0,1-1.719,1.4A5.639,5.639,0,0,1,2.031,23.2Zm-.322-8.682a1.764,1.764,0,0,0-1.362.569,2.946,2.946,0,0,0-.669,1.628H3.6v-.226A2.1,2.1,0,0,0,3.1,15.029,1.819,1.819,0,0,0,1.709,14.514ZM12.373,20.92a1.851,1.851,0,0,0,1.27-.43,1.506,1.506,0,0,0,.508-1.143H16.8a3.62,3.62,0,0,1-.586,1.968A3.866,3.866,0,0,1,14.634,22.7a4.936,4.936,0,0,1-2.212.493,4.587,4.587,0,0,1-3.574-1.44,5.7,5.7,0,0,1-1.309-3.979V17.59a5.635,5.635,0,0,1,1.3-3.9A4.534,4.534,0,0,1,12.4,12.238a4.444,4.444,0,0,1,3.179,1.128,3.994,3.994,0,0,1,1.216,3H14.15a1.939,1.939,0,0,0-.508-1.34,1.693,1.693,0,0,0-1.289-.515,1.7,1.7,0,0,0-1.489.719,4.166,4.166,0,0,0-.5,2.333v.293a4.219,4.219,0,0,0,.5,2.347A1.721,1.721,0,0,0,12.373,20.92Zm10.43,0a1.851,1.851,0,0,0,1.27-.43,1.506,1.506,0,0,0,.508-1.143h2.646a3.62,3.62,0,0,1-.586,1.968A3.866,3.866,0,0,1,25.063,22.7a4.936,4.936,0,0,1-2.212.493,4.587,4.587,0,0,1-3.574-1.44,5.7,5.7,0,0,1-1.309-3.979V17.59a5.635,5.635,0,0,1,1.3-3.9,4.534,4.534,0,0,1,3.564-1.455,4.444,4.444,0,0,1,3.179,1.128,3.994,3.994,0,0,1,1.216,3H24.58a1.939,1.939,0,0,0-.508-1.34,1.887,1.887,0,0,0-2.778.2,4.166,4.166,0,0,0-.5,2.333v.293a4.219,4.219,0,0,0,.5,2.347A1.721,1.721,0,0,0,22.8,20.92ZM31.816,23H28.984V12.434h2.832Zm-3-13.3a1.39,1.39,0,0,1,.425-1.045,1.831,1.831,0,0,1,2.31,0,1.491,1.491,0,0,1,0,2.1,1.81,1.81,0,0,1-2.295,0A1.386,1.386,0,0,1,28.818,9.7Zm4.883,7.92a6.267,6.267,0,0,1,.605-2.8,4.432,4.432,0,0,1,1.743-1.9,5.086,5.086,0,0,1,2.642-.674,4.812,4.812,0,0,1,3.491,1.309A5.252,5.252,0,0,1,43.691,17.1l.02.723a5.523,5.523,0,0,1-1.357,3.9,4.718,4.718,0,0,1-3.643,1.47,4.742,4.742,0,0,1-3.647-1.465A5.62,5.62,0,0,1,33.7,17.746Zm2.822.2a3.95,3.95,0,0,0,.566,2.3,2.035,2.035,0,0,0,3.223.01,4.322,4.322,0,0,0,.576-2.518,3.91,3.91,0,0,0-.576-2.289,1.873,1.873,0,0,0-1.621-.812,1.842,1.842,0,0,0-1.6.807A4.395,4.395,0,0,0,36.523,17.819ZM39.248,8h3.076l-2.705,3.027H37.324Zm8.8,4.434.088,1.221a3.689,3.689,0,0,1,3.037-1.416,3.066,3.066,0,0,1,2.5.986,4.6,4.6,0,0,1,.84,2.949V23H51.689V16.227A1.838,1.838,0,0,0,51.3,14.92a1.746,1.746,0,0,0-1.3-.406,1.941,1.941,0,0,0-1.787,1.018V23H45.391V12.434Z" transform="translate(691.972 771)" fill="#fff"/>
    <path id="Trazado_175250" data-name="Trazado 175250" d="M-13.784-4.736a5.031,5.031,0,0,1-1.694,3.613A5.951,5.951,0,0,1-19.507.2a5.351,5.351,0,0,1-4.3-1.841A7.548,7.548,0,0,1-25.376-6.7v-.869a8.523,8.523,0,0,1,.723-3.613,5.416,5.416,0,0,1,2.065-2.4,5.786,5.786,0,0,1,3.12-.835A5.8,5.8,0,0,1-15.5-13.1a5.407,5.407,0,0,1,1.738,3.7h-2.93a2.97,2.97,0,0,0-.767-2,2.839,2.839,0,0,0-2.007-.62,2.489,2.489,0,0,0-2.192,1.05,5.883,5.883,0,0,0-.747,3.257v1.074a6.3,6.3,0,0,0,.7,3.369,2.443,2.443,0,0,0,2.2,1.064,2.892,2.892,0,0,0,2.026-.62,2.8,2.8,0,0,0,.767-1.919Zm8.066,3.662A3.539,3.539,0,0,1-8.608.2,3.338,3.338,0,0,1-11.2-.781a4.169,4.169,0,0,1-.913-2.861v-6.924h2.822v6.834q0,1.652,1.5,1.652a2.038,2.038,0,0,0,1.973-1v-7.489h2.832V0H-5.64ZM5.083-7.92A7.667,7.667,0,0,0,4.067-8a2.067,2.067,0,0,0-2.1,1.084V0H-.854V-10.566H1.812l.078,1.26a2.615,2.615,0,0,1,2.354-1.455,2.957,2.957,0,0,1,.879.127Zm5.488,4.473,1.963-7.119h2.949L11.919,0h-2.7L5.659-10.566H8.608ZM22.7,0a3.134,3.134,0,0,1-.283-.947A3.415,3.415,0,0,1,19.751.2a3.752,3.752,0,0,1-2.573-.9,2.89,2.89,0,0,1-1.021-2.266A2.986,2.986,0,0,1,17.4-5.547,6.144,6.144,0,0,1,21-6.455h1.3v-.605a1.741,1.741,0,0,0-.376-1.172,1.479,1.479,0,0,0-1.187-.439,1.682,1.682,0,0,0-1.118.342,1.161,1.161,0,0,0-.405.938H16.392a2.835,2.835,0,0,1,.566-1.7,3.744,3.744,0,0,1,1.6-1.226,5.837,5.837,0,0,1,2.324-.444,4.611,4.611,0,0,1,3.1.981,3.433,3.433,0,0,1,1.147,2.759v4.58a5.052,5.052,0,0,0,.42,2.275V0ZM20.366-1.963a2.431,2.431,0,0,0,1.152-.278,1.828,1.828,0,0,0,.781-.747V-4.8H21.245q-2.119,0-2.256,1.465l-.01.166a1.13,1.13,0,0,0,.371.869A1.441,1.441,0,0,0,20.366-1.963ZM-44.561,20.92a1.851,1.851,0,0,0,1.27-.43,1.506,1.506,0,0,0,.508-1.143h2.646a3.62,3.62,0,0,1-.586,1.968A3.866,3.866,0,0,1-42.3,22.7a4.936,4.936,0,0,1-2.212.493,4.587,4.587,0,0,1-3.574-1.44,5.7,5.7,0,0,1-1.309-3.979V17.59a5.635,5.635,0,0,1,1.3-3.9,4.534,4.534,0,0,1,3.564-1.455,4.444,4.444,0,0,1,3.179,1.128,3.994,3.994,0,0,1,1.216,3h-2.646a1.939,1.939,0,0,0-.508-1.34,1.693,1.693,0,0,0-1.289-.515,1.7,1.7,0,0,0-1.489.719,4.166,4.166,0,0,0-.5,2.333v.293a4.219,4.219,0,0,0,.5,2.347A1.721,1.721,0,0,0-44.561,20.92Zm5.6-3.3a6.267,6.267,0,0,1,.605-2.8,4.432,4.432,0,0,1,1.743-1.9,5.086,5.086,0,0,1,2.642-.674,4.812,4.812,0,0,1,3.491,1.309A5.252,5.252,0,0,1-28.975,17.1l.02.723a5.523,5.523,0,0,1-1.357,3.9,4.718,4.718,0,0,1-3.643,1.47A4.742,4.742,0,0,1-37.6,21.73a5.62,5.62,0,0,1-1.362-3.984Zm2.822.2a3.95,3.95,0,0,0,.566,2.3,1.868,1.868,0,0,0,1.621.8,1.873,1.873,0,0,0,1.6-.787,4.322,4.322,0,0,0,.576-2.518,3.91,3.91,0,0,0-.576-2.289,1.873,1.873,0,0,0-1.621-.812,1.842,1.842,0,0,0-1.6.807A4.395,4.395,0,0,0-36.143,17.819Zm11.572-5.386.088,1.182a3.713,3.713,0,0,1,3.037-1.377,2.818,2.818,0,0,1,2.8,1.611,3.628,3.628,0,0,1,3.174-1.611,3.152,3.152,0,0,1,2.559,1,4.6,4.6,0,0,1,.84,3.013V23H-14.9V16.246a2.02,2.02,0,0,0-.352-1.316,1.556,1.556,0,0,0-1.24-.416,1.762,1.762,0,0,0-1.758,1.214l.01,7.273h-2.822V16.256a2,2,0,0,0-.361-1.331,1.571,1.571,0,0,0-1.23-.411,1.828,1.828,0,0,0-1.738,1V23h-2.822V12.434Zm24.18,5.381A6.337,6.337,0,0,1-1.5,21.726,3.554,3.554,0,0,1-4.492,23.2,3.292,3.292,0,0,1-7.08,22.082v4.98H-9.9V12.434h2.617l.1,1.035a3.317,3.317,0,0,1,2.676-1.23,3.578,3.578,0,0,1,3.037,1.445A6.509,6.509,0,0,1-.391,17.668ZM-3.213,17.6a4.182,4.182,0,0,0-.522-2.282,1.7,1.7,0,0,0-1.519-.8A1.847,1.847,0,0,0-7.08,15.532v4.339A1.879,1.879,0,0,0-5.234,20.92Q-3.213,20.92-3.213,17.6Zm10.9,4.326A3.539,3.539,0,0,1,4.795,23.2,3.338,3.338,0,0,1,2.2,22.219a4.169,4.169,0,0,1-.913-2.861V12.434H4.111v6.834q0,1.652,1.5,1.652a2.038,2.038,0,0,0,1.973-1V12.434H10.42V23H7.764Zm9.727,1.27a5.187,5.187,0,0,1-3.784-1.426,5.068,5.068,0,0,1-1.46-3.8V17.7a6.383,6.383,0,0,1,.615-2.847,4.515,4.515,0,0,1,1.743-1.934,4.893,4.893,0,0,1,2.573-.679,4.385,4.385,0,0,1,3.413,1.367,5.555,5.555,0,0,1,1.245,3.877v1.152H15.029a2.622,2.622,0,0,0,.825,1.66,2.5,2.5,0,0,0,1.743.625,3.046,3.046,0,0,0,2.549-1.182l1.387,1.553a4.237,4.237,0,0,1-1.719,1.4A5.639,5.639,0,0,1,17.412,23.2Zm-.322-8.682a1.764,1.764,0,0,0-1.362.569,2.946,2.946,0,0,0-.669,1.628h3.926v-.226a2.1,2.1,0,0,0-.508-1.457A1.819,1.819,0,0,0,17.09,14.514ZM29.082,20.08a.909.909,0,0,0-.513-.815,5.824,5.824,0,0,0-1.646-.532q-3.77-.791-3.77-3.2a2.9,2.9,0,0,1,1.167-2.349,4.708,4.708,0,0,1,3.052-.942,5.067,5.067,0,0,1,3.218.947A2.985,2.985,0,0,1,31.8,15.646H28.975a1.366,1.366,0,0,0-.391-1,1.653,1.653,0,0,0-1.221-.4,1.689,1.689,0,0,0-1.1.322,1.017,1.017,0,0,0-.391.82.87.87,0,0,0,.444.757,4.571,4.571,0,0,0,1.5.5,12.244,12.244,0,0,1,1.777.474,2.92,2.92,0,0,1,2.236,2.842,2.756,2.756,0,0,1-1.24,2.339,5.35,5.35,0,0,1-3.2.894,5.588,5.588,0,0,1-2.358-.474,3.957,3.957,0,0,1-1.616-1.3,3.018,3.018,0,0,1-.586-1.782H25.5a1.473,1.473,0,0,0,.557,1.152,2.208,2.208,0,0,0,1.387.4,2.044,2.044,0,0,0,1.226-.308A.957.957,0,0,0,29.082,20.08ZM37.021,9.836v2.6h1.807V14.5H37.021v5.273a1.259,1.259,0,0,0,.225.84,1.128,1.128,0,0,0,.859.254,4.5,4.5,0,0,0,.83-.068v2.139a5.81,5.81,0,0,1-1.709.254q-2.969,0-3.027-3V14.5H32.656v-2.07H34.2v-2.6ZM46.523,23a3.134,3.134,0,0,1-.283-.947A3.415,3.415,0,0,1,43.574,23.2,3.752,3.752,0,0,1,41,22.3a2.89,2.89,0,0,1-1.021-2.266,2.986,2.986,0,0,1,1.245-2.578,6.144,6.144,0,0,1,3.6-.908h1.3v-.605a1.741,1.741,0,0,0-.376-1.172,1.479,1.479,0,0,0-1.187-.439,1.682,1.682,0,0,0-1.118.342,1.161,1.161,0,0,0-.405.938H40.215a2.835,2.835,0,0,1,.566-1.7,3.744,3.744,0,0,1,1.6-1.226,5.837,5.837,0,0,1,2.324-.444,4.611,4.611,0,0,1,3.1.981,3.433,3.433,0,0,1,1.147,2.759v4.58a5.052,5.052,0,0,0,.42,2.275V23Zm-2.334-1.963a2.431,2.431,0,0,0,1.152-.278,1.828,1.828,0,0,0,.781-.747V18.2H45.068q-2.119,0-2.256,1.465l-.01.166a1.13,1.13,0,0,0,.371.869A1.441,1.441,0,0,0,44.189,21.037Z" transform="translate(691.972 862)" fill="#fff"/>
    <path id="Trazado_175247" data-name="Trazado 175247" d="M-62.9-4.736a5.031,5.031,0,0,1-1.694,3.613A5.951,5.951,0,0,1-68.623.2a5.351,5.351,0,0,1-4.3-1.841A7.548,7.548,0,0,1-74.492-6.7v-.869a8.523,8.523,0,0,1,.723-3.613,5.416,5.416,0,0,1,2.065-2.4,5.786,5.786,0,0,1,3.12-.835A5.8,5.8,0,0,1-64.619-13.1a5.407,5.407,0,0,1,1.738,3.7h-2.93a2.97,2.97,0,0,0-.767-2,2.839,2.839,0,0,0-2.007-.62,2.489,2.489,0,0,0-2.192,1.05,5.883,5.883,0,0,0-.747,3.257v1.074a6.3,6.3,0,0,0,.7,3.369,2.443,2.443,0,0,0,2.2,1.064,2.892,2.892,0,0,0,2.026-.62,2.8,2.8,0,0,0,.767-1.919Zm8.066,3.662A3.539,3.539,0,0,1-57.725.2a3.338,3.338,0,0,1-2.593-.977,4.169,4.169,0,0,1-.913-2.861v-6.924h2.822v6.834q0,1.652,1.5,1.652a2.038,2.038,0,0,0,1.973-1v-7.489H-52.1V0h-2.656Zm10.8-6.846A7.667,7.667,0,0,0-45.049-8a2.067,2.067,0,0,0-2.1,1.084V0h-2.822V-10.566H-47.3l.078,1.26a2.615,2.615,0,0,1,2.354-1.455,2.957,2.957,0,0,1,.879.127Zm5.488,4.473,1.963-7.119h2.949L-37.2,0h-2.7l-3.564-10.566h2.949ZM-26.416,0A3.134,3.134,0,0,1-26.7-.947,3.415,3.415,0,0,1-29.365.2a3.752,3.752,0,0,1-2.573-.9,2.89,2.89,0,0,1-1.021-2.266,2.986,2.986,0,0,1,1.245-2.578,6.144,6.144,0,0,1,3.6-.908h1.3v-.605a1.741,1.741,0,0,0-.376-1.172,1.479,1.479,0,0,0-1.187-.439A1.682,1.682,0,0,0-29.5-8.33a1.161,1.161,0,0,0-.405.938h-2.822a2.835,2.835,0,0,1,.566-1.7,3.744,3.744,0,0,1,1.6-1.226,5.837,5.837,0,0,1,2.324-.444,4.611,4.611,0,0,1,3.1.981,3.433,3.433,0,0,1,1.147,2.759v4.58a5.052,5.052,0,0,0,.42,2.275V0ZM-28.75-1.963A2.431,2.431,0,0,0-27.6-2.241a1.828,1.828,0,0,0,.781-.747V-4.8h-1.055q-2.119,0-2.256,1.465l-.01.166a1.13,1.13,0,0,0,.371.869A1.441,1.441,0,0,0-28.75-1.963Zm11.475-3.4A6.368,6.368,0,0,1-16.167-9.3a3.6,3.6,0,0,1,3.032-1.465,3.236,3.236,0,0,1,2.549,1.152V-15h2.832V0H-10.3l-.137-1.123A3.321,3.321,0,0,1-13.154.2a3.587,3.587,0,0,1-2.993-1.47A6.573,6.573,0,0,1-17.275-5.361Zm2.822.2a4.194,4.194,0,0,0,.518,2.286,1.685,1.685,0,0,0,1.5.795,1.888,1.888,0,0,0,1.846-1.109V-7.378a1.861,1.861,0,0,0-1.826-1.109Q-14.453-8.486-14.453-5.161ZM-.7.2A5.187,5.187,0,0,1-4.487-1.23a5.068,5.068,0,0,1-1.46-3.8V-5.3a6.383,6.383,0,0,1,.615-2.847,4.515,4.515,0,0,1,1.743-1.934,4.893,4.893,0,0,1,2.573-.679A4.385,4.385,0,0,1,2.4-9.395,5.555,5.555,0,0,1,3.643-5.518v1.152H-3.086a2.622,2.622,0,0,0,.825,1.66A2.5,2.5,0,0,0-.518-2.08,3.046,3.046,0,0,0,2.031-3.262L3.418-1.709A4.237,4.237,0,0,1,1.7-.308,5.639,5.639,0,0,1-.7.2Zm-.322-8.682a1.764,1.764,0,0,0-1.362.569,2.946,2.946,0,0,0-.669,1.628H.869v-.226A2.1,2.1,0,0,0,.361-7.971,1.819,1.819,0,0,0-1.025-8.486ZM10.967-2.92a.909.909,0,0,0-.513-.815,5.824,5.824,0,0,0-1.646-.532q-3.77-.791-3.77-3.2A2.9,2.9,0,0,1,6.206-9.819a4.708,4.708,0,0,1,3.052-.942,5.067,5.067,0,0,1,3.218.947,2.985,2.985,0,0,1,1.206,2.461H10.859a1.366,1.366,0,0,0-.391-1,1.653,1.653,0,0,0-1.221-.4,1.689,1.689,0,0,0-1.1.322,1.017,1.017,0,0,0-.391.82.87.87,0,0,0,.444.757,4.571,4.571,0,0,0,1.5.5,12.244,12.244,0,0,1,1.777.474,2.92,2.92,0,0,1,2.236,2.842A2.756,2.756,0,0,1,12.471-.7,5.35,5.35,0,0,1,9.268.2,5.588,5.588,0,0,1,6.909-.278a3.957,3.957,0,0,1-1.616-1.3,3.018,3.018,0,0,1-.586-1.782H7.383a1.473,1.473,0,0,0,.557,1.152,2.208,2.208,0,0,0,1.387.4,2.044,2.044,0,0,0,1.226-.308A.957.957,0,0,0,10.967-2.92ZM16.3,0V-8.5H14.727v-2.07H16.3v-.9a3.648,3.648,0,0,1,1.021-2.759,3.952,3.952,0,0,1,2.856-.981,6.652,6.652,0,0,1,1.436.194l-.029,2.17a3.6,3.6,0,0,0-.859-.088q-1.592,0-1.592,1.507v.857h2.1V-8.5h-2.1V0Zm12.52,0a3.134,3.134,0,0,1-.283-.947A3.415,3.415,0,0,1,25.869.2,3.752,3.752,0,0,1,23.3-.7a2.89,2.89,0,0,1-1.021-2.266,2.986,2.986,0,0,1,1.245-2.578,6.144,6.144,0,0,1,3.6-.908h1.3v-.605a1.741,1.741,0,0,0-.376-1.172,1.479,1.479,0,0,0-1.187-.439,1.682,1.682,0,0,0-1.118.342,1.161,1.161,0,0,0-.405.938H22.51a2.835,2.835,0,0,1,.566-1.7,3.744,3.744,0,0,1,1.6-1.226A5.837,5.837,0,0,1,27-10.762a4.611,4.611,0,0,1,3.1.981A3.433,3.433,0,0,1,31.25-7.021v4.58a5.052,5.052,0,0,0,.42,2.275V0ZM26.484-1.963a2.431,2.431,0,0,0,1.152-.278,1.828,1.828,0,0,0,.781-.747V-4.8H27.363q-2.119,0-2.256,1.465l-.01.166a1.13,1.13,0,0,0,.371.869A1.441,1.441,0,0,0,26.484-1.963ZM39.141-2.92a.909.909,0,0,0-.513-.815,5.824,5.824,0,0,0-1.646-.532q-3.77-.791-3.77-3.2A2.9,2.9,0,0,1,34.38-9.819a4.708,4.708,0,0,1,3.052-.942,5.067,5.067,0,0,1,3.218.947,2.985,2.985,0,0,1,1.206,2.461H39.033a1.366,1.366,0,0,0-.391-1,1.653,1.653,0,0,0-1.221-.4,1.689,1.689,0,0,0-1.1.322,1.017,1.017,0,0,0-.391.82.87.87,0,0,0,.444.757,4.571,4.571,0,0,0,1.5.5,12.244,12.244,0,0,1,1.777.474,2.92,2.92,0,0,1,2.236,2.842A2.756,2.756,0,0,1,40.645-.7a5.35,5.35,0,0,1-3.2.894,5.588,5.588,0,0,1-2.358-.474,3.957,3.957,0,0,1-1.616-1.3,3.018,3.018,0,0,1-.586-1.782h2.676a1.473,1.473,0,0,0,.557,1.152,2.208,2.208,0,0,0,1.387.4,2.044,2.044,0,0,0,1.226-.308A.957.957,0,0,0,39.141-2.92ZM49.824,0a3.134,3.134,0,0,1-.283-.947A3.415,3.415,0,0,1,46.875.2,3.752,3.752,0,0,1,44.3-.7a2.89,2.89,0,0,1-1.021-2.266,2.986,2.986,0,0,1,1.245-2.578,6.144,6.144,0,0,1,3.6-.908h1.3v-.605a1.741,1.741,0,0,0-.376-1.172,1.479,1.479,0,0,0-1.187-.439,1.682,1.682,0,0,0-1.118.342,1.161,1.161,0,0,0-.405.938H43.516a2.835,2.835,0,0,1,.566-1.7,3.744,3.744,0,0,1,1.6-1.226,5.837,5.837,0,0,1,2.324-.444,4.611,4.611,0,0,1,3.1.981,3.433,3.433,0,0,1,1.147,2.759v4.58a5.052,5.052,0,0,0,.42,2.275V0ZM47.49-1.963a2.431,2.431,0,0,0,1.152-.278,1.828,1.828,0,0,0,.781-.747V-4.8H48.369q-2.119,0-2.256,1.465l-.01.166a1.13,1.13,0,0,0,.371.869A1.441,1.441,0,0,0,47.49-1.963Zm6.494-3.4A6.368,6.368,0,0,1,55.093-9.3a3.6,3.6,0,0,1,3.032-1.465,3.236,3.236,0,0,1,2.549,1.152V-15h2.832V0H60.957L60.82-1.123A3.321,3.321,0,0,1,58.105.2a3.587,3.587,0,0,1-2.993-1.47A6.573,6.573,0,0,1,53.984-5.361Zm2.822.2a4.194,4.194,0,0,0,.518,2.286,1.685,1.685,0,0,0,1.5.795,1.888,1.888,0,0,0,1.846-1.109V-7.378a1.861,1.861,0,0,0-1.826-1.109Q56.807-8.486,56.807-5.161ZM71.816,0a3.134,3.134,0,0,1-.283-.947A3.415,3.415,0,0,1,68.867.2a3.752,3.752,0,0,1-2.573-.9,2.89,2.89,0,0,1-1.021-2.266,2.986,2.986,0,0,1,1.245-2.578,6.144,6.144,0,0,1,3.6-.908h1.3v-.605a1.741,1.741,0,0,0-.376-1.172,1.479,1.479,0,0,0-1.187-.439,1.682,1.682,0,0,0-1.118.342,1.161,1.161,0,0,0-.405.938H65.508a2.835,2.835,0,0,1,.566-1.7,3.744,3.744,0,0,1,1.6-1.226A5.837,5.837,0,0,1,70-10.762a4.611,4.611,0,0,1,3.1.981,3.433,3.433,0,0,1,1.147,2.759v4.58a5.052,5.052,0,0,0,.42,2.275V0ZM69.482-1.963a2.431,2.431,0,0,0,1.152-.278,1.828,1.828,0,0,0,.781-.747V-4.8H70.361q-2.119,0-2.256,1.465l-.01.166a1.13,1.13,0,0,0,.371.869A1.441,1.441,0,0,0,69.482-1.963ZM-37.49,23.2a5.187,5.187,0,0,1-3.784-1.426,5.068,5.068,0,0,1-1.46-3.8V17.7a6.383,6.383,0,0,1,.615-2.847,4.515,4.515,0,0,1,1.743-1.934,4.893,4.893,0,0,1,2.573-.679,4.385,4.385,0,0,1,3.413,1.367,5.555,5.555,0,0,1,1.245,3.877v1.152h-6.729a2.622,2.622,0,0,0,.825,1.66,2.5,2.5,0,0,0,1.743.625,3.046,3.046,0,0,0,2.549-1.182l1.387,1.553a4.237,4.237,0,0,1-1.719,1.4A5.639,5.639,0,0,1-37.49,23.2Zm-.322-8.682a1.764,1.764,0,0,0-1.362.569,2.946,2.946,0,0,0-.669,1.628h3.926v-.226a2.1,2.1,0,0,0-.508-1.457A1.819,1.819,0,0,0-37.812,14.514Zm8.867-2.08.088,1.221a3.689,3.689,0,0,1,3.037-1.416,3.066,3.066,0,0,1,2.5.986,4.6,4.6,0,0,1,.84,2.949V23H-25.3V16.227a1.838,1.838,0,0,0-.391-1.307,1.746,1.746,0,0,0-1.3-.406,1.941,1.941,0,0,0-1.787,1.018V23H-31.6V12.434ZM-12.383,23h-2.832V8h2.832Zm8.447,0a3.134,3.134,0,0,1-.283-.947A3.415,3.415,0,0,1-6.885,23.2a3.752,3.752,0,0,1-2.573-.9,2.89,2.89,0,0,1-1.021-2.266,2.986,2.986,0,0,1,1.245-2.578,6.144,6.144,0,0,1,3.6-.908h1.3v-.605a1.741,1.741,0,0,0-.376-1.172A1.479,1.479,0,0,0-5.9,14.328a1.682,1.682,0,0,0-1.118.342,1.161,1.161,0,0,0-.405.938h-2.822a2.835,2.835,0,0,1,.566-1.7,3.744,3.744,0,0,1,1.6-1.226,5.837,5.837,0,0,1,2.324-.444,4.611,4.611,0,0,1,3.1.981A3.433,3.433,0,0,1-1.5,15.979v4.58a5.052,5.052,0,0,0,.42,2.275V23ZM-6.27,21.037a2.431,2.431,0,0,0,1.152-.278,1.828,1.828,0,0,0,.781-.747V18.2H-5.391q-2.119,0-2.256,1.465l-.01.166a1.13,1.13,0,0,0,.371.869A1.441,1.441,0,0,0-6.27,21.037Zm16.309-.117a1.851,1.851,0,0,0,1.27-.43,1.506,1.506,0,0,0,.508-1.143h2.646a3.62,3.62,0,0,1-.586,1.968A3.866,3.866,0,0,1,12.3,22.7a4.936,4.936,0,0,1-2.212.493,4.587,4.587,0,0,1-3.574-1.44,5.7,5.7,0,0,1-1.309-3.979V17.59a5.635,5.635,0,0,1,1.3-3.9,4.534,4.534,0,0,1,3.564-1.455,4.444,4.444,0,0,1,3.179,1.128,3.994,3.994,0,0,1,1.216,3H11.816a1.939,1.939,0,0,0-.508-1.34,1.693,1.693,0,0,0-1.289-.515,1.7,1.7,0,0,0-1.489.719,4.166,4.166,0,0,0-.5,2.333v.293a4.219,4.219,0,0,0,.5,2.347A1.721,1.721,0,0,0,10.039,20.92ZM22.2,23a3.134,3.134,0,0,1-.283-.947A3.415,3.415,0,0,1,19.248,23.2a3.752,3.752,0,0,1-2.573-.9,2.89,2.89,0,0,1-1.021-2.266A2.986,2.986,0,0,1,16.9,17.453a6.144,6.144,0,0,1,3.6-.908h1.3v-.605a1.741,1.741,0,0,0-.376-1.172,1.479,1.479,0,0,0-1.187-.439,1.682,1.682,0,0,0-1.118.342,1.161,1.161,0,0,0-.405.938H15.889a2.835,2.835,0,0,1,.566-1.7,3.744,3.744,0,0,1,1.6-1.226,5.837,5.837,0,0,1,2.324-.444,4.611,4.611,0,0,1,3.1.981,3.433,3.433,0,0,1,1.147,2.759v4.58a5.052,5.052,0,0,0,.42,2.275V23Zm-2.334-1.963a2.431,2.431,0,0,0,1.152-.278,1.828,1.828,0,0,0,.781-.747V18.2H20.742q-2.119,0-2.256,1.465l-.01.166a1.13,1.13,0,0,0,.371.869A1.441,1.441,0,0,0,19.863,21.037ZM32.734,15.08A7.667,7.667,0,0,0,31.719,15a2.067,2.067,0,0,0-2.1,1.084V23H26.8V12.434h2.666l.078,1.26a2.615,2.615,0,0,1,2.354-1.455,2.957,2.957,0,0,1,.879.127ZM39.922,23a3.134,3.134,0,0,1-.283-.947A3.415,3.415,0,0,1,36.973,23.2a3.752,3.752,0,0,1-2.573-.9,2.89,2.89,0,0,1-1.021-2.266,2.986,2.986,0,0,1,1.245-2.578,6.144,6.144,0,0,1,3.6-.908h1.3v-.605a1.741,1.741,0,0,0-.376-1.172,1.479,1.479,0,0,0-1.187-.439,1.682,1.682,0,0,0-1.118.342,1.161,1.161,0,0,0-.405.938H33.613a2.835,2.835,0,0,1,.566-1.7,3.744,3.744,0,0,1,1.6-1.226,5.837,5.837,0,0,1,2.324-.444,4.611,4.611,0,0,1,3.1.981,3.433,3.433,0,0,1,1.147,2.759v4.58a5.052,5.052,0,0,0,.42,2.275V23Zm-2.334-1.963a2.431,2.431,0,0,0,1.152-.278,1.828,1.828,0,0,0,.781-.747V18.2H38.467q-2.119,0-2.256,1.465l-.01.166a1.13,1.13,0,0,0,.371.869A1.441,1.441,0,0,0,37.588,21.037Z" transform="translate(909.028 771)" fill="#fff"/>
    <path id="Trazado_175251" data-name="Trazado 175251" d="M-13.784-4.736a5.031,5.031,0,0,1-1.694,3.613A5.951,5.951,0,0,1-19.507.2a5.351,5.351,0,0,1-4.3-1.841A7.548,7.548,0,0,1-25.376-6.7v-.869a8.523,8.523,0,0,1,.723-3.613,5.416,5.416,0,0,1,2.065-2.4,5.786,5.786,0,0,1,3.12-.835A5.8,5.8,0,0,1-15.5-13.1a5.407,5.407,0,0,1,1.738,3.7h-2.93a2.97,2.97,0,0,0-.767-2,2.839,2.839,0,0,0-2.007-.62,2.489,2.489,0,0,0-2.192,1.05,5.883,5.883,0,0,0-.747,3.257v1.074a6.3,6.3,0,0,0,.7,3.369,2.443,2.443,0,0,0,2.2,1.064,2.892,2.892,0,0,0,2.026-.62,2.8,2.8,0,0,0,.767-1.919Zm8.066,3.662A3.539,3.539,0,0,1-8.608.2,3.338,3.338,0,0,1-11.2-.781a4.169,4.169,0,0,1-.913-2.861v-6.924h2.822v6.834q0,1.652,1.5,1.652a2.038,2.038,0,0,0,1.973-1v-7.489h2.832V0H-5.64ZM5.083-7.92A7.667,7.667,0,0,0,4.067-8a2.067,2.067,0,0,0-2.1,1.084V0H-.854V-10.566H1.812l.078,1.26a2.615,2.615,0,0,1,2.354-1.455,2.957,2.957,0,0,1,.879.127Zm5.488,4.473,1.963-7.119h2.949L11.919,0h-2.7L5.659-10.566H8.608ZM22.7,0a3.134,3.134,0,0,1-.283-.947A3.415,3.415,0,0,1,19.751.2a3.752,3.752,0,0,1-2.573-.9,2.89,2.89,0,0,1-1.021-2.266A2.986,2.986,0,0,1,17.4-5.547,6.144,6.144,0,0,1,21-6.455h1.3v-.605a1.741,1.741,0,0,0-.376-1.172,1.479,1.479,0,0,0-1.187-.439,1.682,1.682,0,0,0-1.118.342,1.161,1.161,0,0,0-.405.938H16.392a2.835,2.835,0,0,1,.566-1.7,3.744,3.744,0,0,1,1.6-1.226,5.837,5.837,0,0,1,2.324-.444,4.611,4.611,0,0,1,3.1.981,3.433,3.433,0,0,1,1.147,2.759v4.58a5.052,5.052,0,0,0,.42,2.275V0ZM20.366-1.963a2.431,2.431,0,0,0,1.152-.278,1.828,1.828,0,0,0,.781-.747V-4.8H21.245q-2.119,0-2.256,1.465l-.01.166a1.13,1.13,0,0,0,.371.869A1.441,1.441,0,0,0,20.366-1.963ZM-44.287,20.92a1.851,1.851,0,0,0,1.27-.43,1.506,1.506,0,0,0,.508-1.143h2.646a3.62,3.62,0,0,1-.586,1.968A3.866,3.866,0,0,1-42.026,22.7a4.936,4.936,0,0,1-2.212.493,4.587,4.587,0,0,1-3.574-1.44,5.7,5.7,0,0,1-1.309-3.979V17.59a5.635,5.635,0,0,1,1.3-3.9,4.534,4.534,0,0,1,3.564-1.455,4.444,4.444,0,0,1,3.179,1.128,3.994,3.994,0,0,1,1.216,3H-42.51a1.939,1.939,0,0,0-.508-1.34,1.693,1.693,0,0,0-1.289-.515,1.7,1.7,0,0,0-1.489.719,4.166,4.166,0,0,0-.5,2.333v.293a4.219,4.219,0,0,0,.5,2.347A1.721,1.721,0,0,0-44.287,20.92Zm5.6-3.3a6.267,6.267,0,0,1,.605-2.8,4.432,4.432,0,0,1,1.743-1.9,5.086,5.086,0,0,1,2.642-.674,4.812,4.812,0,0,1,3.491,1.309A5.252,5.252,0,0,1-28.7,17.1l.02.723a5.523,5.523,0,0,1-1.357,3.9,4.718,4.718,0,0,1-3.643,1.47,4.742,4.742,0,0,1-3.647-1.465,5.62,5.62,0,0,1-1.362-3.984Zm2.822.2a3.95,3.95,0,0,0,.566,2.3,1.868,1.868,0,0,0,1.621.8,1.873,1.873,0,0,0,1.6-.787,4.322,4.322,0,0,0,.576-2.518,3.91,3.91,0,0,0-.576-2.289,1.873,1.873,0,0,0-1.621-.812,1.842,1.842,0,0,0-1.6.807A4.395,4.395,0,0,0-35.869,17.819ZM-24.3,12.434l.088,1.182a3.713,3.713,0,0,1,3.037-1.377,2.818,2.818,0,0,1,2.8,1.611A3.628,3.628,0,0,1-15.2,12.238a3.152,3.152,0,0,1,2.559,1,4.6,4.6,0,0,1,.84,3.013V23h-2.832V16.246a2.02,2.02,0,0,0-.352-1.316,1.556,1.556,0,0,0-1.24-.416,1.762,1.762,0,0,0-1.758,1.214l.01,7.273h-2.822V16.256a2,2,0,0,0-.361-1.331,1.571,1.571,0,0,0-1.23-.411,1.828,1.828,0,0,0-1.738,1V23h-2.822V12.434ZM-.107,17.814a6.4,6.4,0,0,1-1.084,3.96A3.591,3.591,0,0,1-4.219,23.2a3.3,3.3,0,0,1-2.744-1.318L-7.09,23H-9.629V8h2.822v5.381a3.214,3.214,0,0,1,2.568-1.143,3.62,3.62,0,0,1,3.032,1.421,6.408,6.408,0,0,1,1.1,4ZM-2.93,17.6a4.227,4.227,0,0,0-.508-2.346,1.715,1.715,0,0,0-1.514-.74,1.861,1.861,0,0,0-1.855,1.107V19.8A1.886,1.886,0,0,0-4.932,20.92a1.743,1.743,0,0,0,1.8-1.352A6.993,6.993,0,0,0-2.93,17.6ZM4.609,23H1.777V12.434H4.609Zm-3-13.3a1.39,1.39,0,0,1,.425-1.045,1.6,1.6,0,0,1,1.157-.41,1.6,1.6,0,0,1,1.152.41,1.491,1.491,0,0,1,0,2.1,1.6,1.6,0,0,1-1.147.41,1.6,1.6,0,0,1-1.147-.41A1.386,1.386,0,0,1,1.611,9.7Zm7.92,2.734.088,1.221a3.689,3.689,0,0,1,3.037-1.416,3.066,3.066,0,0,1,2.5.986A4.6,4.6,0,0,1,16,16.174V23H13.174V16.227a1.838,1.838,0,0,0-.391-1.307,1.746,1.746,0,0,0-1.3-.406A1.941,1.941,0,0,0,9.7,15.532V23H6.875V12.434ZM24.258,23a3.134,3.134,0,0,1-.283-.947A3.415,3.415,0,0,1,21.309,23.2a3.752,3.752,0,0,1-2.573-.9,2.89,2.89,0,0,1-1.021-2.266,2.986,2.986,0,0,1,1.245-2.578,6.144,6.144,0,0,1,3.6-.908h1.3v-.605a1.741,1.741,0,0,0-.376-1.172,1.479,1.479,0,0,0-1.187-.439,1.682,1.682,0,0,0-1.118.342,1.161,1.161,0,0,0-.405.938H17.949a2.835,2.835,0,0,1,.566-1.7,3.744,3.744,0,0,1,1.6-1.226,5.837,5.837,0,0,1,2.324-.444,4.611,4.611,0,0,1,3.1.981,3.433,3.433,0,0,1,1.147,2.759v4.58a5.052,5.052,0,0,0,.42,2.275V23Zm-2.334-1.963a2.431,2.431,0,0,0,1.152-.278,1.828,1.828,0,0,0,.781-.747V18.2H22.8q-2.119,0-2.256,1.465l-.01.166a1.13,1.13,0,0,0,.371.869A1.441,1.441,0,0,0,21.924,21.037Zm6.494-3.4A6.368,6.368,0,0,1,29.526,13.7a3.6,3.6,0,0,1,3.032-1.465,3.236,3.236,0,0,1,2.549,1.152V8h2.832V23H35.391l-.137-1.123A3.321,3.321,0,0,1,32.539,23.2a3.587,3.587,0,0,1-2.993-1.47A6.573,6.573,0,0,1,28.418,17.639Zm2.822.2a4.194,4.194,0,0,0,.518,2.286,1.685,1.685,0,0,0,1.5.795,1.888,1.888,0,0,0,1.846-1.109V15.622a1.861,1.861,0,0,0-1.826-1.109Q31.24,14.514,31.24,17.839ZM46.25,23a3.134,3.134,0,0,1-.283-.947A3.415,3.415,0,0,1,43.3,23.2a3.752,3.752,0,0,1-2.573-.9,2.89,2.89,0,0,1-1.021-2.266,2.986,2.986,0,0,1,1.245-2.578,6.144,6.144,0,0,1,3.6-.908h1.3v-.605a1.741,1.741,0,0,0-.376-1.172,1.479,1.479,0,0,0-1.187-.439,1.682,1.682,0,0,0-1.118.342,1.161,1.161,0,0,0-.405.938H39.941a2.835,2.835,0,0,1,.566-1.7,3.744,3.744,0,0,1,1.6-1.226,5.837,5.837,0,0,1,2.324-.444,4.611,4.611,0,0,1,3.1.981,3.433,3.433,0,0,1,1.147,2.759v4.58a5.052,5.052,0,0,0,.42,2.275V23Zm-2.334-1.963a2.431,2.431,0,0,0,1.152-.278,1.828,1.828,0,0,0,.781-.747V18.2H44.795q-2.119,0-2.256,1.465l-.01.166a1.13,1.13,0,0,0,.371.869A1.441,1.441,0,0,0,43.916,21.037Z" transform="translate(909.028 862)" fill="#fff"/>
    <path id="Trazado_175248" data-name="Trazado 175248" d="M-39.268-5.01V0H-42.2V-14.219h5.547a6.417,6.417,0,0,1,2.817.586,4.318,4.318,0,0,1,1.87,1.665,4.643,4.643,0,0,1,.654,2.456,4.083,4.083,0,0,1-1.431,3.3A5.959,5.959,0,0,1-36.7-5.01Zm0-2.373h2.617a2.573,2.573,0,0,0,1.772-.547,1.989,1.989,0,0,0,.61-1.562,2.345,2.345,0,0,0-.615-1.689,2.3,2.3,0,0,0-1.7-.664h-2.686Zm15.723-.537A7.667,7.667,0,0,0-24.561-8a2.067,2.067,0,0,0-2.1,1.084V0h-2.822V-10.566h2.666l.078,1.26a2.615,2.615,0,0,1,2.354-1.455,2.957,2.957,0,0,1,.879.127Zm.566,2.539a6.266,6.266,0,0,1,.605-2.8,4.432,4.432,0,0,1,1.743-1.9,5.086,5.086,0,0,1,2.642-.674A4.812,4.812,0,0,1-14.5-9.453,5.252,5.252,0,0,1-12.988-5.9l.02.723a5.523,5.523,0,0,1-1.357,3.9A4.718,4.718,0,0,1-17.969.2,4.742,4.742,0,0,1-21.616-1.27a5.62,5.62,0,0,1-1.362-3.984Zm2.822.2a3.95,3.95,0,0,0,.566,2.3,1.868,1.868,0,0,0,1.621.8,1.873,1.873,0,0,0,1.6-.787,4.322,4.322,0,0,0,.576-2.518,3.91,3.91,0,0,0-.576-2.289,1.873,1.873,0,0,0-1.621-.812,1.842,1.842,0,0,0-1.6.807A4.395,4.395,0,0,0-20.156-5.181ZM-7.432-3.994l1.953-6.572h3.027L-6.7,1.641l-.234.557a3.221,3.221,0,0,1-3.125,2.07,4.441,4.441,0,0,1-1.25-.186V1.943l.43.01a2.322,2.322,0,0,0,1.2-.244A1.6,1.6,0,0,0-9.062.9L-8.73.029l-3.7-10.6h3.037ZM3.4.2A5.187,5.187,0,0,1-.386-1.23a5.068,5.068,0,0,1-1.46-3.8V-5.3A6.383,6.383,0,0,1-1.23-8.149,4.515,4.515,0,0,1,.513-10.083a4.893,4.893,0,0,1,2.573-.679A4.385,4.385,0,0,1,6.5-9.395,5.555,5.555,0,0,1,7.744-5.518v1.152H1.016a2.622,2.622,0,0,0,.825,1.66,2.5,2.5,0,0,0,1.743.625A3.046,3.046,0,0,0,6.133-3.262L7.52-1.709A4.237,4.237,0,0,1,5.8-.308,5.639,5.639,0,0,1,3.4.2ZM3.076-8.486a1.764,1.764,0,0,0-1.362.569,2.946,2.946,0,0,0-.669,1.628H4.971v-.226a2.1,2.1,0,0,0-.508-1.457A1.819,1.819,0,0,0,3.076-8.486ZM13.74-2.08a1.851,1.851,0,0,0,1.27-.43,1.506,1.506,0,0,0,.508-1.143h2.646a3.62,3.62,0,0,1-.586,1.968A3.866,3.866,0,0,1,16-.3,4.936,4.936,0,0,1,13.789.2a4.587,4.587,0,0,1-3.574-1.44A5.7,5.7,0,0,1,8.906-5.225V-5.41a5.635,5.635,0,0,1,1.3-3.9,4.534,4.534,0,0,1,3.564-1.455,4.444,4.444,0,0,1,3.179,1.128,3.994,3.994,0,0,1,1.216,3H15.518a1.939,1.939,0,0,0-.508-1.34,1.693,1.693,0,0,0-1.289-.515,1.7,1.7,0,0,0-1.489.719,4.166,4.166,0,0,0-.5,2.333v.293a4.219,4.219,0,0,0,.5,2.347A1.721,1.721,0,0,0,13.74-2.08Zm9.414-11.084v2.6h1.807V-8.5H23.154v5.273a1.259,1.259,0,0,0,.225.84,1.128,1.128,0,0,0,.859.254,4.5,4.5,0,0,0,.83-.068V-.059A5.81,5.81,0,0,1,23.359.2q-2.969,0-3.027-3V-8.5H18.789v-2.07h1.543v-2.6ZM32.656,0a3.134,3.134,0,0,1-.283-.947A3.415,3.415,0,0,1,29.707.2a3.752,3.752,0,0,1-2.573-.9,2.89,2.89,0,0,1-1.021-2.266,2.986,2.986,0,0,1,1.245-2.578,6.144,6.144,0,0,1,3.6-.908h1.3v-.605a1.741,1.741,0,0,0-.376-1.172,1.479,1.479,0,0,0-1.187-.439,1.682,1.682,0,0,0-1.118.342,1.161,1.161,0,0,0-.405.938H26.348a2.835,2.835,0,0,1,.566-1.7,3.744,3.744,0,0,1,1.6-1.226,5.837,5.837,0,0,1,2.324-.444,4.611,4.611,0,0,1,3.1.981,3.433,3.433,0,0,1,1.147,2.759v4.58a5.052,5.052,0,0,0,.42,2.275V0ZM30.322-1.963a2.431,2.431,0,0,0,1.152-.278,1.828,1.828,0,0,0,.781-.747V-4.8H31.2q-2.119,0-2.256,1.465l-.01.166a1.13,1.13,0,0,0,.371.869A1.441,1.441,0,0,0,30.322-1.963ZM43.193-7.92A7.667,7.667,0,0,0,42.178-8a2.067,2.067,0,0,0-2.1,1.084V0H37.256V-10.566h2.666L40-9.307a2.615,2.615,0,0,1,2.354-1.455,2.957,2.957,0,0,1,.879.127Zm-62.6,28.84a1.851,1.851,0,0,0,1.27-.43,1.506,1.506,0,0,0,.508-1.143h2.646a3.62,3.62,0,0,1-.586,1.968A3.866,3.866,0,0,1-17.148,22.7a4.936,4.936,0,0,1-2.212.493,4.587,4.587,0,0,1-3.574-1.44,5.7,5.7,0,0,1-1.309-3.979V17.59a5.635,5.635,0,0,1,1.3-3.9,4.534,4.534,0,0,1,3.564-1.455A4.444,4.444,0,0,1-16.2,13.366a3.994,3.994,0,0,1,1.216,3h-2.646a1.939,1.939,0,0,0-.508-1.34,1.693,1.693,0,0,0-1.289-.515,1.7,1.7,0,0,0-1.489.719,4.166,4.166,0,0,0-.5,2.333v.293a4.219,4.219,0,0,0,.5,2.347A1.721,1.721,0,0,0-19.409,20.92Zm12.363,1.006A3.539,3.539,0,0,1-9.937,23.2a3.338,3.338,0,0,1-2.593-.977,4.169,4.169,0,0,1-.913-2.861V12.434h2.822v6.834q0,1.652,1.5,1.652a2.038,2.038,0,0,0,1.973-1V12.434h2.832V23H-6.968Zm10.8-6.846A7.667,7.667,0,0,0,2.739,15a2.067,2.067,0,0,0-2.1,1.084V23H-2.183V12.434H.483l.078,1.26a2.615,2.615,0,0,1,2.354-1.455,2.957,2.957,0,0,1,.879.127Zm5.488,4.473,1.963-7.119h2.949L10.591,23H7.9L4.331,12.434H7.28ZM21.372,23a3.134,3.134,0,0,1-.283-.947A3.415,3.415,0,0,1,18.423,23.2a3.752,3.752,0,0,1-2.573-.9,2.89,2.89,0,0,1-1.021-2.266,2.986,2.986,0,0,1,1.245-2.578,6.144,6.144,0,0,1,3.6-.908h1.3v-.605a1.741,1.741,0,0,0-.376-1.172,1.479,1.479,0,0,0-1.187-.439,1.682,1.682,0,0,0-1.118.342,1.161,1.161,0,0,0-.405.938H15.063a2.835,2.835,0,0,1,.566-1.7,3.744,3.744,0,0,1,1.6-1.226,5.837,5.837,0,0,1,2.324-.444,4.611,4.611,0,0,1,3.1.981A3.433,3.433,0,0,1,23.8,15.979v4.58a5.052,5.052,0,0,0,.42,2.275V23Zm-2.334-1.963a2.431,2.431,0,0,0,1.152-.278,1.828,1.828,0,0,0,.781-.747V18.2H19.917q-2.119,0-2.256,1.465l-.01.166a1.13,1.13,0,0,0,.371.869A1.441,1.441,0,0,0,19.038,21.037Z" transform="translate(1128.085 771)" fill="#fff"/>
    <path id="Trazado_175252" data-name="Trazado 175252" d="M-39.912-5.205h-2.334V0h-2.93V-14.219h5.283A5.972,5.972,0,0,1-36.006-13.1a3.876,3.876,0,0,1,1.367,3.174,4.374,4.374,0,0,1-.63,2.427,4.3,4.3,0,0,1-1.909,1.548L-34.1-.137V0h-3.145Zm-2.334-2.373h2.363a2.42,2.42,0,0,0,1.709-.562,2.007,2.007,0,0,0,.605-1.548,2.148,2.148,0,0,0-.571-1.582,2.374,2.374,0,0,0-1.753-.576h-2.354ZM-27.734.2A5.187,5.187,0,0,1-31.519-1.23a5.068,5.068,0,0,1-1.46-3.8V-5.3a6.383,6.383,0,0,1,.615-2.847,4.515,4.515,0,0,1,1.743-1.934,4.893,4.893,0,0,1,2.573-.679,4.385,4.385,0,0,1,3.413,1.367,5.555,5.555,0,0,1,1.245,3.877v1.152h-6.729a2.622,2.622,0,0,0,.825,1.66,2.5,2.5,0,0,0,1.743.625A3.046,3.046,0,0,0-25-3.262l1.387,1.553a4.237,4.237,0,0,1-1.719,1.4A5.639,5.639,0,0,1-27.734.2Zm-.322-8.682a1.764,1.764,0,0,0-1.362.569,2.946,2.946,0,0,0-.669,1.628h3.926v-.226a2.1,2.1,0,0,0-.508-1.457A1.819,1.819,0,0,0-28.057-8.486ZM-17.393-2.08a1.851,1.851,0,0,0,1.27-.43,1.506,1.506,0,0,0,.508-1.143h2.646a3.62,3.62,0,0,1-.586,1.968A3.866,3.866,0,0,1-15.132-.3,4.936,4.936,0,0,1-17.344.2a4.587,4.587,0,0,1-3.574-1.44,5.7,5.7,0,0,1-1.309-3.979V-5.41a5.635,5.635,0,0,1,1.3-3.9,4.534,4.534,0,0,1,3.564-1.455,4.444,4.444,0,0,1,3.179,1.128,3.994,3.994,0,0,1,1.216,3h-2.646a1.939,1.939,0,0,0-.508-1.34,1.693,1.693,0,0,0-1.289-.515,1.7,1.7,0,0,0-1.489.719,4.166,4.166,0,0,0-.5,2.333v.293a4.219,4.219,0,0,0,.5,2.347A1.721,1.721,0,0,0-17.393-2.08Zm5.6-3.3a6.267,6.267,0,0,1,.605-2.8,4.432,4.432,0,0,1,1.743-1.9,5.086,5.086,0,0,1,2.642-.674A4.812,4.812,0,0,1-3.315-9.453,5.252,5.252,0,0,1-1.807-5.9l.02.723a5.523,5.523,0,0,1-1.357,3.9A4.718,4.718,0,0,1-6.787.2,4.742,4.742,0,0,1-10.435-1.27,5.62,5.62,0,0,1-11.8-5.254Zm2.822.2a3.95,3.95,0,0,0,.566,2.3,1.868,1.868,0,0,0,1.621.8,1.873,1.873,0,0,0,1.6-.787,4.322,4.322,0,0,0,.576-2.518,3.91,3.91,0,0,0-.576-2.289,1.873,1.873,0,0,0-1.621-.812,1.842,1.842,0,0,0-1.6.807A4.395,4.395,0,0,0-8.975-5.181ZM5.889-7.92A7.667,7.667,0,0,0,4.873-8a2.067,2.067,0,0,0-2.1,1.084V0H-.049V-10.566H2.617L2.7-9.307a2.615,2.615,0,0,1,2.354-1.455,2.957,2.957,0,0,1,.879.127Zm5.225-5.244v2.6H12.92V-8.5H11.113v5.273a1.259,1.259,0,0,0,.225.84,1.128,1.128,0,0,0,.859.254,4.5,4.5,0,0,0,.83-.068V-.059A5.81,5.81,0,0,1,11.318.2Q8.35.2,8.291-2.8V-8.5H6.748v-2.07H8.291v-2.6ZM20.615,0a3.134,3.134,0,0,1-.283-.947A3.415,3.415,0,0,1,17.666.2a3.752,3.752,0,0,1-2.573-.9,2.89,2.89,0,0,1-1.021-2.266,2.986,2.986,0,0,1,1.245-2.578,6.144,6.144,0,0,1,3.6-.908h1.3v-.605a1.741,1.741,0,0,0-.376-1.172,1.479,1.479,0,0,0-1.187-.439,1.682,1.682,0,0,0-1.118.342,1.161,1.161,0,0,0-.405.938H14.307a2.835,2.835,0,0,1,.566-1.7,3.744,3.744,0,0,1,1.6-1.226,5.837,5.837,0,0,1,2.324-.444,4.611,4.611,0,0,1,3.1.981,3.433,3.433,0,0,1,1.147,2.759v4.58a5.052,5.052,0,0,0,.42,2.275V0ZM18.281-1.963a2.431,2.431,0,0,0,1.152-.278,1.828,1.828,0,0,0,.781-.747V-4.8H19.16Q17.041-4.8,16.9-3.34l-.01.166a1.13,1.13,0,0,0,.371.869A1.441,1.441,0,0,0,18.281-1.963ZM31.152-7.92A7.667,7.667,0,0,0,30.137-8a2.067,2.067,0,0,0-2.1,1.084V0H25.215V-10.566h2.666l.078,1.26a2.615,2.615,0,0,1,2.354-1.455,2.957,2.957,0,0,1,.879.127ZM41.436-3.994l1.953-6.572h3.027L42.168,1.641l-.234.557a3.221,3.221,0,0,1-3.125,2.07,4.441,4.441,0,0,1-1.25-.186V1.943l.43.01a2.322,2.322,0,0,0,1.2-.244A1.6,1.6,0,0,0,39.8.9l.332-.869-3.7-10.6h3.037ZM-61,23.2A5.187,5.187,0,0,1-64.78,21.77a5.068,5.068,0,0,1-1.46-3.8V17.7a6.383,6.383,0,0,1,.615-2.847,4.515,4.515,0,0,1,1.743-1.934,4.893,4.893,0,0,1,2.573-.679A4.385,4.385,0,0,1-57.9,13.605a5.555,5.555,0,0,1,1.245,3.877v1.152h-6.729a2.622,2.622,0,0,0,.825,1.66,2.5,2.5,0,0,0,1.743.625,3.046,3.046,0,0,0,2.549-1.182l1.387,1.553a4.237,4.237,0,0,1-1.719,1.4A5.639,5.639,0,0,1-61,23.2Zm-.322-8.682a1.764,1.764,0,0,0-1.362.569,2.946,2.946,0,0,0-.669,1.628h3.926v-.226a2.1,2.1,0,0,0-.508-1.457A1.819,1.819,0,0,0-61.318,14.514Zm10.293,1.074,1.777-3.154h3.018l-3.008,5.176L-46.1,23h-3.027l-1.885-3.32L-52.891,23h-3.037l3.135-5.391-3-5.176h3.027Zm9.531-5.752v2.6h1.807V14.5h-1.807v5.273a1.259,1.259,0,0,0,.225.84,1.128,1.128,0,0,0,.859.254,4.5,4.5,0,0,0,.83-.068v2.139a5.81,5.81,0,0,1-1.709.254q-2.969,0-3.027-3V14.5h-1.543v-2.07h1.543v-2.6ZM-33.252,23.2a5.187,5.187,0,0,1-3.784-1.426,5.068,5.068,0,0,1-1.46-3.8V17.7a6.383,6.383,0,0,1,.615-2.847,4.515,4.515,0,0,1,1.743-1.934,4.893,4.893,0,0,1,2.573-.679,4.385,4.385,0,0,1,3.413,1.367,5.555,5.555,0,0,1,1.245,3.877v1.152h-6.729a2.622,2.622,0,0,0,.825,1.66,2.5,2.5,0,0,0,1.743.625,3.046,3.046,0,0,0,2.549-1.182l1.387,1.553a4.237,4.237,0,0,1-1.719,1.4A5.639,5.639,0,0,1-33.252,23.2Zm-.322-8.682a1.764,1.764,0,0,0-1.362.569,2.946,2.946,0,0,0-.669,1.628h3.926v-.226a2.1,2.1,0,0,0-.508-1.457A1.819,1.819,0,0,0-33.574,14.514Zm8.867-2.08.088,1.221a3.689,3.689,0,0,1,3.037-1.416,3.066,3.066,0,0,1,2.5.986,4.6,4.6,0,0,1,.84,2.949V23h-2.822V16.227a1.838,1.838,0,0,0-.391-1.307,1.746,1.746,0,0,0-1.3-.406,1.941,1.941,0,0,0-1.787,1.018V23h-2.822V12.434Zm8.164,5.205A6.368,6.368,0,0,1-15.435,13.7,3.6,3.6,0,0,1-12.4,12.238a3.236,3.236,0,0,1,2.549,1.152V8h2.832V23H-9.57l-.137-1.123A3.321,3.321,0,0,1-12.422,23.2a3.587,3.587,0,0,1-2.993-1.47A6.573,6.573,0,0,1-16.543,17.639Zm2.822.2a4.194,4.194,0,0,0,.518,2.286,1.685,1.685,0,0,0,1.5.795,1.888,1.888,0,0,0,1.846-1.109V15.622a1.861,1.861,0,0,0-1.826-1.109Q-13.721,14.514-13.721,17.839ZM.029,23.2A5.187,5.187,0,0,1-3.755,21.77a5.068,5.068,0,0,1-1.46-3.8V17.7A6.383,6.383,0,0,1-4.6,14.851a4.515,4.515,0,0,1,1.743-1.934,4.893,4.893,0,0,1,2.573-.679A4.385,4.385,0,0,1,3.13,13.605a5.555,5.555,0,0,1,1.245,3.877v1.152H-2.354a2.622,2.622,0,0,0,.825,1.66,2.5,2.5,0,0,0,1.743.625,3.046,3.046,0,0,0,2.549-1.182L4.15,21.291a4.237,4.237,0,0,1-1.719,1.4A5.639,5.639,0,0,1,.029,23.2Zm-.322-8.682a1.764,1.764,0,0,0-1.362.569,2.946,2.946,0,0,0-.669,1.628H1.6v-.226a2.1,2.1,0,0,0-.508-1.457A1.819,1.819,0,0,0-.293,14.514Zm12.207.566A7.667,7.667,0,0,0,10.9,15a2.067,2.067,0,0,0-2.1,1.084V23H5.977V12.434H8.643l.078,1.26a2.615,2.615,0,0,1,2.354-1.455,2.957,2.957,0,0,1,.879.127Zm10.732,5.84a1.851,1.851,0,0,0,1.27-.43,1.506,1.506,0,0,0,.508-1.143H27.07a3.62,3.62,0,0,1-.586,1.968A3.866,3.866,0,0,1,24.907,22.7,4.936,4.936,0,0,1,22.7,23.2a4.587,4.587,0,0,1-3.574-1.44,5.7,5.7,0,0,1-1.309-3.979V17.59a5.635,5.635,0,0,1,1.3-3.9,4.534,4.534,0,0,1,3.564-1.455,4.444,4.444,0,0,1,3.179,1.128,3.994,3.994,0,0,1,1.216,3H24.424a1.939,1.939,0,0,0-.508-1.34,1.887,1.887,0,0,0-2.778.2,4.166,4.166,0,0,0-.5,2.333v.293a4.219,4.219,0,0,0,.5,2.347A1.721,1.721,0,0,0,22.646,20.92ZM35.01,21.926a3.539,3.539,0,0,1-2.891,1.27,3.338,3.338,0,0,1-2.593-.977,4.169,4.169,0,0,1-.913-2.861V12.434h2.822v6.834q0,1.652,1.5,1.652a2.038,2.038,0,0,0,1.973-1V12.434h2.832V23H35.088Zm10.8-6.846A7.667,7.667,0,0,0,44.795,15a2.067,2.067,0,0,0-2.1,1.084V23H39.873V12.434h2.666l.078,1.26a2.615,2.615,0,0,1,2.354-1.455,2.957,2.957,0,0,1,.879.127ZM51.3,19.553l1.963-7.119h2.949L52.646,23h-2.7L46.387,12.434h2.949ZM63.428,23a3.134,3.134,0,0,1-.283-.947A3.415,3.415,0,0,1,60.479,23.2a3.752,3.752,0,0,1-2.573-.9,2.89,2.89,0,0,1-1.021-2.266,2.986,2.986,0,0,1,1.245-2.578,6.144,6.144,0,0,1,3.6-.908h1.3v-.605a1.741,1.741,0,0,0-.376-1.172,1.479,1.479,0,0,0-1.187-.439,1.682,1.682,0,0,0-1.118.342,1.161,1.161,0,0,0-.405.938H57.119a2.835,2.835,0,0,1,.566-1.7,3.744,3.744,0,0,1,1.6-1.226,5.837,5.837,0,0,1,2.324-.444,4.611,4.611,0,0,1,3.1.981,3.433,3.433,0,0,1,1.147,2.759v4.58a5.052,5.052,0,0,0,.42,2.275V23Zm-2.334-1.963a2.431,2.431,0,0,0,1.152-.278,1.828,1.828,0,0,0,.781-.747V18.2H61.973q-2.119,0-2.256,1.465l-.01.166a1.13,1.13,0,0,0,.371.869A1.441,1.441,0,0,0,61.094,21.037Z" transform="translate(1128.085 862)" fill="#fff"/>
    <path id="Trazado_174341" data-name="Trazado 174341" d="M295.654,58.462l-13.882-8.015V66.477Z" transform="translate(773.986 554.075) rotate(120)" fill="#af0f3f"/>
    <path id="Trazado_174412" data-name="Trazado 174412" d="M295.654,58.462l-13.882-8.015V66.477Z" transform="translate(773.986 644.698) rotate(120)" fill="#af0f3f"/>
    <path id="Trazado_174408" data-name="Trazado 174408" d="M295.654,58.462l-13.882-8.015V66.477Z" transform="translate(991.986 554.075) rotate(120)" fill="#af0f3f"/>
    <path id="Trazado_174411" data-name="Trazado 174411" d="M295.654,58.462l-13.882-8.015V66.477Z" transform="translate(991.986 644.698) rotate(120)" fill="#af0f3f"/>
    <path id="Trazado_174409" data-name="Trazado 174409" d="M295.654,58.462l-13.882-8.015V66.477Z" transform="translate(1209.986 554.075) rotate(120)" fill="#af0f3f"/>
    <path id="Trazado_174410" data-name="Trazado 174410" d="M295.654,58.462l-13.882-8.015V66.477Z" transform="translate(1209.986 644.698) rotate(120)" fill="#af0f3f"/>
  </g>
</svg>
