<svg xmlns="http://www.w3.org/2000/svg" xmlns:xlink="http://www.w3.org/1999/xlink" width="850.17" height="164" viewBox="0 0 850.17 164">
  <defs>
    <linearGradient id="linear-gradient" x1="0.5" x2="0.5" y2="1" gradientUnits="objectBoundingBox">
      <stop offset="0" stop-color="#636363"/>
      <stop offset="0.517" stop-color="#0f1027"/>
      <stop offset="1" stop-color="#0f1027"/>
    </linearGradient>
  </defs>
  <g id="Grupo_126963" data-name="Grupo 126963" transform="translate(-374.915 -738)">
    <rect id="Rectángulo_35976" data-name="Rectángulo 35976" width="196" height="73" rx="5" transform="translate(374.915 738)" fill="url(#linear-gradient)"/>
    <rect id="Rectángulo_36033" data-name="Rectángulo 36033" width="196" height="73" rx="5" transform="translate(374.915 829)" fill="url(#linear-gradient)"/>
    <rect id="Rectángulo_36026" data-name="Rectángulo 36026" width="196" height="73" rx="5" transform="translate(592.972 738)" fill="url(#linear-gradient)"/>
    <rect id="Rectángulo_36032" data-name="Rectángulo 36032" width="196" height="73" rx="5" transform="translate(592.972 829)" fill="url(#linear-gradient)"/>
    <rect id="Rectángulo_36029" data-name="Rectángulo 36029" width="196" height="73" rx="5" transform="translate(1029.085 738)" fill="url(#linear-gradient)"/>
    <rect id="Rectángulo_36030" data-name="Rectángulo 36030" width="196" height="73" rx="5" transform="translate(1029.085 829)" fill="url(#linear-gradient)"/>
    <rect id="Rectángulo_36027" data-name="Rectángulo 36027" width="196" height="73" rx="5" transform="translate(811.028 738)" fill="url(#linear-gradient)"/>
    <rect id="Rectángulo_36031" data-name="Rectángulo 36031" width="196" height="73" rx="5" transform="translate(811.028 829)" fill="url(#linear-gradient)"/>
    <path id="Trazado_175245" data-name="Trazado 175245" d="M-19.883-4.736a5.031,5.031,0,0,1-1.694,3.613A5.951,5.951,0,0,1-25.605.2a5.351,5.351,0,0,1-4.3-1.841A7.548,7.548,0,0,1-31.475-6.7v-.869a8.523,8.523,0,0,1,.723-3.613,5.416,5.416,0,0,1,2.065-2.4,5.786,5.786,0,0,1,3.12-.835A5.8,5.8,0,0,1-21.6-13.1a5.407,5.407,0,0,1,1.738,3.7h-2.93a2.97,2.97,0,0,0-.767-2,2.839,2.839,0,0,0-2.007-.62,2.489,2.489,0,0,0-2.192,1.05,5.883,5.883,0,0,0-.747,3.257v1.074a6.3,6.3,0,0,0,.7,3.369,2.443,2.443,0,0,0,2.2,1.064,2.892,2.892,0,0,0,2.026-.62,2.8,2.8,0,0,0,.767-1.919ZM-7.2-14.219v9.365a4.8,4.8,0,0,1-1.46,3.691A5.629,5.629,0,0,1-12.646.2,5.692,5.692,0,0,1-16.6-1.123,4.713,4.713,0,0,1-18.1-4.746v-9.473h2.93v9.385A2.709,2.709,0,0,0-14.5-2.8a2.568,2.568,0,0,0,1.851.64q2.471,0,2.51-2.6v-9.463ZM.469-5.205H-1.865V0h-2.93V-14.219H.488A5.972,5.972,0,0,1,4.375-13.1,3.876,3.876,0,0,1,5.742-9.922,4.374,4.374,0,0,1,5.112-7.5,4.3,4.3,0,0,1,3.2-5.947L6.279-.137V0H3.135ZM-1.865-7.578H.5A2.42,2.42,0,0,0,2.207-8.14a2.007,2.007,0,0,0,.605-1.548,2.148,2.148,0,0,0-.571-1.582,2.374,2.374,0,0,0-1.753-.576H-1.865Zm14.9,4.053L16.26-14.219h3.262L14.57,0H11.514L6.582-14.219H9.834Zm15.117.6H23.018L22.041,0H18.926l5.293-14.219h2.715L32.256,0H29.141ZM23.809-5.3h3.555l-1.787-5.322ZM-61.665,23V8.781h4.375a6.644,6.644,0,0,1,3.354.845,5.89,5.89,0,0,1,2.31,2.4,7.41,7.41,0,0,1,.83,3.54v.654a7.431,7.431,0,0,1-.815,3.525,5.84,5.84,0,0,1-2.3,2.393,6.694,6.694,0,0,1-3.35.859Zm2.93-11.846v9.492h1.416a3.181,3.181,0,0,0,2.627-1.123,5.075,5.075,0,0,0,.928-3.213v-.752a5.156,5.156,0,0,0-.9-3.286,3.171,3.171,0,0,0-2.627-1.118Zm18.623,5.664h-5.625v3.828h6.6V23h-9.531V8.781h9.512v2.373h-6.582v3.389h5.625Zm10.068,2.451A1.5,1.5,0,0,0-30.63,18a7.685,7.685,0,0,0-2.109-.937,14.953,14.953,0,0,1-2.412-.972,3.941,3.941,0,0,1-2.422-3.525,3.434,3.434,0,0,1,.649-2.056,4.236,4.236,0,0,1,1.865-1.411,7.021,7.021,0,0,1,2.729-.508,6.39,6.39,0,0,1,2.715.552A4.323,4.323,0,0,1-27.764,10.7,4.076,4.076,0,0,1-27.1,12.98h-2.93a1.917,1.917,0,0,0-.615-1.519,2.529,2.529,0,0,0-1.729-.542,2.7,2.7,0,0,0-1.67.454,1.432,1.432,0,0,0-.6,1.2,1.372,1.372,0,0,0,.7,1.162,7.889,7.889,0,0,0,2.056.879,8.882,8.882,0,0,1,3.643,1.865A3.715,3.715,0,0,1-27.1,19.25a3.422,3.422,0,0,1-1.4,2.9,6.113,6.113,0,0,1-3.76,1.05,7.26,7.26,0,0,1-2.988-.6A4.729,4.729,0,0,1-37.3,20.949a4.214,4.214,0,0,1-.708-2.422h2.939q0,2.354,2.813,2.354a2.736,2.736,0,0,0,1.631-.425A1.382,1.382,0,0,0-30.044,19.27Zm7.852-1.279V23h-2.93V8.781h5.547a6.417,6.417,0,0,1,2.817.586,4.318,4.318,0,0,1,1.87,1.665,4.643,4.643,0,0,1,.654,2.456,4.083,4.083,0,0,1-1.431,3.3,5.959,5.959,0,0,1-3.96,1.206Zm0-2.373h2.617A2.573,2.573,0,0,0-17.8,15.07a1.989,1.989,0,0,0,.61-1.562,2.345,2.345,0,0,0-.615-1.689,2.3,2.3,0,0,0-1.7-.664h-2.686Zm12.9,5.029h6.221V23h-9.15V8.781h2.93ZM6.821,20.07H1.685L.708,23H-2.407L2.886,8.781H5.6L10.923,23H7.808ZM2.476,17.7H6.03L4.243,12.375Zm12.881,2.949h7.168V23H11.694V21.281l7.031-10.127H11.7V8.781H22.368v1.68Zm17.168-.576H27.388L26.411,23H23.3L28.589,8.781H31.3L36.626,23H33.511ZM28.179,17.7h3.555l-1.787-5.322ZM37.954,23V8.781h4.375a6.644,6.644,0,0,1,3.354.845,5.89,5.89,0,0,1,2.31,2.4,7.41,7.41,0,0,1,.83,3.54v.654a7.431,7.431,0,0,1-.815,3.525,5.84,5.84,0,0,1-2.3,2.393,6.694,6.694,0,0,1-3.35.859Zm2.93-11.846v9.492H42.3a3.181,3.181,0,0,0,2.627-1.123,5.075,5.075,0,0,0,.928-3.213v-.752a5.156,5.156,0,0,0-.9-3.286,3.171,3.171,0,0,0-2.627-1.118ZM58.774,20.07H53.638L52.661,23H49.546L54.839,8.781h2.715L62.876,23H59.761ZM54.429,17.7h3.555L56.2,12.375Z" transform="translate(474.415 771)" fill="#fff"/>
    <path id="Trazado_175252" data-name="Trazado 175252" d="M-19.883-4.736a5.031,5.031,0,0,1-1.694,3.613A5.951,5.951,0,0,1-25.605.2a5.351,5.351,0,0,1-4.3-1.841A7.548,7.548,0,0,1-31.475-6.7v-.869a8.523,8.523,0,0,1,.723-3.613,5.416,5.416,0,0,1,2.065-2.4,5.786,5.786,0,0,1,3.12-.835A5.8,5.8,0,0,1-21.6-13.1a5.407,5.407,0,0,1,1.738,3.7h-2.93a2.97,2.97,0,0,0-.767-2,2.839,2.839,0,0,0-2.007-.62,2.489,2.489,0,0,0-2.192,1.05,5.883,5.883,0,0,0-.747,3.257v1.074a6.3,6.3,0,0,0,.7,3.369,2.443,2.443,0,0,0,2.2,1.064,2.892,2.892,0,0,0,2.026-.62,2.8,2.8,0,0,0,.767-1.919ZM-7.2-14.219v9.365a4.8,4.8,0,0,1-1.46,3.691A5.629,5.629,0,0,1-12.646.2,5.692,5.692,0,0,1-16.6-1.123,4.713,4.713,0,0,1-18.1-4.746v-9.473h2.93v9.385A2.709,2.709,0,0,0-14.5-2.8a2.568,2.568,0,0,0,1.851.64q2.471,0,2.51-2.6v-9.463ZM.469-5.205H-1.865V0h-2.93V-14.219H.488A5.972,5.972,0,0,1,4.375-13.1,3.876,3.876,0,0,1,5.742-9.922,4.374,4.374,0,0,1,5.112-7.5,4.3,4.3,0,0,1,3.2-5.947L6.279-.137V0H3.135ZM-1.865-7.578H.5A2.42,2.42,0,0,0,2.207-8.14a2.007,2.007,0,0,0,.605-1.548,2.148,2.148,0,0,0-.571-1.582,2.374,2.374,0,0,0-1.753-.576H-1.865Zm14.9,4.053L16.26-14.219h3.262L14.57,0H11.514L6.582-14.219H9.834Zm15.117.6H23.018L22.041,0H18.926l5.293-14.219h2.715L32.256,0H29.141ZM23.809-5.3h3.555l-1.787-5.322ZM-50.732,23V8.781h4.375A6.644,6.644,0,0,1-43,9.626a5.89,5.89,0,0,1,2.31,2.4,7.41,7.41,0,0,1,.83,3.54v.654a7.431,7.431,0,0,1-.815,3.525,5.84,5.84,0,0,1-2.3,2.393,6.694,6.694,0,0,1-3.35.859Zm2.93-11.846v9.492h1.416a3.181,3.181,0,0,0,2.627-1.123,5.075,5.075,0,0,0,.928-3.213v-.752a5.156,5.156,0,0,0-.9-3.286,3.171,3.171,0,0,0-2.627-1.118Zm18.623,5.664H-34.8v3.828h6.6V23h-9.531V8.781h9.512v2.373H-34.8v3.389h5.625Zm10.605,1.172V23H-21.5V8.781h5.547a6.417,6.417,0,0,1,2.817.586,4.318,4.318,0,0,1,1.87,1.665,4.643,4.643,0,0,1,.654,2.456,4.083,4.083,0,0,1-1.431,3.3,5.959,5.959,0,0,1-3.96,1.206Zm0-2.373h2.617a2.573,2.573,0,0,0,1.772-.547,1.989,1.989,0,0,0,.61-1.562,2.345,2.345,0,0,0-.615-1.689,2.3,2.3,0,0,0-1.7-.664h-2.686ZM2.158,8.781v9.365A4.8,4.8,0,0,1,.7,21.838,5.629,5.629,0,0,1-3.291,23.2a5.692,5.692,0,0,1-3.955-1.318A4.713,4.713,0,0,1-8.74,18.254V8.781h2.93v9.385A2.709,2.709,0,0,0-5.142,20.2a2.568,2.568,0,0,0,1.851.64q2.471,0,2.51-2.6V8.781Zm10.957,8.037H7.49v3.828h6.6V23H4.561V8.781h9.512v2.373H7.49v3.389h5.625ZM27.373,23h-2.93l-5.7-9.355V23h-2.93V8.781h2.93l5.713,9.375V8.781h2.92ZM40.352,11.154H36V23h-2.93V11.154h-4.3V8.781H40.352Zm10.225,5.664H44.951v3.828h6.6V23H42.021V8.781h9.512v2.373H44.951v3.389h5.625Z" transform="translate(474.415 862)" fill="#fff"/>
    <path id="Trazado_175246" data-name="Trazado 175246" d="M-34.5-4.736a5.031,5.031,0,0,1-1.694,3.613A5.951,5.951,0,0,1-40.22.2a5.351,5.351,0,0,1-4.3-1.841A7.548,7.548,0,0,1-46.089-6.7v-.869a8.523,8.523,0,0,1,.723-3.613,5.415,5.415,0,0,1,2.065-2.4,5.786,5.786,0,0,1,3.12-.835A5.8,5.8,0,0,1-36.216-13.1a5.407,5.407,0,0,1,1.738,3.7h-2.93a2.97,2.97,0,0,0-.767-2,2.839,2.839,0,0,0-2.007-.62,2.489,2.489,0,0,0-2.192,1.05,5.883,5.883,0,0,0-.747,3.257v1.074a6.3,6.3,0,0,0,.7,3.369A2.443,2.443,0,0,0-40.22-2.2a2.892,2.892,0,0,0,2.026-.62,2.8,2.8,0,0,0,.767-1.919Zm12.686-9.482v9.365a4.8,4.8,0,0,1-1.46,3.691A5.629,5.629,0,0,1-27.261.2a5.692,5.692,0,0,1-3.955-1.318A4.713,4.713,0,0,1-32.71-4.746v-9.473h2.93v9.385A2.709,2.709,0,0,0-29.111-2.8a2.568,2.568,0,0,0,1.851.64q2.471,0,2.51-2.6v-9.463Zm7.666,9.014h-2.334V0h-2.93V-14.219h5.283A5.972,5.972,0,0,1-10.239-13.1,3.876,3.876,0,0,1-8.872-9.922,4.374,4.374,0,0,1-9.5-7.5a4.3,4.3,0,0,1-1.909,1.548L-8.335-.137V0h-3.145Zm-2.334-2.373h2.363a2.42,2.42,0,0,0,1.709-.562A2.007,2.007,0,0,0-11.8-9.687a2.148,2.148,0,0,0-.571-1.582,2.374,2.374,0,0,0-1.753-.576h-2.354Zm14.9,4.053L1.646-14.219H4.907L-.044,0H-3.1L-8.032-14.219H-4.78Zm15.117.6H8.4L7.427,0H4.312L9.6-14.219h2.715L17.642,0H14.526ZM9.194-5.3h3.555l-1.787-5.322ZM23.95,0V-14.219h4.375a6.644,6.644,0,0,1,3.354.845,5.89,5.89,0,0,1,2.31,2.4,7.41,7.41,0,0,1,.83,3.54v.654A7.431,7.431,0,0,1,34-3.252,5.84,5.84,0,0,1,31.7-.859,6.694,6.694,0,0,1,28.354,0Zm2.93-11.846v9.492H28.3a3.181,3.181,0,0,0,2.627-1.123,5.075,5.075,0,0,0,.928-3.213v-.752a5.156,5.156,0,0,0-.9-3.286,3.171,3.171,0,0,0-2.627-1.118ZM45.5-6.182H39.878v3.828h6.6V0H36.948V-14.219H46.46v2.373H39.878v3.389H45.5ZM-65.381,23h-2.93V8.781h2.93ZM-51.1,23h-2.93l-5.7-9.355V23h-2.93V8.781h2.93l5.713,9.375V8.781h2.92Zm12.979-11.846H-42.48V23h-2.93V11.154h-4.3V8.781h11.582ZM-27.9,16.818h-5.625v3.828h6.6V23h-9.531V8.781h9.512v2.373h-6.582v3.389H-27.9Zm7.959.977h-2.334V23h-2.93V8.781h5.283A5.972,5.972,0,0,1-16.035,9.9a3.876,3.876,0,0,1,1.367,3.174A4.374,4.374,0,0,1-15.3,15.5a4.3,4.3,0,0,1-1.909,1.548l3.076,5.811V23h-3.145Zm-2.334-2.373h2.363A2.42,2.42,0,0,0-18.2,14.86a2.007,2.007,0,0,0,.605-1.548,2.148,2.148,0,0,0-.571-1.582,2.374,2.374,0,0,0-1.753-.576h-2.354ZM-5.068,19.27A1.5,1.5,0,0,0-5.654,18a7.685,7.685,0,0,0-2.109-.937,14.953,14.953,0,0,1-2.412-.972A3.941,3.941,0,0,1-12.6,12.561a3.434,3.434,0,0,1,.649-2.056,4.236,4.236,0,0,1,1.865-1.411,7.02,7.02,0,0,1,2.729-.508,6.39,6.39,0,0,1,2.715.552A4.323,4.323,0,0,1-2.788,10.7a4.076,4.076,0,0,1,.659,2.285h-2.93a1.917,1.917,0,0,0-.615-1.519A2.529,2.529,0,0,0-7.4,10.92a2.7,2.7,0,0,0-1.67.454,1.432,1.432,0,0,0-.6,1.2,1.372,1.372,0,0,0,.7,1.162,7.889,7.889,0,0,0,2.056.879,8.882,8.882,0,0,1,3.643,1.865A3.715,3.715,0,0,1-2.129,19.25a3.422,3.422,0,0,1-1.4,2.9,6.113,6.113,0,0,1-3.76,1.05,7.26,7.26,0,0,1-2.988-.6,4.729,4.729,0,0,1-2.056-1.646,4.214,4.214,0,0,1-.708-2.422H-10.1q0,2.354,2.813,2.354a2.736,2.736,0,0,0,1.631-.425A1.382,1.382,0,0,0-5.068,19.27ZM8.408,16.818H2.783v3.828h6.6V23H-.146V8.781H9.365v2.373H2.783v3.389H8.408Zm13.857,1.445a5.031,5.031,0,0,1-1.694,3.613A5.951,5.951,0,0,1,16.543,23.2a5.351,5.351,0,0,1-4.3-1.841A7.548,7.548,0,0,1,10.674,16.3v-.869a8.523,8.523,0,0,1,.723-3.613,5.416,5.416,0,0,1,2.065-2.4,5.786,5.786,0,0,1,3.12-.835A5.8,5.8,0,0,1,20.547,9.9a5.407,5.407,0,0,1,1.738,3.7h-2.93a2.97,2.97,0,0,0-.767-2,2.839,2.839,0,0,0-2.007-.62,2.489,2.489,0,0,0-2.192,1.05,5.883,5.883,0,0,0-.747,3.257v1.074a6.3,6.3,0,0,0,.7,3.369,2.443,2.443,0,0,0,2.2,1.064,2.892,2.892,0,0,0,2.026-.62,2.8,2.8,0,0,0,.767-1.919Zm13.086,0a5.031,5.031,0,0,1-1.694,3.613A5.951,5.951,0,0,1,29.629,23.2a5.351,5.351,0,0,1-4.3-1.841A7.548,7.548,0,0,1,23.76,16.3v-.869a8.523,8.523,0,0,1,.723-3.613,5.416,5.416,0,0,1,2.065-2.4,5.786,5.786,0,0,1,3.12-.835A5.8,5.8,0,0,1,33.633,9.9a5.407,5.407,0,0,1,1.738,3.7h-2.93a2.97,2.97,0,0,0-.767-2,2.839,2.839,0,0,0-2.007-.62,2.489,2.489,0,0,0-2.192,1.05,5.883,5.883,0,0,0-.747,3.257v1.074a6.3,6.3,0,0,0,.7,3.369,2.443,2.443,0,0,0,2.2,1.064,2.892,2.892,0,0,0,2.026-.62,2.8,2.8,0,0,0,.767-1.919ZM40.391,23h-2.93V8.781h2.93Zm14.395-6.787a8.583,8.583,0,0,1-.742,3.682,5.589,5.589,0,0,1-2.124,2.441,6.276,6.276,0,0,1-6.323.01,5.644,5.644,0,0,1-2.148-2.427,8.338,8.338,0,0,1-.771-3.628v-.7a8.538,8.538,0,0,1,.757-3.7A5.635,5.635,0,0,1,45.571,9.44a6.267,6.267,0,0,1,6.318,0,5.635,5.635,0,0,1,2.139,2.451,8.514,8.514,0,0,1,.757,3.687Zm-2.969-.645a5.984,5.984,0,0,0-.8-3.4,2.829,2.829,0,0,0-4.561-.015,5.915,5.915,0,0,0-.811,3.364v.693a6.058,6.058,0,0,0,.8,3.379,2.8,2.8,0,0,0,4.57.044,6.023,6.023,0,0,0,.8-3.374ZM49.3,4.973h3.076L49.668,8H47.373ZM68.477,23h-2.93l-5.7-9.355V23h-2.93V8.781h2.93l5.713,9.375V8.781h2.92Z" transform="translate(691.972 771)" fill="#fff"/>
    <path id="Trazado_175251" data-name="Trazado 175251" d="M-19.883-4.736a5.031,5.031,0,0,1-1.694,3.613A5.951,5.951,0,0,1-25.605.2a5.351,5.351,0,0,1-4.3-1.841A7.548,7.548,0,0,1-31.475-6.7v-.869a8.523,8.523,0,0,1,.723-3.613,5.416,5.416,0,0,1,2.065-2.4,5.786,5.786,0,0,1,3.12-.835A5.8,5.8,0,0,1-21.6-13.1a5.407,5.407,0,0,1,1.738,3.7h-2.93a2.97,2.97,0,0,0-.767-2,2.839,2.839,0,0,0-2.007-.62,2.489,2.489,0,0,0-2.192,1.05,5.883,5.883,0,0,0-.747,3.257v1.074a6.3,6.3,0,0,0,.7,3.369,2.443,2.443,0,0,0,2.2,1.064,2.892,2.892,0,0,0,2.026-.62,2.8,2.8,0,0,0,.767-1.919ZM-7.2-14.219v9.365a4.8,4.8,0,0,1-1.46,3.691A5.629,5.629,0,0,1-12.646.2,5.692,5.692,0,0,1-16.6-1.123,4.713,4.713,0,0,1-18.1-4.746v-9.473h2.93v9.385A2.709,2.709,0,0,0-14.5-2.8a2.568,2.568,0,0,0,1.851.64q2.471,0,2.51-2.6v-9.463ZM.469-5.205H-1.865V0h-2.93V-14.219H.488A5.972,5.972,0,0,1,4.375-13.1,3.876,3.876,0,0,1,5.742-9.922,4.374,4.374,0,0,1,5.112-7.5,4.3,4.3,0,0,1,3.2-5.947L6.279-.137V0H3.135ZM-1.865-7.578H.5A2.42,2.42,0,0,0,2.207-8.14a2.007,2.007,0,0,0,.605-1.548,2.148,2.148,0,0,0-.571-1.582,2.374,2.374,0,0,0-1.753-.576H-1.865Zm14.9,4.053L16.26-14.219h3.262L14.57,0H11.514L6.582-14.219H9.834Zm15.117.6H23.018L22.041,0H18.926l5.293-14.219h2.715L32.256,0H29.141ZM23.809-5.3h3.555l-1.787-5.322ZM-46.909,18.264A5.031,5.031,0,0,1-48.6,21.877,5.951,5.951,0,0,1-52.632,23.2a5.351,5.351,0,0,1-4.3-1.841A7.548,7.548,0,0,1-58.5,16.3v-.869a8.523,8.523,0,0,1,.723-3.613,5.415,5.415,0,0,1,2.065-2.4,5.786,5.786,0,0,1,3.12-.835A5.8,5.8,0,0,1-48.628,9.9a5.407,5.407,0,0,1,1.738,3.7h-2.93a2.97,2.97,0,0,0-.767-2,2.839,2.839,0,0,0-2.007-.62,2.489,2.489,0,0,0-2.192,1.05,5.883,5.883,0,0,0-.747,3.257v1.074a6.3,6.3,0,0,0,.7,3.369,2.443,2.443,0,0,0,2.2,1.064,2.892,2.892,0,0,0,2.026-.62,2.8,2.8,0,0,0,.767-1.919Zm13.6-2.051a8.583,8.583,0,0,1-.742,3.682,5.589,5.589,0,0,1-2.124,2.441,5.875,5.875,0,0,1-3.169.859,5.915,5.915,0,0,1-3.154-.85,5.644,5.644,0,0,1-2.148-2.427,8.338,8.338,0,0,1-.771-3.628v-.7a8.538,8.538,0,0,1,.757-3.7A5.635,5.635,0,0,1-42.52,9.44a5.883,5.883,0,0,1,3.159-.854A5.883,5.883,0,0,1-36.2,9.44a5.635,5.635,0,0,1,2.139,2.451,8.514,8.514,0,0,1,.757,3.687Zm-2.969-.645a5.984,5.984,0,0,0-.8-3.4,2.61,2.61,0,0,0-2.285-1.162,2.611,2.611,0,0,0-2.275,1.147,5.915,5.915,0,0,0-.811,3.364v.693a6.058,6.058,0,0,0,.8,3.379,2.6,2.6,0,0,0,2.3,1.2,2.579,2.579,0,0,0,2.266-1.157,6.023,6.023,0,0,0,.8-3.374Zm8.926-6.787L-23.7,19.094l3.633-10.312h3.848V23h-2.939V19.113l.293-6.709L-22.7,23h-2.012L-28.54,12.414l.293,6.7V23h-2.93V8.781Zm16.621,9.209V23h-2.93V8.781H-8.11a6.417,6.417,0,0,1,2.817.586,4.318,4.318,0,0,1,1.87,1.665,4.643,4.643,0,0,1,.654,2.456,4.083,4.083,0,0,1-1.431,3.3,5.959,5.959,0,0,1-3.96,1.206Zm0-2.373H-8.11a2.573,2.573,0,0,0,1.772-.547,1.989,1.989,0,0,0,.61-1.562,2.345,2.345,0,0,0-.615-1.689,2.3,2.3,0,0,0-1.7-.664h-2.686ZM10,8.781v9.365a4.8,4.8,0,0,1-1.46,3.691A5.629,5.629,0,0,1,4.556,23.2,5.692,5.692,0,0,1,.6,21.877,4.713,4.713,0,0,1-.894,18.254V8.781h2.93v9.385A2.709,2.709,0,0,0,2.705,20.2a2.568,2.568,0,0,0,1.851.64q2.471,0,2.51-2.6V8.781Zm10.957,8.037H15.337v3.828h6.6V23H12.407V8.781h9.512v2.373H15.337v3.389h5.625ZM31.03,19.27A1.5,1.5,0,0,0,30.444,18a7.685,7.685,0,0,0-2.109-.937,14.953,14.953,0,0,1-2.412-.972A3.941,3.941,0,0,1,23.5,12.561,3.434,3.434,0,0,1,24.15,10.5a4.236,4.236,0,0,1,1.865-1.411,7.02,7.02,0,0,1,2.729-.508,6.39,6.39,0,0,1,2.715.552A4.323,4.323,0,0,1,33.311,10.7a4.076,4.076,0,0,1,.659,2.285H31.04a1.917,1.917,0,0,0-.615-1.519A2.529,2.529,0,0,0,28.7,10.92a2.7,2.7,0,0,0-1.67.454,1.432,1.432,0,0,0-.6,1.2,1.372,1.372,0,0,0,.7,1.162,7.889,7.889,0,0,0,2.056.879,8.882,8.882,0,0,1,3.643,1.865A3.715,3.715,0,0,1,33.97,19.25a3.422,3.422,0,0,1-1.4,2.9,6.113,6.113,0,0,1-3.76,1.05,7.26,7.26,0,0,1-2.988-.6,4.729,4.729,0,0,1-2.056-1.646,4.214,4.214,0,0,1-.708-2.422H26q0,2.354,2.813,2.354a2.736,2.736,0,0,0,1.631-.425A1.382,1.382,0,0,0,31.03,19.27Zm15.625-8.115H42.3V23H39.37V11.154h-4.3V8.781H46.655Zm8.525,8.916H50.044L49.067,23H45.952L51.245,8.781H53.96L59.282,23H56.167ZM50.835,17.7H54.39L52.6,12.375Z" transform="translate(691.972 862)" fill="#fff"/>
    <path id="Trazado_175247" data-name="Trazado 175247" d="M-77.915-4.736a5.031,5.031,0,0,1-1.694,3.613A5.951,5.951,0,0,1-83.638.2a5.351,5.351,0,0,1-4.3-1.841A7.548,7.548,0,0,1-89.507-6.7v-.869a8.523,8.523,0,0,1,.723-3.613,5.416,5.416,0,0,1,2.065-2.4,5.786,5.786,0,0,1,3.12-.835A5.8,5.8,0,0,1-79.634-13.1a5.407,5.407,0,0,1,1.738,3.7h-2.93a2.97,2.97,0,0,0-.767-2,2.839,2.839,0,0,0-2.007-.62,2.489,2.489,0,0,0-2.192,1.05,5.883,5.883,0,0,0-.747,3.257v1.074a6.3,6.3,0,0,0,.7,3.369,2.443,2.443,0,0,0,2.2,1.064,2.892,2.892,0,0,0,2.026-.62,2.8,2.8,0,0,0,.767-1.919Zm12.686-9.482v9.365a4.8,4.8,0,0,1-1.46,3.691A5.629,5.629,0,0,1-70.679.2a5.692,5.692,0,0,1-3.955-1.318,4.713,4.713,0,0,1-1.494-3.623v-9.473h2.93v9.385A2.709,2.709,0,0,0-72.529-2.8a2.568,2.568,0,0,0,1.851.64q2.471,0,2.51-2.6v-9.463Zm7.666,9.014H-59.9V0h-2.93V-14.219h5.283A5.972,5.972,0,0,1-53.657-13.1,3.876,3.876,0,0,1-52.29-9.922,4.374,4.374,0,0,1-52.92-7.5a4.3,4.3,0,0,1-1.909,1.548l3.076,5.811V0H-54.9ZM-59.9-7.578h2.363a2.42,2.42,0,0,0,1.709-.562,2.007,2.007,0,0,0,.605-1.548,2.148,2.148,0,0,0-.571-1.582,2.374,2.374,0,0,0-1.753-.576H-59.9ZM-45-3.525l3.223-10.693h3.262L-43.462,0h-3.057L-51.45-14.219H-48.2Zm15.117.6h-5.137L-35.991,0h-3.115l5.293-14.219H-31.1L-25.776,0h-3.115ZM-34.224-5.3h3.555l-1.787-5.322ZM-19.468,0V-14.219h4.375a6.644,6.644,0,0,1,3.354.845,5.89,5.89,0,0,1,2.31,2.4,7.41,7.41,0,0,1,.83,3.54v.654a7.431,7.431,0,0,1-.815,3.525,5.84,5.84,0,0,1-2.3,2.393A6.694,6.694,0,0,1-15.063,0Zm2.93-11.846v9.492h1.416A3.181,3.181,0,0,0-12.5-3.477a5.075,5.075,0,0,0,.928-3.213v-.752a5.156,5.156,0,0,0-.9-3.286,3.171,3.171,0,0,0-2.627-1.118ZM2.085-6.182H-3.54v3.828h6.6V0H-6.47V-14.219H3.042v2.373H-3.54v3.389H2.085ZM12.153-3.73A1.5,1.5,0,0,0,11.567-5a7.685,7.685,0,0,0-2.109-.937,14.953,14.953,0,0,1-2.412-.972,3.941,3.941,0,0,1-2.422-3.525A3.434,3.434,0,0,1,5.273-12.5a4.236,4.236,0,0,1,1.865-1.411,7.02,7.02,0,0,1,2.729-.508,6.39,6.39,0,0,1,2.715.552A4.323,4.323,0,0,1,14.434-12.3a4.076,4.076,0,0,1,.659,2.285h-2.93a1.917,1.917,0,0,0-.615-1.519,2.529,2.529,0,0,0-1.729-.542,2.7,2.7,0,0,0-1.67.454,1.432,1.432,0,0,0-.6,1.2,1.372,1.372,0,0,0,.7,1.162,7.889,7.889,0,0,0,2.056.879A8.882,8.882,0,0,1,13.95-6.523,3.715,3.715,0,0,1,15.093-3.75a3.422,3.422,0,0,1-1.4,2.9A6.113,6.113,0,0,1,9.937.2a7.26,7.26,0,0,1-2.988-.6A4.729,4.729,0,0,1,4.893-2.051a4.214,4.214,0,0,1-.708-2.422H7.124q0,2.354,2.813,2.354a2.736,2.736,0,0,0,1.631-.425A1.382,1.382,0,0,0,12.153-3.73ZM25.63-5.811H20V0h-2.93V-14.219h9.258v2.373H20v3.672H25.63ZM34.185-2.93H29.048L28.071,0H24.956l5.293-14.219h2.715L38.286,0H35.171ZM29.839-5.3h3.555l-1.787-5.322ZM46.987-3.73A1.5,1.5,0,0,0,46.4-5a7.685,7.685,0,0,0-2.109-.937,14.953,14.953,0,0,1-2.412-.972,3.941,3.941,0,0,1-2.422-3.525,3.434,3.434,0,0,1,.649-2.056,4.236,4.236,0,0,1,1.865-1.411,7.021,7.021,0,0,1,2.729-.508,6.39,6.39,0,0,1,2.715.552A4.323,4.323,0,0,1,49.268-12.3a4.076,4.076,0,0,1,.659,2.285H47a1.917,1.917,0,0,0-.615-1.519,2.529,2.529,0,0,0-1.729-.542,2.7,2.7,0,0,0-1.67.454,1.432,1.432,0,0,0-.6,1.2,1.372,1.372,0,0,0,.7,1.162,7.889,7.889,0,0,0,2.056.879,8.882,8.882,0,0,1,3.643,1.865A3.715,3.715,0,0,1,49.927-3.75a3.422,3.422,0,0,1-1.4,2.9A6.113,6.113,0,0,1,44.771.2a7.26,7.26,0,0,1-2.988-.6,4.729,4.729,0,0,1-2.056-1.646,4.214,4.214,0,0,1-.708-2.422h2.939q0,2.354,2.813,2.354A2.736,2.736,0,0,0,46.4-2.544,1.382,1.382,0,0,0,46.987-3.73Zm12.949.8H54.8L53.823,0H50.708L56-14.219h2.715L64.038,0H60.923ZM55.591-5.3h3.555l-1.787-5.322ZM65.366,0V-14.219h4.375a6.644,6.644,0,0,1,3.354.845,5.89,5.89,0,0,1,2.31,2.4,7.41,7.41,0,0,1,.83,3.54v.654a7.431,7.431,0,0,1-.815,3.525,5.84,5.84,0,0,1-2.3,2.393A6.694,6.694,0,0,1,69.771,0ZM68.3-11.846v9.492h1.416a3.181,3.181,0,0,0,2.627-1.123,5.075,5.075,0,0,0,.928-3.213v-.752a5.156,5.156,0,0,0-.9-3.286,3.171,3.171,0,0,0-2.627-1.118ZM86.187-2.93H81.05L80.073,0H76.958l5.293-14.219h2.715L90.288,0H87.173ZM81.841-5.3H85.4l-1.787-5.322ZM-46.46,16.818h-5.625v3.828h6.6V23h-9.531V8.781H-45.5v2.373h-6.582v3.389h5.625ZM-32.2,23h-2.93l-5.7-9.355V23h-2.93V8.781h2.93l5.713,9.375V8.781h2.92Zm10.469-2.354h6.221V23h-9.15V8.781h2.93ZM-5.62,20.07h-5.137L-11.733,23h-3.115L-9.556,8.781h2.715L-1.519,23H-4.634ZM-9.966,17.7h3.555L-8.2,12.375Zm25.918.566a5.031,5.031,0,0,1-1.694,3.613A5.951,5.951,0,0,1,10.229,23.2a5.351,5.351,0,0,1-4.3-1.841A7.548,7.548,0,0,1,4.36,16.3v-.869a8.523,8.523,0,0,1,.723-3.613,5.416,5.416,0,0,1,2.065-2.4,5.786,5.786,0,0,1,3.12-.835A5.8,5.8,0,0,1,14.233,9.9a5.407,5.407,0,0,1,1.738,3.7h-2.93a2.97,2.97,0,0,0-.767-2,2.839,2.839,0,0,0-2.007-.62,2.489,2.489,0,0,0-2.192,1.05,5.883,5.883,0,0,0-.747,3.257v1.074a6.3,6.3,0,0,0,.7,3.369,2.443,2.443,0,0,0,2.2,1.064,2.892,2.892,0,0,0,2.026-.62,2.8,2.8,0,0,0,.767-1.919ZM25.9,20.07H20.767L19.79,23H16.675L21.968,8.781h2.715L30,23H26.89ZM21.558,17.7h3.555l-1.787-5.322Zm15.039.1H34.263V23h-2.93V8.781h5.283A5.972,5.972,0,0,1,40.5,9.9a3.876,3.876,0,0,1,1.367,3.174,4.374,4.374,0,0,1-.63,2.427,4.3,4.3,0,0,1-1.909,1.548l3.076,5.811V23H39.263Zm-2.334-2.373h2.363a2.42,2.42,0,0,0,1.709-.562,2.007,2.007,0,0,0,.605-1.548,2.148,2.148,0,0,0-.571-1.582,2.374,2.374,0,0,0-1.753-.576H34.263ZM52.124,20.07H46.987L46.011,23H42.9L48.188,8.781H50.9L56.226,23H53.11ZM47.778,17.7h3.555l-1.787-5.322Z" transform="translate(909.028 771)" fill="#fff"/>
    <path id="Trazado_175250" data-name="Trazado 175250" d="M-22.373-4.736a5.031,5.031,0,0,1-1.694,3.613A5.951,5.951,0,0,1-28.1.2a5.351,5.351,0,0,1-4.3-1.841A7.548,7.548,0,0,1-33.965-6.7v-.869a8.523,8.523,0,0,1,.723-3.613,5.415,5.415,0,0,1,2.065-2.4,5.786,5.786,0,0,1,3.12-.835A5.8,5.8,0,0,1-24.092-13.1a5.407,5.407,0,0,1,1.738,3.7h-2.93a2.97,2.97,0,0,0-.767-2,2.839,2.839,0,0,0-2.007-.62,2.489,2.489,0,0,0-2.192,1.05A5.883,5.883,0,0,0-31-7.705v1.074a6.3,6.3,0,0,0,.7,3.369A2.443,2.443,0,0,0-28.1-2.2a2.892,2.892,0,0,0,2.026-.62A2.8,2.8,0,0,0-25.3-4.736Zm12.686-9.482v9.365a4.8,4.8,0,0,1-1.46,3.691A5.629,5.629,0,0,1-15.137.2a5.692,5.692,0,0,1-3.955-1.318,4.713,4.713,0,0,1-1.494-3.623v-9.473h2.93v9.385A2.709,2.709,0,0,0-16.987-2.8a2.568,2.568,0,0,0,1.851.64q2.471,0,2.51-2.6v-9.463Zm7.666,9.014H-4.355V0h-2.93V-14.219H-2A5.972,5.972,0,0,1,1.885-13.1,3.876,3.876,0,0,1,3.252-9.922,4.374,4.374,0,0,1,2.622-7.5,4.3,4.3,0,0,1,.713-5.947L3.789-.137V0H.645ZM-4.355-7.578h2.363A2.42,2.42,0,0,0-.283-8.14,2.007,2.007,0,0,0,.322-9.687,2.148,2.148,0,0,0-.249-11.27,2.374,2.374,0,0,0-2-11.846H-4.355Zm14.9,4.053L13.77-14.219h3.262L12.08,0H9.023L4.092-14.219H7.344Zm15.117.6H20.527L19.551,0H16.436l5.293-14.219h2.715L29.766,0H26.65ZM21.318-5.3h3.555l-1.787-5.322ZM-46.074,18.264a5.031,5.031,0,0,1-1.694,3.613A5.951,5.951,0,0,1-51.8,23.2a5.351,5.351,0,0,1-4.3-1.841A7.548,7.548,0,0,1-57.666,16.3v-.869a8.523,8.523,0,0,1,.723-3.613,5.415,5.415,0,0,1,2.065-2.4,5.786,5.786,0,0,1,3.12-.835A5.8,5.8,0,0,1-47.793,9.9a5.407,5.407,0,0,1,1.738,3.7h-2.93a2.97,2.97,0,0,0-.767-2,2.839,2.839,0,0,0-2.007-.62,2.489,2.489,0,0,0-2.192,1.05,5.883,5.883,0,0,0-.747,3.257v1.074a6.3,6.3,0,0,0,.7,3.369A2.443,2.443,0,0,0-51.8,20.8a2.892,2.892,0,0,0,2.026-.62A2.8,2.8,0,0,0-49,18.264Zm13.6-2.051a8.583,8.583,0,0,1-.742,3.682,5.589,5.589,0,0,1-2.124,2.441,5.875,5.875,0,0,1-3.169.859,5.915,5.915,0,0,1-3.154-.85,5.644,5.644,0,0,1-2.148-2.427,8.338,8.338,0,0,1-.771-3.628v-.7a8.538,8.538,0,0,1,.757-3.7A5.635,5.635,0,0,1-41.685,9.44a5.883,5.883,0,0,1,3.159-.854,5.883,5.883,0,0,1,3.159.854,5.635,5.635,0,0,1,2.139,2.451,8.514,8.514,0,0,1,.757,3.687Zm-2.969-.645a5.984,5.984,0,0,0-.8-3.4,2.61,2.61,0,0,0-2.285-1.162A2.611,2.611,0,0,0-40.8,12.155a5.915,5.915,0,0,0-.811,3.364v.693a6.058,6.058,0,0,0,.8,3.379,2.6,2.6,0,0,0,2.3,1.2,2.579,2.579,0,0,0,2.266-1.157,6.023,6.023,0,0,0,.8-3.374Zm8.926-6.787,3.652,10.313,3.633-10.312h3.848V23H-18.32V19.113l.293-6.709L-21.865,23h-2.012l-3.828-10.586.293,6.7V23h-2.93V8.781ZM-12.822,23V8.781h4.98a6.54,6.54,0,0,1,3.926.991,3.389,3.389,0,0,1,1.338,2.905,3.212,3.212,0,0,1-.537,1.841,3.1,3.1,0,0,1-1.494,1.167,3,3,0,0,1,1.724,1.1,3.262,3.262,0,0,1,.63,2.031,3.752,3.752,0,0,1-1.309,3.105A5.891,5.891,0,0,1-7.295,23Zm2.93-6.191v3.838h2.51a2.422,2.422,0,0,0,1.616-.493,1.691,1.691,0,0,0,.581-1.362,1.786,1.786,0,0,0-2.021-1.982Zm0-2.07h2.168q2.217-.039,2.217-1.768a1.633,1.633,0,0,0-.562-1.392,2.953,2.953,0,0,0-1.772-.425H-9.893ZM3.057,23H.127V8.781h2.93Zm14.277,0H14.4L8.7,13.645V23H5.771V8.781H8.7l5.713,9.375V8.781h2.92ZM28.1,20.07H22.959L21.982,23H18.867L24.16,8.781h2.715L32.2,23H29.082ZM23.75,17.7H27.3l-1.787-5.322ZM33.525,23V8.781H37.9a6.644,6.644,0,0,1,3.354.845,5.89,5.89,0,0,1,2.31,2.4,7.41,7.41,0,0,1,.83,3.54v.654a7.431,7.431,0,0,1-.815,3.525,5.84,5.84,0,0,1-2.3,2.393A6.694,6.694,0,0,1,37.93,23Zm2.93-11.846v9.492h1.416A3.181,3.181,0,0,0,40.5,19.523a5.075,5.075,0,0,0,.928-3.213v-.752a5.156,5.156,0,0,0-.9-3.286A3.171,3.171,0,0,0,37.9,11.154ZM54.346,20.07H49.209L48.232,23H45.117L50.41,8.781h2.715L58.447,23H55.332ZM50,17.7h3.555l-1.787-5.322Z" transform="translate(909.028 862)" fill="#fff"/>
    <path id="Trazado_175248" data-name="Trazado 175248" d="M-52.246-5.01V0h-2.93V-14.219h5.547a6.417,6.417,0,0,1,2.817.586,4.318,4.318,0,0,1,1.87,1.665,4.643,4.643,0,0,1,.654,2.456,4.083,4.083,0,0,1-1.431,3.3,5.959,5.959,0,0,1-3.96,1.206Zm0-2.373h2.617a2.573,2.573,0,0,0,1.772-.547,1.989,1.989,0,0,0,.61-1.562,2.345,2.345,0,0,0-.615-1.689,2.3,2.3,0,0,0-1.7-.664h-2.686Zm15.234,2.178h-2.334V0h-2.93V-14.219h5.283A5.972,5.972,0,0,1-33.105-13.1a3.876,3.876,0,0,1,1.367,3.174,4.374,4.374,0,0,1-.63,2.427,4.3,4.3,0,0,1-1.909,1.548L-31.2-.137V0h-3.145Zm-2.334-2.373h2.363a2.42,2.42,0,0,0,1.709-.562,2.007,2.007,0,0,0,.605-1.548,2.148,2.148,0,0,0-.571-1.582,2.374,2.374,0,0,0-1.753-.576h-2.354Zm21.514.791a8.584,8.584,0,0,1-.742,3.682A5.589,5.589,0,0,1-20.7-.664,5.875,5.875,0,0,1-23.867.2a5.915,5.915,0,0,1-3.154-.85A5.644,5.644,0,0,1-29.17-3.081a8.338,8.338,0,0,1-.771-3.628v-.7a8.538,8.538,0,0,1,.757-3.7,5.635,5.635,0,0,1,2.139-2.451,5.883,5.883,0,0,1,3.159-.854,5.883,5.883,0,0,1,3.159.854,5.635,5.635,0,0,1,2.139,2.451,8.514,8.514,0,0,1,.757,3.687ZM-20.8-7.432a5.984,5.984,0,0,0-.8-3.4,2.61,2.61,0,0,0-2.285-1.162,2.611,2.611,0,0,0-2.275,1.147,5.915,5.915,0,0,0-.811,3.364v.693a6.058,6.058,0,0,0,.8,3.379,2.6,2.6,0,0,0,2.3,1.2A2.579,2.579,0,0,0-21.6-3.364a6.023,6.023,0,0,0,.8-3.374Zm9.58-.381,2.959-6.406h3.2L-9.727-5.156V0h-2.979V-5.156l-4.668-9.062h3.213ZM4.795-6.182H-.83v3.828h6.6V0H-3.76V-14.219H5.752v2.373H-.83v3.389H4.795ZM18.652-4.736a5.031,5.031,0,0,1-1.694,3.613A5.951,5.951,0,0,1,12.93.2a5.351,5.351,0,0,1-4.3-1.841A7.548,7.548,0,0,1,7.061-6.7v-.869a8.523,8.523,0,0,1,.723-3.613,5.416,5.416,0,0,1,2.065-2.4,5.786,5.786,0,0,1,3.12-.835A5.8,5.8,0,0,1,16.934-13.1a5.407,5.407,0,0,1,1.738,3.7h-2.93a2.97,2.97,0,0,0-.767-2,2.839,2.839,0,0,0-2.007-.62,2.489,2.489,0,0,0-2.192,1.05,5.883,5.883,0,0,0-.747,3.257v1.074a6.3,6.3,0,0,0,.7,3.369A2.443,2.443,0,0,0,12.93-2.2a2.892,2.892,0,0,0,2.026-.62,2.8,2.8,0,0,0,.767-1.919ZM31-11.846H26.641V0h-2.93V-11.846h-4.3v-2.373H31ZM39.521-2.93H34.385L33.408,0H30.293l5.293-14.219H38.3L43.623,0H40.508ZM35.176-5.3H38.73l-1.787-5.322Zm15.039.1H47.881V0h-2.93V-14.219h5.283A5.972,5.972,0,0,1,54.121-13.1a3.876,3.876,0,0,1,1.367,3.174,4.374,4.374,0,0,1-.63,2.427,4.3,4.3,0,0,1-1.909,1.548L56.025-.137V0H52.881ZM47.881-7.578h2.363a2.42,2.42,0,0,0,1.709-.562,2.007,2.007,0,0,0,.605-1.548,2.148,2.148,0,0,0-.571-1.582,2.374,2.374,0,0,0-1.753-.576H47.881ZM-19.883,18.264a5.031,5.031,0,0,1-1.694,3.613A5.951,5.951,0,0,1-25.605,23.2a5.351,5.351,0,0,1-4.3-1.841A7.548,7.548,0,0,1-31.475,16.3v-.869a8.523,8.523,0,0,1,.723-3.613,5.416,5.416,0,0,1,2.065-2.4,5.786,5.786,0,0,1,3.12-.835A5.8,5.8,0,0,1-21.6,9.9a5.407,5.407,0,0,1,1.738,3.7h-2.93a2.97,2.97,0,0,0-.767-2,2.839,2.839,0,0,0-2.007-.62,2.489,2.489,0,0,0-2.192,1.05,5.883,5.883,0,0,0-.747,3.257v1.074a6.3,6.3,0,0,0,.7,3.369,2.443,2.443,0,0,0,2.2,1.064,2.892,2.892,0,0,0,2.026-.62,2.8,2.8,0,0,0,.767-1.919ZM-7.2,8.781v9.365a4.8,4.8,0,0,1-1.46,3.691A5.629,5.629,0,0,1-12.646,23.2,5.692,5.692,0,0,1-16.6,21.877,4.713,4.713,0,0,1-18.1,18.254V8.781h2.93v9.385A2.709,2.709,0,0,0-14.5,20.2a2.568,2.568,0,0,0,1.851.64q2.471,0,2.51-2.6V8.781ZM.469,17.795H-1.865V23h-2.93V8.781H.488A5.972,5.972,0,0,1,4.375,9.9a3.876,3.876,0,0,1,1.367,3.174,4.374,4.374,0,0,1-.63,2.427A4.3,4.3,0,0,1,3.2,17.053l3.076,5.811V23H3.135Zm-2.334-2.373H.5a2.42,2.42,0,0,0,1.709-.562,2.007,2.007,0,0,0,.605-1.548,2.148,2.148,0,0,0-.571-1.582,2.374,2.374,0,0,0-1.753-.576H-1.865Zm14.9,4.053L16.26,8.781h3.262L14.57,23H11.514L6.582,8.781H9.834Zm15.117.6H23.018L22.041,23H18.926L24.219,8.781h2.715L32.256,23H29.141ZM23.809,17.7h3.555l-1.787-5.322Z" transform="translate(1128.085 771)" fill="#fff"/>
    <path id="Trazado_175249" data-name="Trazado 175249" d="M-52.441-5.205h-2.334V0h-2.93V-14.219h5.283A5.972,5.972,0,0,1-48.535-13.1a3.876,3.876,0,0,1,1.367,3.174A4.374,4.374,0,0,1-47.8-7.5a4.3,4.3,0,0,1-1.909,1.548l3.076,5.811V0h-3.145Zm-2.334-2.373h2.363A2.42,2.42,0,0,0-50.7-8.14,2.007,2.007,0,0,0-50.1-9.687a2.148,2.148,0,0,0-.571-1.582,2.374,2.374,0,0,0-1.753-.576h-2.354Zm18.389,1.4h-5.625v3.828h6.6V0h-9.531V-14.219h9.512v2.373h-6.582v3.389h5.625Zm13.857,1.445a5.031,5.031,0,0,1-1.694,3.613A5.951,5.951,0,0,1-28.252.2a5.351,5.351,0,0,1-4.3-1.841A7.548,7.548,0,0,1-34.121-6.7v-.869a8.523,8.523,0,0,1,.723-3.613,5.415,5.415,0,0,1,2.065-2.4,5.786,5.786,0,0,1,3.12-.835A5.8,5.8,0,0,1-24.248-13.1a5.407,5.407,0,0,1,1.738,3.7h-2.93a2.97,2.97,0,0,0-.767-2,2.839,2.839,0,0,0-2.007-.62,2.489,2.489,0,0,0-2.192,1.05,5.883,5.883,0,0,0-.747,3.257v1.074a6.3,6.3,0,0,0,.7,3.369,2.443,2.443,0,0,0,2.2,1.064,2.892,2.892,0,0,0,2.026-.62,2.8,2.8,0,0,0,.767-1.919Zm13.6-2.051a8.583,8.583,0,0,1-.742,3.682A5.589,5.589,0,0,1-11.792-.664,5.875,5.875,0,0,1-14.961.2a5.915,5.915,0,0,1-3.154-.85,5.644,5.644,0,0,1-2.148-2.427,8.338,8.338,0,0,1-.771-3.628v-.7a8.538,8.538,0,0,1,.757-3.7A5.635,5.635,0,0,1-18.14-13.56a5.883,5.883,0,0,1,3.159-.854,5.883,5.883,0,0,1,3.159.854,5.635,5.635,0,0,1,2.139,2.451,8.514,8.514,0,0,1,.757,3.687Zm-2.969-.645a5.984,5.984,0,0,0-.8-3.4,2.61,2.61,0,0,0-2.285-1.162,2.611,2.611,0,0,0-2.275,1.147,5.915,5.915,0,0,0-.811,3.364v.693a6.058,6.058,0,0,0,.8,3.379,2.6,2.6,0,0,0,2.3,1.2A2.579,2.579,0,0,0-12.7-3.364a6.023,6.023,0,0,0,.8-3.374ZM-1.533-5.205H-3.867V0H-6.8V-14.219h5.283A5.972,5.972,0,0,1,2.373-13.1,3.876,3.876,0,0,1,3.74-9.922,4.374,4.374,0,0,1,3.11-7.5,4.3,4.3,0,0,1,1.2-5.947L4.277-.137V0H1.133ZM-3.867-7.578H-1.5A2.42,2.42,0,0,0,.205-8.14,2.007,2.007,0,0,0,.811-9.687,2.148,2.148,0,0,0,.239-11.27a2.374,2.374,0,0,0-1.753-.576H-3.867Zm20.049-4.268H11.826V0H8.9V-11.846H4.6v-2.373H16.182ZM24.707-2.93H19.57L18.594,0H15.479l5.293-14.219h2.715L28.809,0H25.693ZM20.361-5.3h3.555l-1.787-5.322Zm15.039.1H33.066V0h-2.93V-14.219H35.42A5.972,5.972,0,0,1,39.307-13.1a3.876,3.876,0,0,1,1.367,3.174,4.374,4.374,0,0,1-.63,2.427,4.3,4.3,0,0,1-1.909,1.548L41.211-.137V0H38.066ZM33.066-7.578H35.43a2.42,2.42,0,0,0,1.709-.562,2.007,2.007,0,0,0,.605-1.548,2.148,2.148,0,0,0-.571-1.582,2.374,2.374,0,0,0-1.753-.576H33.066Zm19.717-.234,2.959-6.406h3.2L54.277-5.156V0H51.3V-5.156l-4.668-9.062h3.213ZM-74.336,16.818h-5.625v3.828h6.6V23h-9.531V8.781h9.512v2.373h-6.582v3.389h5.625Zm7.783-3.135,2.666-4.9h3.369l-4.141,7.051L-60.41,23h-3.408l-2.734-4.98L-69.287,23H-72.7l4.248-7.168-4.141-7.051h3.369Zm18.32-2.529h-4.355V23h-2.93V11.154h-4.3V8.781h11.582Zm10.225,5.664h-5.625v3.828h6.6V23h-9.531V8.781h9.512v2.373h-6.582v3.389h5.625ZM-23.75,23h-2.93l-5.7-9.355V23h-2.93V8.781h2.93l5.713,9.375V8.781h2.92Zm2.559,0V8.781h4.375a6.644,6.644,0,0,1,3.354.845,5.89,5.89,0,0,1,2.31,2.4,7.41,7.41,0,0,1,.83,3.54v.654a7.431,7.431,0,0,1-.815,3.525,5.84,5.84,0,0,1-2.3,2.393,6.694,6.694,0,0,1-3.35.859Zm2.93-11.846v9.492h1.416a3.181,3.181,0,0,0,2.627-1.123,5.075,5.075,0,0,0,.928-3.213v-.752a5.156,5.156,0,0,0-.9-3.286,3.171,3.171,0,0,0-2.627-1.118ZM.361,16.818H-5.264v3.828h6.6V23H-8.193V8.781H1.318v2.373H-5.264v3.389H.361Zm7.959.977H5.986V23H3.057V8.781H8.34A5.972,5.972,0,0,1,12.227,9.9a3.876,3.876,0,0,1,1.367,3.174,4.374,4.374,0,0,1-.63,2.427,4.3,4.3,0,0,1-1.909,1.548l3.076,5.811V23H10.986ZM5.986,15.422H8.35a2.42,2.42,0,0,0,1.709-.562,2.007,2.007,0,0,0,.605-1.548,2.148,2.148,0,0,0-.571-1.582,2.374,2.374,0,0,0-1.753-.576H5.986Zm25.977,2.842a5.031,5.031,0,0,1-1.694,3.613A5.951,5.951,0,0,1,26.24,23.2a5.351,5.351,0,0,1-4.3-1.841A7.548,7.548,0,0,1,20.371,16.3v-.869a8.523,8.523,0,0,1,.723-3.613,5.416,5.416,0,0,1,2.065-2.4,5.786,5.786,0,0,1,3.12-.835A5.8,5.8,0,0,1,30.244,9.9a5.407,5.407,0,0,1,1.738,3.7h-2.93a2.97,2.97,0,0,0-.767-2,2.839,2.839,0,0,0-2.007-.62,2.489,2.489,0,0,0-2.192,1.05,5.883,5.883,0,0,0-.747,3.257v1.074a6.3,6.3,0,0,0,.7,3.369,2.443,2.443,0,0,0,2.2,1.064,2.892,2.892,0,0,0,2.026-.62,2.8,2.8,0,0,0,.767-1.919ZM44.648,8.781v9.365a4.8,4.8,0,0,1-1.46,3.691A5.629,5.629,0,0,1,39.2,23.2a5.692,5.692,0,0,1-3.955-1.318,4.713,4.713,0,0,1-1.494-3.623V8.781h2.93v9.385a2.709,2.709,0,0,0,.669,2.036,2.568,2.568,0,0,0,1.851.64q2.471,0,2.51-2.6V8.781Zm7.666,9.014H49.98V23h-2.93V8.781h5.283A5.972,5.972,0,0,1,56.221,9.9a3.876,3.876,0,0,1,1.367,3.174,4.374,4.374,0,0,1-.63,2.427,4.3,4.3,0,0,1-1.909,1.548l3.076,5.811V23H54.98ZM49.98,15.422h2.363a2.42,2.42,0,0,0,1.709-.562,2.007,2.007,0,0,0,.605-1.548,2.148,2.148,0,0,0-.571-1.582,2.374,2.374,0,0,0-1.753-.576H49.98Zm14.9,4.053L68.105,8.781h3.262L66.416,23H63.359L58.428,8.781H61.68ZM80,20.07H74.863L73.887,23H70.771L76.064,8.781h2.715L84.1,23H80.986ZM75.654,17.7h3.555l-1.787-5.322Z" transform="translate(1128.085 862)" fill="#fff"/>
    <path id="Trazado_174341" data-name="Trazado 174341" d="M295.654,58.462l-13.882-8.015V66.477Z" transform="translate(773.986 554.075) rotate(120)" fill="#af0f3f"/>
    <path id="Trazado_174412" data-name="Trazado 174412" d="M295.654,58.462l-13.882-8.015V66.477Z" transform="translate(773.986 644.698) rotate(120)" fill="#af0f3f"/>
    <path id="Trazado_174408" data-name="Trazado 174408" d="M295.654,58.462l-13.882-8.015V66.477Z" transform="translate(991.986 554.075) rotate(120)" fill="#af0f3f"/>
    <path id="Trazado_174411" data-name="Trazado 174411" d="M295.654,58.462l-13.882-8.015V66.477Z" transform="translate(991.986 644.698) rotate(120)" fill="#af0f3f"/>
    <path id="Trazado_174409" data-name="Trazado 174409" d="M295.654,58.462l-13.882-8.015V66.477Z" transform="translate(1209.986 554.075) rotate(120)" fill="#af0f3f"/>
    <path id="Trazado_174410" data-name="Trazado 174410" d="M295.654,58.462l-13.882-8.015V66.477Z" transform="translate(1209.986 644.698) rotate(120)" fill="#af0f3f"/>
  </g>
</svg>
