<svg id="Grupo_125872" data-name="Grupo 125872" xmlns="http://www.w3.org/2000/svg" xmlns:xlink="http://www.w3.org/1999/xlink" width="114.636" height="114.636" viewBox="0 0 114.636 114.636">
  <defs>
    <radialGradient id="radial-gradient" cx="0.076" cy="0.019" r="1.465" gradientTransform="translate(0.001)" gradientUnits="objectBoundingBox">
      <stop offset="0" stop-color="#f6f6f7"/>
      <stop offset="0.477" stop-color="#f9f9fa"/>
      <stop offset="0.715" stop-color="#fff"/>
    </radialGradient>
  </defs>
  <g id="Grupo_18423" data-name="Grupo 18423" transform="translate(0 0)">
    <g id="Grupo_18421" data-name="Grupo 18421">
      <g id="Grupo_18420" data-name="Grupo 18420">
        <g id="Grupo_18419" data-name="Grupo 18419">
          <path id="Trazado_40936" data-name="Trazado 40936" d="M309.259,2203.037a57.318,57.318,0,1,1-57.317-57.316A57.317,57.317,0,0,1,309.259,2203.037Z" transform="translate(-194.623 -2145.721)" fill="#fff"/>
        </g>
      </g>
    </g>
    <path id="Trazado_40937" data-name="Trazado 40937" d="M308.648,2202.372a57.316,57.316,0,1,0-57.317,57.319A57.091,57.091,0,0,0,308.648,2202.372Z" transform="translate(-194.013 -2145.056)" fill="url(#radial-gradient)"/>
    <path id="Trazado_40938" data-name="Trazado 40938" d="M289.672,2196.986a43.75,43.75,0,1,0-43.75,43.75A43.587,43.587,0,0,0,289.672,2196.986Z" transform="translate(-188.43 -2139.479)" fill="none" stroke="#0f1027" stroke-miterlimit="10" stroke-width="4"/>
    <g id="Grupo_18422" data-name="Grupo 18422" transform="translate(10.154 32.18)">
      <path id="Trazado_40939" data-name="Trazado 40939" d="M299.231,2164.488a57.325,57.325,0,0,1-98.686,57.081,57.143,57.143,0,0,0,98.686-57.081Z" transform="translate(-200.545 -2164.488)" fill="#eceef0"/>
    </g>
  </g>
  <g id="vOInKL.tif" transform="translate(187.785 1556.807)">
    <g id="Grupo_124248" data-name="Grupo 124248" transform="translate(-154.858 -1524.421)">
      <path id="Trazado_174124" data-name="Trazado 174124" d="M-154.858-1492.082q6.968-3.528,13.938-7.054c2.063-1.042,4.152-2.035,6.19-3.124a1.718,1.718,0,0,0,.857-1.16c.072-2.985.039-5.973.039-9.187-1.2,0-2.365.053-3.517-.026a2.034,2.034,0,0,1-1.362-.579c-.151-.193.178-.92.461-1.266,2.532-3.094,5.1-6.161,7.664-9.226.807-.964,1.168-.957,1.99.024,2.567,3.065,5.133,6.131,7.663,9.227.279.342.559.979.418,1.286s-.8.507-1.246.536c-1.128.073-2.265.024-3.551.024-.022.467-.055.868-.056,1.269-.005,2.315.07,4.633-.032,6.944a2.256,2.256,0,0,0,1.493,2.491c6.088,2.951,12.107,6.044,18.185,9.019,1.072.525,1.263,1.211,1.439,2.319.5,3.172-.8,4.738-3.678,6.046-6.766,3.081-13.346,6.569-20,9.9a12.893,12.893,0,0,0-1.137.721h-1.01a13.078,13.078,0,0,0-1.137-.719q-9.631-4.828-19.27-9.641c-1.461-.733-2.9-1.511-4.346-2.268Zm18.634-22.227c1.164,0,2.033.014,2.9,0,.767-.016,1.2.287,1.2,1.1-.011,5.765.053,11.532-.064,17.295a5.192,5.192,0,0,1-3.273,4.855c-.436.19-1.088-.119-1.64-.2.295-.423.5-1.018.9-1.235a3.649,3.649,0,0,0,2.187-2.759c.174-1.761.044-3.553.044-5.469l-18.046,9.023a4.527,4.527,0,0,0,.506.368c7.064,3.536,14.123,7.081,21.21,10.57a2.079,2.079,0,0,0,1.6-.1q10.344-5.1,20.646-10.29c.27-.135.513-.326.87-.557l-18.167-9.074c0,1.649-.029,3.077.007,4.5a4.114,4.114,0,0,0,2.435,3.823c.372.188.546.769.81,1.17-.51.107-1.118.447-1.513.281a5.347,5.347,0,0,1-3.424-5.147c-.086-5.638-.025-11.278-.045-16.916,0-.933.41-1.286,1.307-1.25.848.034,1.7.007,2.8.007l-6.626-7.942Zm5.729,38.125c.185-2.666.185-2.666-2.02-3.768q-9.628-4.811-19.256-9.623c-.4-.2-.8-.372-1.244-.575-.382,2.573-.382,2.573,1.693,3.609q9.741,4.868,19.484,9.735C-131.437-1476.6-131.022-1476.427-130.5-1476.184Zm1.853,0c.506-.245.92-.438,1.328-.642l19.49-9.733c2.027-1.012,2.112-1.2,1.578-3.556-.424.194-.839.37-1.241.571-6.459,3.224-12.884,6.519-19.4,9.629-1.616.772-2.2,1.7-1.882,3.356C-128.752-1476.487-128.718-1476.413-128.643-1476.189Z" transform="translate(154.858 1524.421)" fill="#0f1027"/>
    </g>
  </g>
</svg>
