<svg id="Grupo_111597" data-name="Grupo 111597" xmlns="http://www.w3.org/2000/svg" xmlns:xlink="http://www.w3.org/1999/xlink" width="114.636" height="114.636" viewBox="0 0 114.636 114.636">
  <defs>
    <radialGradient id="radial-gradient" cx="0.076" cy="0.019" r="1.465" gradientTransform="translate(0.001)" gradientUnits="objectBoundingBox">
      <stop offset="0" stop-color="#f6f6f7"/>
      <stop offset="0.477" stop-color="#f9f9fa"/>
      <stop offset="0.715" stop-color="#fff"/>
    </radialGradient>
  </defs>
  <g id="Grupo_18423" data-name="Grupo 18423" transform="translate(0 0)">
    <g id="Grupo_18421" data-name="Grupo 18421">
      <g id="Grupo_18420" data-name="Grupo 18420">
        <g id="Grupo_18419" data-name="Grupo 18419">
          <path id="Trazado_40936" data-name="Trazado 40936" d="M309.259,2203.037a57.318,57.318,0,1,1-57.317-57.316A57.317,57.317,0,0,1,309.259,2203.037Z" transform="translate(-194.623 -2145.721)" fill="#fff"/>
        </g>
      </g>
    </g>
    <path id="Trazado_40937" data-name="Trazado 40937" d="M308.648,2202.372a57.316,57.316,0,1,0-57.317,57.319A57.091,57.091,0,0,0,308.648,2202.372Z" transform="translate(-194.013 -2145.056)" fill="url(#radial-gradient)"/>
    <path id="Trazado_40938" data-name="Trazado 40938" d="M289.672,2196.986a43.75,43.75,0,1,0-43.75,43.75A43.587,43.587,0,0,0,289.672,2196.986Z" transform="translate(-188.43 -2139.479)" fill="none" stroke="#0f1027" stroke-miterlimit="10" stroke-width="4"/>
    <g id="Grupo_18422" data-name="Grupo 18422" transform="translate(10.154 32.18)">
      <path id="Trazado_40939" data-name="Trazado 40939" d="M299.231,2164.488a57.325,57.325,0,0,1-98.686,57.081,57.143,57.143,0,0,0,98.686-57.081Z" transform="translate(-200.545 -2164.488)" fill="#eceef0"/>
    </g>
  </g>
  <g id="Y4sCOk.tif" transform="translate(-285.19 55.216)">
    <g id="Grupo_125876" data-name="Grupo 125876" transform="translate(316.641 -27.864)">
      <path id="Trazado_174715" data-name="Trazado 174715" d="M713.21,367.81a1.372,1.372,0,0,1-1.449.837c-1.982-.027-3.964-.009-5.945-.01a3.03,3.03,0,0,1-.516-.02,1.084,1.084,0,0,1-.9-1.148,1.029,1.029,0,0,1,1.031-1.016c1.1-.025,2.206-.011,3.309-.014h.7c-.223-.229-.346-.359-.472-.486q-4.186-4.185-8.371-8.371a3.419,3.419,0,0,1-.444-.5,1.088,1.088,0,0,1,1.49-1.511,3.189,3.189,0,0,1,.5.442q4.188,4.183,8.368,8.374a2.149,2.149,0,0,1,.281.494l.223-.153q0-1.278,0-2.556c0-.4-.007-.793,0-1.189a1.1,1.1,0,0,1,.8-1.128,1.111,1.111,0,0,1,1.273.56c.036.054.08.1.121.155Z" transform="translate(-660.235 -315.674)" fill="#0f1027"/>
      <path id="Trazado_174716" data-name="Trazado 174716" d="M524.869-27.864c.265.215.55.409.792.647q1.968,1.946,3.911,3.915a1.85,1.85,0,0,1,.457.725,1.041,1.041,0,0,1-.52,1.188,1.072,1.072,0,0,1-1.329-.2c-.694-.671-1.368-1.363-2.052-2.044-.117-.117-.243-.225-.458-.423v.652q0,5.818,0,11.637a3.317,3.317,0,0,1-.058.718,1.078,1.078,0,0,1-1.047.838,1.076,1.076,0,0,1-1.055-.828,3.2,3.2,0,0,1-.06-.717q-.005-5.818,0-11.637v-.545L523.327-24c-.416.425-.831.852-1.249,1.274-.376.38-.746.766-1.137,1.13a1.08,1.08,0,0,1-1.573.014,1.1,1.1,0,0,1,.031-1.576c.51-.537,1.044-1.052,1.568-1.577.817-.817,1.628-1.639,2.454-2.447.255-.25.55-.459.827-.686Z" transform="translate(-498.07 27.864)" fill="#0f1027"/>
      <path id="Trazado_174717" data-name="Trazado 174717" d="M363.433,87.39c1.487.55,2.856,1.058,4.226,1.562q6.565,2.417,13.134,4.822a1.223,1.223,0,0,0,.775.015q8.461-3.1,16.91-6.225c.125-.046.246-.106.439-.19L392.6,85.047c-1.68-.619-3.361-1.232-5.039-1.855a1.107,1.107,0,0,1-.836-1.253,1.094,1.094,0,0,1,1.535-.827c1.572.561,3.135,1.147,4.7,1.721q4.727,1.731,9.454,3.459a1.156,1.156,0,0,1,.857,1.205q-.012,9.9-.023,19.807c0,.207.006.415-.013.62a1.092,1.092,0,0,1-1.062,1,1.11,1.11,0,0,1-1.108-.962,4.218,4.218,0,0,1-.014-.568q0-8.87,0-17.74v-.678c-1.013.371-1.979.724-2.944,1.079q-7.655,2.819-15.311,5.636c-.31.114-.511.215-.51.631q.024,11.637.012,23.273v.388c.217-.07.387-.119.552-.18,3.135-1.149,6.267-2.306,9.407-3.439a2.009,2.009,0,0,1,.991-.1.945.945,0,0,1,.747.889,1.034,1.034,0,0,1-.512,1.054,2.931,2.931,0,0,1-.567.245c-3.746,1.381-7.491,2.766-11.245,4.125a1.492,1.492,0,0,1-.94.008c-3.787-1.37-7.564-2.766-11.344-4.156-.081-.03-.162-.058-.242-.091a1.1,1.1,0,0,1-.719-1.4,1.08,1.08,0,0,1,1.462-.666c1.75.626,3.492,1.274,5.237,1.913l4.412,1.615c.156.057.316.106.534.178v-.575q0-11.482.009-22.963a.681.681,0,0,0-.529-.773q-8.9-3.251-17.784-6.541c-.127-.047-.255-.089-.449-.157v.644q0,8.9,0,17.791a3.837,3.837,0,0,1-.016.568,1.115,1.115,0,0,1-1.122.946,1.1,1.1,0,0,1-1.048-1.019c-.018-.206-.011-.413-.011-.62q0-9.49,0-18.981c0-.275-.02-.551-.022-.826a1.135,1.135,0,0,1,.775-1.161q7.077-2.6,14.155-5.188a1.138,1.138,0,0,1,1.332.233.922.922,0,0,1,.205,1.14,1.794,1.794,0,0,1-.825.7c-3.415,1.284-6.843,2.535-10.267,3.795Z" transform="translate(-354.702 -69.734)" fill="#0f1027"/>
      <path id="Trazado_174718" data-name="Trazado 174718" d="M319.075,364.895a1.941,1.941,0,0,1,.264-.5q4.175-4.2,8.366-8.375c.706-.706,1.312-.806,1.833-.306.538.516.446,1.152-.273,1.871q-4.185,4.186-8.377,8.364a1.855,1.855,0,0,1-.506.256l.182.238h.495c1.086,0,2.172-.01,3.257.005a1.058,1.058,0,0,1,1.139,1.073,1.094,1.094,0,0,1-1.158,1.119h-.052c-2.12,0-4.239,0-6.359,0a1.115,1.115,0,0,1-1.243-1.251c-.006-2.119,0-4.238,0-6.358a1.1,1.1,0,0,1,.63-1.095.935.935,0,0,1,1.15.145,1.658,1.658,0,0,1,.4.948c.05,1.066.019,2.136.019,3.2v.492Z" transform="translate(-316.641 -315.675)" fill="#0f1027"/>
    </g>
  </g>
</svg>
